%TF.GenerationSoftware,KiCad,Pcbnew,(5.1.10)-1*%
%TF.CreationDate,2022-01-17T16:38:05+07:00*%
%TF.ProjectId,ADuM_I2C_v3,4144754d-5f49-4324-935f-76332e6b6963,rev?*%
%TF.SameCoordinates,Original*%
%TF.FileFunction,Copper,L4,Bot*%
%TF.FilePolarity,Positive*%
%FSLAX46Y46*%
G04 Gerber Fmt 4.6, Leading zero omitted, Abs format (unit mm)*
G04 Created by KiCad (PCBNEW (5.1.10)-1) date 2022-01-17 16:38:05*
%MOMM*%
%LPD*%
G01*
G04 APERTURE LIST*
%TA.AperFunction,ComponentPad*%
%ADD10O,1.000000X1.000000*%
%TD*%
%TA.AperFunction,ComponentPad*%
%ADD11R,1.000000X1.000000*%
%TD*%
%TA.AperFunction,SMDPad,CuDef*%
%ADD12R,0.900000X0.800000*%
%TD*%
%TA.AperFunction,ViaPad*%
%ADD13C,0.800000*%
%TD*%
%TA.AperFunction,ViaPad*%
%ADD14C,1.100000*%
%TD*%
%TA.AperFunction,Conductor*%
%ADD15C,0.800000*%
%TD*%
%TA.AperFunction,Conductor*%
%ADD16C,0.600000*%
%TD*%
%TA.AperFunction,Conductor*%
%ADD17C,0.500000*%
%TD*%
%TA.AperFunction,Conductor*%
%ADD18C,0.300000*%
%TD*%
G04 APERTURE END LIST*
D10*
%TO.P,J1,6*%
%TO.N,GND*%
X108636000Y-97714000D03*
%TO.P,J1,5*%
%TO.N,VCC*%
X108636000Y-96444000D03*
%TO.P,J1,4*%
%TO.N,/SCL*%
X109906000Y-97714000D03*
%TO.P,J1,3*%
%TO.N,/SDA*%
X109906000Y-96444000D03*
%TO.P,J1,2*%
%TO.N,/outb*%
X111176000Y-97714000D03*
D11*
%TO.P,J1,1*%
%TO.N,/ina*%
X111176000Y-96444000D03*
%TD*%
D10*
%TO.P,J2,6*%
%TO.N,/inb*%
X88824000Y-97714000D03*
%TO.P,J2,5*%
%TO.N,/outa*%
X88824000Y-96444000D03*
%TO.P,J2,4*%
%TO.N,/SCLq*%
X90094000Y-97714000D03*
%TO.P,J2,3*%
%TO.N,/SDAq*%
X90094000Y-96444000D03*
%TO.P,J2,2*%
%TO.N,GND2*%
X91364000Y-97714000D03*
D11*
%TO.P,J2,1*%
%TO.N,VCCQ*%
X91364000Y-96444000D03*
%TD*%
%TO.P,U1,8*%
%TO.N,VCCQ*%
%TA.AperFunction,SMDPad,CuDef*%
G36*
G01*
X98500000Y-95024000D02*
X98500000Y-95324000D01*
G75*
G02*
X98350000Y-95474000I-150000J0D01*
G01*
X96700000Y-95474000D01*
G75*
G02*
X96550000Y-95324000I0J150000D01*
G01*
X96550000Y-95024000D01*
G75*
G02*
X96700000Y-94874000I150000J0D01*
G01*
X98350000Y-94874000D01*
G75*
G02*
X98500000Y-95024000I0J-150000D01*
G01*
G37*
%TD.AperFunction*%
%TO.P,U1,7*%
%TO.N,Net-(Q5-Pad2)*%
%TA.AperFunction,SMDPad,CuDef*%
G36*
G01*
X98500000Y-96294000D02*
X98500000Y-96594000D01*
G75*
G02*
X98350000Y-96744000I-150000J0D01*
G01*
X96700000Y-96744000D01*
G75*
G02*
X96550000Y-96594000I0J150000D01*
G01*
X96550000Y-96294000D01*
G75*
G02*
X96700000Y-96144000I150000J0D01*
G01*
X98350000Y-96144000D01*
G75*
G02*
X98500000Y-96294000I0J-150000D01*
G01*
G37*
%TD.AperFunction*%
%TO.P,U1,6*%
%TO.N,Net-(Q6-Pad2)*%
%TA.AperFunction,SMDPad,CuDef*%
G36*
G01*
X98500000Y-97564000D02*
X98500000Y-97864000D01*
G75*
G02*
X98350000Y-98014000I-150000J0D01*
G01*
X96700000Y-98014000D01*
G75*
G02*
X96550000Y-97864000I0J150000D01*
G01*
X96550000Y-97564000D01*
G75*
G02*
X96700000Y-97414000I150000J0D01*
G01*
X98350000Y-97414000D01*
G75*
G02*
X98500000Y-97564000I0J-150000D01*
G01*
G37*
%TD.AperFunction*%
%TO.P,U1,5*%
%TO.N,GND2*%
%TA.AperFunction,SMDPad,CuDef*%
G36*
G01*
X98500000Y-98834000D02*
X98500000Y-99134000D01*
G75*
G02*
X98350000Y-99284000I-150000J0D01*
G01*
X96700000Y-99284000D01*
G75*
G02*
X96550000Y-99134000I0J150000D01*
G01*
X96550000Y-98834000D01*
G75*
G02*
X96700000Y-98684000I150000J0D01*
G01*
X98350000Y-98684000D01*
G75*
G02*
X98500000Y-98834000I0J-150000D01*
G01*
G37*
%TD.AperFunction*%
%TO.P,U1,4*%
%TO.N,GND*%
%TA.AperFunction,SMDPad,CuDef*%
G36*
G01*
X103450000Y-98834000D02*
X103450000Y-99134000D01*
G75*
G02*
X103300000Y-99284000I-150000J0D01*
G01*
X101650000Y-99284000D01*
G75*
G02*
X101500000Y-99134000I0J150000D01*
G01*
X101500000Y-98834000D01*
G75*
G02*
X101650000Y-98684000I150000J0D01*
G01*
X103300000Y-98684000D01*
G75*
G02*
X103450000Y-98834000I0J-150000D01*
G01*
G37*
%TD.AperFunction*%
%TO.P,U1,3*%
%TO.N,Net-(Q2-Pad2)*%
%TA.AperFunction,SMDPad,CuDef*%
G36*
G01*
X103450000Y-97564000D02*
X103450000Y-97864000D01*
G75*
G02*
X103300000Y-98014000I-150000J0D01*
G01*
X101650000Y-98014000D01*
G75*
G02*
X101500000Y-97864000I0J150000D01*
G01*
X101500000Y-97564000D01*
G75*
G02*
X101650000Y-97414000I150000J0D01*
G01*
X103300000Y-97414000D01*
G75*
G02*
X103450000Y-97564000I0J-150000D01*
G01*
G37*
%TD.AperFunction*%
%TO.P,U1,2*%
%TO.N,Net-(Q1-Pad2)*%
%TA.AperFunction,SMDPad,CuDef*%
G36*
G01*
X103450000Y-96294000D02*
X103450000Y-96594000D01*
G75*
G02*
X103300000Y-96744000I-150000J0D01*
G01*
X101650000Y-96744000D01*
G75*
G02*
X101500000Y-96594000I0J150000D01*
G01*
X101500000Y-96294000D01*
G75*
G02*
X101650000Y-96144000I150000J0D01*
G01*
X103300000Y-96144000D01*
G75*
G02*
X103450000Y-96294000I0J-150000D01*
G01*
G37*
%TD.AperFunction*%
%TO.P,U1,1*%
%TO.N,VCC*%
%TA.AperFunction,SMDPad,CuDef*%
G36*
G01*
X103450000Y-95024000D02*
X103450000Y-95324000D01*
G75*
G02*
X103300000Y-95474000I-150000J0D01*
G01*
X101650000Y-95474000D01*
G75*
G02*
X101500000Y-95324000I0J150000D01*
G01*
X101500000Y-95024000D01*
G75*
G02*
X101650000Y-94874000I150000J0D01*
G01*
X103300000Y-94874000D01*
G75*
G02*
X103450000Y-95024000I0J-150000D01*
G01*
G37*
%TD.AperFunction*%
%TD*%
%TO.P,R24,2*%
%TO.N,VCCQ*%
%TA.AperFunction,SMDPad,CuDef*%
G36*
G01*
X90075000Y-88718000D02*
X90075000Y-88168000D01*
G75*
G02*
X90275000Y-87968000I200000J0D01*
G01*
X90675000Y-87968000D01*
G75*
G02*
X90875000Y-88168000I0J-200000D01*
G01*
X90875000Y-88718000D01*
G75*
G02*
X90675000Y-88918000I-200000J0D01*
G01*
X90275000Y-88918000D01*
G75*
G02*
X90075000Y-88718000I0J200000D01*
G01*
G37*
%TD.AperFunction*%
%TO.P,R24,1*%
%TO.N,/inb*%
%TA.AperFunction,SMDPad,CuDef*%
G36*
G01*
X88425000Y-88718000D02*
X88425000Y-88168000D01*
G75*
G02*
X88625000Y-87968000I200000J0D01*
G01*
X89025000Y-87968000D01*
G75*
G02*
X89225000Y-88168000I0J-200000D01*
G01*
X89225000Y-88718000D01*
G75*
G02*
X89025000Y-88918000I-200000J0D01*
G01*
X88625000Y-88918000D01*
G75*
G02*
X88425000Y-88718000I0J200000D01*
G01*
G37*
%TD.AperFunction*%
%TD*%
%TO.P,R22,2*%
%TO.N,VCCQ*%
%TA.AperFunction,SMDPad,CuDef*%
G36*
G01*
X96463000Y-93248000D02*
X96463000Y-93798000D01*
G75*
G02*
X96263000Y-93998000I-200000J0D01*
G01*
X95863000Y-93998000D01*
G75*
G02*
X95663000Y-93798000I0J200000D01*
G01*
X95663000Y-93248000D01*
G75*
G02*
X95863000Y-93048000I200000J0D01*
G01*
X96263000Y-93048000D01*
G75*
G02*
X96463000Y-93248000I0J-200000D01*
G01*
G37*
%TD.AperFunction*%
%TO.P,R22,1*%
%TO.N,/SCLq*%
%TA.AperFunction,SMDPad,CuDef*%
G36*
G01*
X98113000Y-93248000D02*
X98113000Y-93798000D01*
G75*
G02*
X97913000Y-93998000I-200000J0D01*
G01*
X97513000Y-93998000D01*
G75*
G02*
X97313000Y-93798000I0J200000D01*
G01*
X97313000Y-93248000D01*
G75*
G02*
X97513000Y-93048000I200000J0D01*
G01*
X97913000Y-93048000D01*
G75*
G02*
X98113000Y-93248000I0J-200000D01*
G01*
G37*
%TD.AperFunction*%
%TD*%
%TO.P,R20,2*%
%TO.N,Net-(Q8-Pad2)*%
%TA.AperFunction,SMDPad,CuDef*%
G36*
G01*
X90075000Y-93798000D02*
X90075000Y-93248000D01*
G75*
G02*
X90275000Y-93048000I200000J0D01*
G01*
X90675000Y-93048000D01*
G75*
G02*
X90875000Y-93248000I0J-200000D01*
G01*
X90875000Y-93798000D01*
G75*
G02*
X90675000Y-93998000I-200000J0D01*
G01*
X90275000Y-93998000D01*
G75*
G02*
X90075000Y-93798000I0J200000D01*
G01*
G37*
%TD.AperFunction*%
%TO.P,R20,1*%
%TO.N,/inb*%
%TA.AperFunction,SMDPad,CuDef*%
G36*
G01*
X88425000Y-93798000D02*
X88425000Y-93248000D01*
G75*
G02*
X88625000Y-93048000I200000J0D01*
G01*
X89025000Y-93048000D01*
G75*
G02*
X89225000Y-93248000I0J-200000D01*
G01*
X89225000Y-93798000D01*
G75*
G02*
X89025000Y-93998000I-200000J0D01*
G01*
X88625000Y-93998000D01*
G75*
G02*
X88425000Y-93798000I0J200000D01*
G01*
G37*
%TD.AperFunction*%
%TD*%
%TO.P,R18,2*%
%TO.N,Net-(Q6-Pad2)*%
%TA.AperFunction,SMDPad,CuDef*%
G36*
G01*
X96463000Y-88168000D02*
X96463000Y-88718000D01*
G75*
G02*
X96263000Y-88918000I-200000J0D01*
G01*
X95863000Y-88918000D01*
G75*
G02*
X95663000Y-88718000I0J200000D01*
G01*
X95663000Y-88168000D01*
G75*
G02*
X95863000Y-87968000I200000J0D01*
G01*
X96263000Y-87968000D01*
G75*
G02*
X96463000Y-88168000I0J-200000D01*
G01*
G37*
%TD.AperFunction*%
%TO.P,R18,1*%
%TO.N,/SCLq*%
%TA.AperFunction,SMDPad,CuDef*%
G36*
G01*
X98113000Y-88168000D02*
X98113000Y-88718000D01*
G75*
G02*
X97913000Y-88918000I-200000J0D01*
G01*
X97513000Y-88918000D01*
G75*
G02*
X97313000Y-88718000I0J200000D01*
G01*
X97313000Y-88168000D01*
G75*
G02*
X97513000Y-87968000I200000J0D01*
G01*
X97913000Y-87968000D01*
G75*
G02*
X98113000Y-88168000I0J-200000D01*
G01*
G37*
%TD.AperFunction*%
%TD*%
%TO.P,R16,2*%
%TO.N,Net-(Q8-Pad2)*%
%TA.AperFunction,SMDPad,CuDef*%
G36*
G01*
X91724000Y-91344000D02*
X92274000Y-91344000D01*
G75*
G02*
X92474000Y-91544000I0J-200000D01*
G01*
X92474000Y-91944000D01*
G75*
G02*
X92274000Y-92144000I-200000J0D01*
G01*
X91724000Y-92144000D01*
G75*
G02*
X91524000Y-91944000I0J200000D01*
G01*
X91524000Y-91544000D01*
G75*
G02*
X91724000Y-91344000I200000J0D01*
G01*
G37*
%TD.AperFunction*%
%TO.P,R16,1*%
%TO.N,VCCQ*%
%TA.AperFunction,SMDPad,CuDef*%
G36*
G01*
X91724000Y-89694000D02*
X92274000Y-89694000D01*
G75*
G02*
X92474000Y-89894000I0J-200000D01*
G01*
X92474000Y-90294000D01*
G75*
G02*
X92274000Y-90494000I-200000J0D01*
G01*
X91724000Y-90494000D01*
G75*
G02*
X91524000Y-90294000I0J200000D01*
G01*
X91524000Y-89894000D01*
G75*
G02*
X91724000Y-89694000I200000J0D01*
G01*
G37*
%TD.AperFunction*%
%TD*%
%TO.P,R14,2*%
%TO.N,Net-(Q6-Pad2)*%
%TA.AperFunction,SMDPad,CuDef*%
G36*
G01*
X94814000Y-90494000D02*
X94264000Y-90494000D01*
G75*
G02*
X94064000Y-90294000I0J200000D01*
G01*
X94064000Y-89894000D01*
G75*
G02*
X94264000Y-89694000I200000J0D01*
G01*
X94814000Y-89694000D01*
G75*
G02*
X95014000Y-89894000I0J-200000D01*
G01*
X95014000Y-90294000D01*
G75*
G02*
X94814000Y-90494000I-200000J0D01*
G01*
G37*
%TD.AperFunction*%
%TO.P,R14,1*%
%TO.N,VCCQ*%
%TA.AperFunction,SMDPad,CuDef*%
G36*
G01*
X94814000Y-92144000D02*
X94264000Y-92144000D01*
G75*
G02*
X94064000Y-91944000I0J200000D01*
G01*
X94064000Y-91544000D01*
G75*
G02*
X94264000Y-91344000I200000J0D01*
G01*
X94814000Y-91344000D01*
G75*
G02*
X95014000Y-91544000I0J-200000D01*
G01*
X95014000Y-91944000D01*
G75*
G02*
X94814000Y-92144000I-200000J0D01*
G01*
G37*
%TD.AperFunction*%
%TD*%
%TO.P,R12,2*%
%TO.N,Net-(Q4-Pad2)*%
%TA.AperFunction,SMDPad,CuDef*%
G36*
G01*
X108276000Y-90495000D02*
X107726000Y-90495000D01*
G75*
G02*
X107526000Y-90295000I0J200000D01*
G01*
X107526000Y-89895000D01*
G75*
G02*
X107726000Y-89695000I200000J0D01*
G01*
X108276000Y-89695000D01*
G75*
G02*
X108476000Y-89895000I0J-200000D01*
G01*
X108476000Y-90295000D01*
G75*
G02*
X108276000Y-90495000I-200000J0D01*
G01*
G37*
%TD.AperFunction*%
%TO.P,R12,1*%
%TO.N,VCC*%
%TA.AperFunction,SMDPad,CuDef*%
G36*
G01*
X108276000Y-92145000D02*
X107726000Y-92145000D01*
G75*
G02*
X107526000Y-91945000I0J200000D01*
G01*
X107526000Y-91545000D01*
G75*
G02*
X107726000Y-91345000I200000J0D01*
G01*
X108276000Y-91345000D01*
G75*
G02*
X108476000Y-91545000I0J-200000D01*
G01*
X108476000Y-91945000D01*
G75*
G02*
X108276000Y-92145000I-200000J0D01*
G01*
G37*
%TD.AperFunction*%
%TD*%
%TO.P,R9,2*%
%TO.N,Net-(Q1-Pad2)*%
%TA.AperFunction,SMDPad,CuDef*%
G36*
G01*
X105186000Y-91344000D02*
X105736000Y-91344000D01*
G75*
G02*
X105936000Y-91544000I0J-200000D01*
G01*
X105936000Y-91944000D01*
G75*
G02*
X105736000Y-92144000I-200000J0D01*
G01*
X105186000Y-92144000D01*
G75*
G02*
X104986000Y-91944000I0J200000D01*
G01*
X104986000Y-91544000D01*
G75*
G02*
X105186000Y-91344000I200000J0D01*
G01*
G37*
%TD.AperFunction*%
%TO.P,R9,1*%
%TO.N,VCC*%
%TA.AperFunction,SMDPad,CuDef*%
G36*
G01*
X105186000Y-89694000D02*
X105736000Y-89694000D01*
G75*
G02*
X105936000Y-89894000I0J-200000D01*
G01*
X105936000Y-90294000D01*
G75*
G02*
X105736000Y-90494000I-200000J0D01*
G01*
X105186000Y-90494000D01*
G75*
G02*
X104986000Y-90294000I0J200000D01*
G01*
X104986000Y-89894000D01*
G75*
G02*
X105186000Y-89694000I200000J0D01*
G01*
G37*
%TD.AperFunction*%
%TD*%
%TO.P,R8,2*%
%TO.N,/outb*%
%TA.AperFunction,SMDPad,CuDef*%
G36*
G01*
X110776000Y-88591000D02*
X110776000Y-88041000D01*
G75*
G02*
X110976000Y-87841000I200000J0D01*
G01*
X111376000Y-87841000D01*
G75*
G02*
X111576000Y-88041000I0J-200000D01*
G01*
X111576000Y-88591000D01*
G75*
G02*
X111376000Y-88791000I-200000J0D01*
G01*
X110976000Y-88791000D01*
G75*
G02*
X110776000Y-88591000I0J200000D01*
G01*
G37*
%TD.AperFunction*%
%TO.P,R8,1*%
%TO.N,Net-(Q4-Pad2)*%
%TA.AperFunction,SMDPad,CuDef*%
G36*
G01*
X109126000Y-88591000D02*
X109126000Y-88041000D01*
G75*
G02*
X109326000Y-87841000I200000J0D01*
G01*
X109726000Y-87841000D01*
G75*
G02*
X109926000Y-88041000I0J-200000D01*
G01*
X109926000Y-88591000D01*
G75*
G02*
X109726000Y-88791000I-200000J0D01*
G01*
X109326000Y-88791000D01*
G75*
G02*
X109126000Y-88591000I0J200000D01*
G01*
G37*
%TD.AperFunction*%
%TD*%
%TO.P,R5,2*%
%TO.N,/SDA*%
%TA.AperFunction,SMDPad,CuDef*%
G36*
G01*
X102687000Y-93248000D02*
X102687000Y-93798000D01*
G75*
G02*
X102487000Y-93998000I-200000J0D01*
G01*
X102087000Y-93998000D01*
G75*
G02*
X101887000Y-93798000I0J200000D01*
G01*
X101887000Y-93248000D01*
G75*
G02*
X102087000Y-93048000I200000J0D01*
G01*
X102487000Y-93048000D01*
G75*
G02*
X102687000Y-93248000I0J-200000D01*
G01*
G37*
%TD.AperFunction*%
%TO.P,R5,1*%
%TO.N,Net-(Q1-Pad2)*%
%TA.AperFunction,SMDPad,CuDef*%
G36*
G01*
X104337000Y-93248000D02*
X104337000Y-93798000D01*
G75*
G02*
X104137000Y-93998000I-200000J0D01*
G01*
X103737000Y-93998000D01*
G75*
G02*
X103537000Y-93798000I0J200000D01*
G01*
X103537000Y-93248000D01*
G75*
G02*
X103737000Y-93048000I200000J0D01*
G01*
X104137000Y-93048000D01*
G75*
G02*
X104337000Y-93248000I0J-200000D01*
G01*
G37*
%TD.AperFunction*%
%TD*%
%TO.P,R4,2*%
%TO.N,VCC*%
%TA.AperFunction,SMDPad,CuDef*%
G36*
G01*
X109925000Y-93248000D02*
X109925000Y-93798000D01*
G75*
G02*
X109725000Y-93998000I-200000J0D01*
G01*
X109325000Y-93998000D01*
G75*
G02*
X109125000Y-93798000I0J200000D01*
G01*
X109125000Y-93248000D01*
G75*
G02*
X109325000Y-93048000I200000J0D01*
G01*
X109725000Y-93048000D01*
G75*
G02*
X109925000Y-93248000I0J-200000D01*
G01*
G37*
%TD.AperFunction*%
%TO.P,R4,1*%
%TO.N,/outb*%
%TA.AperFunction,SMDPad,CuDef*%
G36*
G01*
X111575000Y-93248000D02*
X111575000Y-93798000D01*
G75*
G02*
X111375000Y-93998000I-200000J0D01*
G01*
X110975000Y-93998000D01*
G75*
G02*
X110775000Y-93798000I0J200000D01*
G01*
X110775000Y-93248000D01*
G75*
G02*
X110975000Y-93048000I200000J0D01*
G01*
X111375000Y-93048000D01*
G75*
G02*
X111575000Y-93248000I0J-200000D01*
G01*
G37*
%TD.AperFunction*%
%TD*%
%TO.P,R1,2*%
%TO.N,VCC*%
%TA.AperFunction,SMDPad,CuDef*%
G36*
G01*
X103537000Y-88591000D02*
X103537000Y-88041000D01*
G75*
G02*
X103737000Y-87841000I200000J0D01*
G01*
X104137000Y-87841000D01*
G75*
G02*
X104337000Y-88041000I0J-200000D01*
G01*
X104337000Y-88591000D01*
G75*
G02*
X104137000Y-88791000I-200000J0D01*
G01*
X103737000Y-88791000D01*
G75*
G02*
X103537000Y-88591000I0J200000D01*
G01*
G37*
%TD.AperFunction*%
%TO.P,R1,1*%
%TO.N,/SDA*%
%TA.AperFunction,SMDPad,CuDef*%
G36*
G01*
X101887000Y-88591000D02*
X101887000Y-88041000D01*
G75*
G02*
X102087000Y-87841000I200000J0D01*
G01*
X102487000Y-87841000D01*
G75*
G02*
X102687000Y-88041000I0J-200000D01*
G01*
X102687000Y-88591000D01*
G75*
G02*
X102487000Y-88791000I-200000J0D01*
G01*
X102087000Y-88791000D01*
G75*
G02*
X101887000Y-88591000I0J200000D01*
G01*
G37*
%TD.AperFunction*%
%TD*%
D12*
%TO.P,Q8,3*%
%TO.N,/inb*%
X88475000Y-90983000D03*
%TO.P,Q8,2*%
%TO.N,Net-(Q8-Pad2)*%
X90475000Y-91933000D03*
%TO.P,Q8,1*%
%TO.N,VCCQ*%
X90475000Y-90033000D03*
%TD*%
%TO.P,Q6,3*%
%TO.N,/SCLq*%
X98063000Y-90983000D03*
%TO.P,Q6,2*%
%TO.N,Net-(Q6-Pad2)*%
X96063000Y-90033000D03*
%TO.P,Q6,1*%
%TO.N,VCCQ*%
X96063000Y-91933000D03*
%TD*%
%TO.P,Q4,3*%
%TO.N,/outb*%
X111525000Y-90922000D03*
%TO.P,Q4,2*%
%TO.N,Net-(Q4-Pad2)*%
X109525000Y-89972000D03*
%TO.P,Q4,1*%
%TO.N,VCC*%
X109525000Y-91872000D03*
%TD*%
%TO.P,Q1,3*%
%TO.N,/SDA*%
X101937000Y-90922000D03*
%TO.P,Q1,2*%
%TO.N,Net-(Q1-Pad2)*%
X103937000Y-91872000D03*
%TO.P,Q1,1*%
%TO.N,VCC*%
X103937000Y-89972000D03*
%TD*%
%TO.P,C6,2*%
%TO.N,VCCQ*%
%TA.AperFunction,SMDPad,CuDef*%
G36*
G01*
X93519000Y-96754000D02*
X93019000Y-96754000D01*
G75*
G02*
X92794000Y-96529000I0J225000D01*
G01*
X92794000Y-96079000D01*
G75*
G02*
X93019000Y-95854000I225000J0D01*
G01*
X93519000Y-95854000D01*
G75*
G02*
X93744000Y-96079000I0J-225000D01*
G01*
X93744000Y-96529000D01*
G75*
G02*
X93519000Y-96754000I-225000J0D01*
G01*
G37*
%TD.AperFunction*%
%TO.P,C6,1*%
%TO.N,GND2*%
%TA.AperFunction,SMDPad,CuDef*%
G36*
G01*
X93519000Y-98304000D02*
X93019000Y-98304000D01*
G75*
G02*
X92794000Y-98079000I0J225000D01*
G01*
X92794000Y-97629000D01*
G75*
G02*
X93019000Y-97404000I225000J0D01*
G01*
X93519000Y-97404000D01*
G75*
G02*
X93744000Y-97629000I0J-225000D01*
G01*
X93744000Y-98079000D01*
G75*
G02*
X93519000Y-98304000I-225000J0D01*
G01*
G37*
%TD.AperFunction*%
%TD*%
%TO.P,C4,2*%
%TO.N,VCCQ*%
%TA.AperFunction,SMDPad,CuDef*%
G36*
G01*
X95043000Y-96741000D02*
X94543000Y-96741000D01*
G75*
G02*
X94318000Y-96516000I0J225000D01*
G01*
X94318000Y-96066000D01*
G75*
G02*
X94543000Y-95841000I225000J0D01*
G01*
X95043000Y-95841000D01*
G75*
G02*
X95268000Y-96066000I0J-225000D01*
G01*
X95268000Y-96516000D01*
G75*
G02*
X95043000Y-96741000I-225000J0D01*
G01*
G37*
%TD.AperFunction*%
%TO.P,C4,1*%
%TO.N,GND2*%
%TA.AperFunction,SMDPad,CuDef*%
G36*
G01*
X95043000Y-98291000D02*
X94543000Y-98291000D01*
G75*
G02*
X94318000Y-98066000I0J225000D01*
G01*
X94318000Y-97616000D01*
G75*
G02*
X94543000Y-97391000I225000J0D01*
G01*
X95043000Y-97391000D01*
G75*
G02*
X95268000Y-97616000I0J-225000D01*
G01*
X95268000Y-98066000D01*
G75*
G02*
X95043000Y-98291000I-225000J0D01*
G01*
G37*
%TD.AperFunction*%
%TD*%
%TO.P,C2,2*%
%TO.N,VCC*%
%TA.AperFunction,SMDPad,CuDef*%
G36*
G01*
X105457000Y-96741000D02*
X104957000Y-96741000D01*
G75*
G02*
X104732000Y-96516000I0J225000D01*
G01*
X104732000Y-96066000D01*
G75*
G02*
X104957000Y-95841000I225000J0D01*
G01*
X105457000Y-95841000D01*
G75*
G02*
X105682000Y-96066000I0J-225000D01*
G01*
X105682000Y-96516000D01*
G75*
G02*
X105457000Y-96741000I-225000J0D01*
G01*
G37*
%TD.AperFunction*%
%TO.P,C2,1*%
%TO.N,GND*%
%TA.AperFunction,SMDPad,CuDef*%
G36*
G01*
X105457000Y-98291000D02*
X104957000Y-98291000D01*
G75*
G02*
X104732000Y-98066000I0J225000D01*
G01*
X104732000Y-97616000D01*
G75*
G02*
X104957000Y-97391000I225000J0D01*
G01*
X105457000Y-97391000D01*
G75*
G02*
X105682000Y-97616000I0J-225000D01*
G01*
X105682000Y-98066000D01*
G75*
G02*
X105457000Y-98291000I-225000J0D01*
G01*
G37*
%TD.AperFunction*%
%TD*%
%TO.P,C1,2*%
%TO.N,VCC*%
%TA.AperFunction,SMDPad,CuDef*%
G36*
G01*
X106981000Y-96741000D02*
X106481000Y-96741000D01*
G75*
G02*
X106256000Y-96516000I0J225000D01*
G01*
X106256000Y-96066000D01*
G75*
G02*
X106481000Y-95841000I225000J0D01*
G01*
X106981000Y-95841000D01*
G75*
G02*
X107206000Y-96066000I0J-225000D01*
G01*
X107206000Y-96516000D01*
G75*
G02*
X106981000Y-96741000I-225000J0D01*
G01*
G37*
%TD.AperFunction*%
%TO.P,C1,1*%
%TO.N,GND*%
%TA.AperFunction,SMDPad,CuDef*%
G36*
G01*
X106981000Y-98291000D02*
X106481000Y-98291000D01*
G75*
G02*
X106256000Y-98066000I0J225000D01*
G01*
X106256000Y-97616000D01*
G75*
G02*
X106481000Y-97391000I225000J0D01*
G01*
X106981000Y-97391000D01*
G75*
G02*
X107206000Y-97616000I0J-225000D01*
G01*
X107206000Y-98066000D01*
G75*
G02*
X106981000Y-98291000I-225000J0D01*
G01*
G37*
%TD.AperFunction*%
%TD*%
D13*
%TO.N,VCC*%
X105207000Y-96291000D03*
D14*
X106731000Y-90856000D03*
D13*
%TO.N,GND*%
X105207000Y-97841000D03*
%TO.N,VCCQ*%
X94793000Y-96291000D03*
D14*
X93269000Y-90856000D03*
D13*
%TO.N,GND2*%
X94793000Y-97841000D03*
%TO.N,/SCL*%
X101903419Y-92379953D03*
%TO.N,/SDA*%
X102902990Y-92409645D03*
%TO.N,/SCLq*%
X98110140Y-89590919D03*
%TO.N,/SDAq*%
X97110247Y-89575469D03*
%TO.N,Net-(Q1-Pad2)*%
X104064000Y-95555000D03*
X105302898Y-93523004D03*
%TO.N,Net-(Q2-Pad2)*%
X104064000Y-97587000D03*
X103241533Y-90919496D03*
%TO.N,Net-(Q3-Pad2)*%
X104064000Y-96571000D03*
X108000994Y-93269000D03*
%TO.N,Net-(Q4-Pad2)*%
X104064000Y-98603000D03*
X110214811Y-90921996D03*
%TO.N,Net-(Q5-Pad2)*%
X94654010Y-94260265D03*
X95957705Y-95561379D03*
%TO.N,Net-(Q6-Pad2)*%
X95936000Y-97587000D03*
X96952000Y-91110000D03*
%TO.N,Net-(Q7-Pad2)*%
X89784577Y-90982726D03*
X95936000Y-96571000D03*
%TO.N,Net-(Q8-Pad2)*%
X95935957Y-98632135D03*
X90348000Y-94666000D03*
%TD*%
D15*
%TO.N,VCC*%
X106731000Y-96291000D02*
X105207000Y-96291000D01*
D16*
X103112998Y-95174000D02*
X102475000Y-95174000D01*
X103631999Y-94654999D02*
X103112998Y-95174000D01*
X103631999Y-94654999D02*
X103397999Y-94888999D01*
X104496001Y-94654999D02*
X103631999Y-94654999D01*
X105207000Y-95365998D02*
X104496001Y-94654999D01*
X105207000Y-96291000D02*
X105207000Y-95365998D01*
D15*
X108483000Y-96291000D02*
X108636000Y-96444000D01*
X106731000Y-96291000D02*
X108483000Y-96291000D01*
D16*
X105339000Y-89972000D02*
X105461000Y-90094000D01*
X103937000Y-89972000D02*
X105339000Y-89972000D01*
X103937000Y-89972000D02*
X103937000Y-88316000D01*
X109525000Y-91872000D02*
X109525000Y-93523000D01*
X109525000Y-91872000D02*
X109398000Y-91745000D01*
X109398000Y-91745000D02*
X108001000Y-91745000D01*
D15*
X106731000Y-96291000D02*
X106731000Y-90856000D01*
D16*
X105969000Y-90094000D02*
X106731000Y-90856000D01*
X105461000Y-90094000D02*
X105969000Y-90094000D01*
X107620000Y-91745000D02*
X106731000Y-90856000D01*
X108001000Y-91745000D02*
X107620000Y-91745000D01*
D15*
%TO.N,GND*%
X106731000Y-97841000D02*
X105207000Y-97841000D01*
X108509000Y-97841000D02*
X108636000Y-97714000D01*
X106731000Y-97841000D02*
X108509000Y-97841000D01*
D17*
X105207000Y-98718002D02*
X105207000Y-97841000D01*
X104472001Y-99453001D02*
X105207000Y-98718002D01*
X104472001Y-99453001D02*
X103655999Y-99453001D01*
X103186998Y-98984000D02*
X102475000Y-98984000D01*
X103655999Y-99453001D02*
X103186998Y-98984000D01*
D15*
%TO.N,VCCQ*%
X94780000Y-96304000D02*
X94793000Y-96291000D01*
X93269000Y-96304000D02*
X94780000Y-96304000D01*
X91504000Y-96304000D02*
X91364000Y-96444000D01*
X93269000Y-96304000D02*
X91504000Y-96304000D01*
D16*
X90475000Y-90033000D02*
X90475000Y-88443000D01*
X91938000Y-90033000D02*
X91999000Y-90094000D01*
X90475000Y-90033000D02*
X91938000Y-90033000D01*
X94600000Y-91933000D02*
X94539000Y-91872000D01*
X96063000Y-91933000D02*
X94600000Y-91933000D01*
X96063000Y-91933000D02*
X96063000Y-93523000D01*
D15*
X93269000Y-96304000D02*
X93269000Y-90856000D01*
D16*
X92507000Y-90094000D02*
X93269000Y-90856000D01*
X91999000Y-90094000D02*
X92507000Y-90094000D01*
X94285000Y-91872000D02*
X93269000Y-90856000D01*
X94539000Y-91872000D02*
X94285000Y-91872000D01*
X95554011Y-94654999D02*
X97005999Y-94654999D01*
X97005999Y-94654999D02*
X97525000Y-95174000D01*
X94793000Y-95416010D02*
X95554011Y-94654999D01*
X94793000Y-96291000D02*
X94793000Y-95416010D01*
X94728000Y-91933000D02*
X94539000Y-91744000D01*
X96063000Y-91933000D02*
X94728000Y-91933000D01*
D15*
%TO.N,GND2*%
X94780000Y-97854000D02*
X94793000Y-97841000D01*
X93269000Y-97854000D02*
X94780000Y-97854000D01*
X91504000Y-97854000D02*
X91364000Y-97714000D01*
X93269000Y-97854000D02*
X91504000Y-97854000D01*
D17*
X95527956Y-99482136D02*
X96343958Y-99482136D01*
X94793000Y-98747180D02*
X95527956Y-99482136D01*
X94793000Y-97841000D02*
X94793000Y-98747180D01*
X96842094Y-98984000D02*
X97525000Y-98984000D01*
X96343958Y-99482136D02*
X96842094Y-98984000D01*
D18*
%TO.N,/inb*%
X88475000Y-88793000D02*
X88825000Y-88443000D01*
X88475000Y-90983000D02*
X88475000Y-88793000D01*
X88475000Y-93173000D02*
X88825000Y-93523000D01*
X88475000Y-90983000D02*
X88475000Y-93173000D01*
X87973999Y-96863999D02*
X88824000Y-97714000D01*
X87973999Y-94374001D02*
X87973999Y-96863999D01*
X88825000Y-93523000D02*
X87973999Y-94374001D01*
%TO.N,/SDA*%
X101937000Y-88666000D02*
X102287000Y-88316000D01*
X101937000Y-90922000D02*
X101937000Y-88666000D01*
X102902990Y-91887990D02*
X101937000Y-90922000D01*
X102902990Y-92409645D02*
X102902990Y-91887990D01*
X102902990Y-92907010D02*
X102287000Y-93523000D01*
X102902990Y-92409645D02*
X102902990Y-92907010D01*
%TO.N,/outb*%
X111525000Y-93173000D02*
X111175000Y-93523000D01*
X111525000Y-90922000D02*
X111525000Y-93173000D01*
X112026001Y-94374001D02*
X111175000Y-93523000D01*
X111430000Y-97714000D02*
X112026001Y-97117999D01*
X111176000Y-97714000D02*
X111430000Y-97714000D01*
X112026001Y-97117999D02*
X112026001Y-94374001D01*
X111893516Y-90553484D02*
X111893516Y-89033516D01*
X111893516Y-89033516D02*
X111176000Y-88316000D01*
X111525000Y-90922000D02*
X111893516Y-90553484D01*
%TO.N,/SCLq*%
X98063000Y-93173000D02*
X97713000Y-93523000D01*
X98063000Y-90983000D02*
X98063000Y-93173000D01*
X98063000Y-89638059D02*
X98110140Y-89590919D01*
X98063000Y-90983000D02*
X98063000Y-89638059D01*
X97713000Y-88443000D02*
X98110140Y-88840140D01*
X98110140Y-88840140D02*
X98110140Y-89590919D01*
%TO.N,Net-(Q1-Pad2)*%
X102475000Y-96444000D02*
X103094990Y-95824010D01*
X103794990Y-95824010D02*
X104064000Y-95555000D01*
X103094990Y-95824010D02*
X103794990Y-95824010D01*
X103937000Y-91872000D02*
X103937000Y-93523000D01*
X105333000Y-91872000D02*
X105461000Y-91744000D01*
X103937000Y-91872000D02*
X105333000Y-91872000D01*
X103937000Y-93523000D02*
X105302894Y-93523000D01*
X105302894Y-93523000D02*
X105302898Y-93523004D01*
%TO.N,Net-(Q2-Pad2)*%
X103937000Y-97714000D02*
X104064000Y-97587000D01*
X102475000Y-97714000D02*
X103937000Y-97714000D01*
%TO.N,Net-(Q4-Pad2)*%
X109525000Y-88317000D02*
X109526000Y-88316000D01*
X109525000Y-89972000D02*
X109525000Y-88317000D01*
X109525000Y-89972000D02*
X108124000Y-89972000D01*
X108124000Y-89972000D02*
X108001000Y-90095000D01*
X109641050Y-90095000D02*
X110214811Y-90668761D01*
X110214811Y-90661811D02*
X110214811Y-90921996D01*
X110214811Y-90668761D02*
X110214811Y-90921996D01*
X109525000Y-89972000D02*
X110214811Y-90661811D01*
%TO.N,Net-(Q5-Pad2)*%
X96220336Y-95824010D02*
X95957705Y-95561379D01*
X96905010Y-95824010D02*
X96220336Y-95824010D01*
X97525000Y-96444000D02*
X96905010Y-95824010D01*
%TO.N,Net-(Q6-Pad2)*%
X96063000Y-97714000D02*
X95936000Y-97587000D01*
X97525000Y-97714000D02*
X96063000Y-97714000D01*
X94728000Y-90033000D02*
X94539000Y-90222000D01*
X96063000Y-90033000D02*
X94728000Y-90033000D01*
X96063000Y-90033000D02*
X96063000Y-88443000D01*
X96063000Y-90221000D02*
X96952000Y-91110000D01*
X96063000Y-90033000D02*
X96063000Y-90221000D01*
X94600000Y-90033000D02*
X94539000Y-90094000D01*
X96063000Y-90033000D02*
X94600000Y-90033000D01*
%TO.N,Net-(Q8-Pad2)*%
X90475000Y-91933000D02*
X90475000Y-93523000D01*
X91810000Y-91933000D02*
X91999000Y-91744000D01*
X90475000Y-91933000D02*
X91810000Y-91933000D01*
X90475000Y-94539000D02*
X90348000Y-94666000D01*
X90475000Y-93523000D02*
X90475000Y-94539000D01*
%TD*%
M02*
