%TF.GenerationSoftware,KiCad,Pcbnew,(5.1.10)-1*%
%TF.CreationDate,2022-01-17T16:38:05+07:00*%
%TF.ProjectId,ADuM_I2C_v3,4144754d-5f49-4324-935f-76332e6b6963,rev?*%
%TF.SameCoordinates,Original*%
%TF.FileFunction,Copper,L3,Inr*%
%TF.FilePolarity,Positive*%
%FSLAX46Y46*%
G04 Gerber Fmt 4.6, Leading zero omitted, Abs format (unit mm)*
G04 Created by KiCad (PCBNEW (5.1.10)-1) date 2022-01-17 16:38:05*
%MOMM*%
%LPD*%
G01*
G04 APERTURE LIST*
%TA.AperFunction,ComponentPad*%
%ADD10O,1.000000X1.000000*%
%TD*%
%TA.AperFunction,ComponentPad*%
%ADD11R,1.000000X1.000000*%
%TD*%
%TA.AperFunction,ViaPad*%
%ADD12C,0.800000*%
%TD*%
%TA.AperFunction,ViaPad*%
%ADD13C,1.100000*%
%TD*%
%TA.AperFunction,Conductor*%
%ADD14C,0.300000*%
%TD*%
G04 APERTURE END LIST*
D10*
%TO.N,GND*%
%TO.C,J1*%
X108636000Y-97714000D03*
%TO.N,VCC*%
X108636000Y-96444000D03*
%TO.N,/SCL*%
X109906000Y-97714000D03*
%TO.N,/SDA*%
X109906000Y-96444000D03*
%TO.N,/outb*%
X111176000Y-97714000D03*
D11*
%TO.N,/ina*%
X111176000Y-96444000D03*
%TD*%
D10*
%TO.N,/inb*%
%TO.C,J2*%
X88824000Y-97714000D03*
%TO.N,/outa*%
X88824000Y-96444000D03*
%TO.N,/SCLq*%
X90094000Y-97714000D03*
%TO.N,/SDAq*%
X90094000Y-96444000D03*
%TO.N,GND2*%
X91364000Y-97714000D03*
D11*
%TO.N,VCCQ*%
X91364000Y-96444000D03*
%TD*%
D12*
%TO.N,VCC*%
X105207000Y-96291000D03*
D13*
X106731000Y-90856000D03*
D12*
%TO.N,GND*%
X105207000Y-97841000D03*
%TO.N,VCCQ*%
X94793000Y-96291000D03*
D13*
X93269000Y-90856000D03*
D12*
%TO.N,GND2*%
X94793000Y-97841000D03*
%TO.N,/SCL*%
X101903419Y-92379953D03*
%TO.N,/SDA*%
X102902990Y-92409645D03*
%TO.N,/SCLq*%
X98110140Y-89590919D03*
%TO.N,/SDAq*%
X97110247Y-89575469D03*
%TO.N,Net-(Q1-Pad2)*%
X104064000Y-95555000D03*
X105302898Y-93523004D03*
%TO.N,Net-(Q2-Pad2)*%
X104064000Y-97587000D03*
X103241533Y-90919496D03*
%TO.N,Net-(Q3-Pad2)*%
X104064000Y-96571000D03*
X108000994Y-93269000D03*
%TO.N,Net-(Q4-Pad2)*%
X104064000Y-98603000D03*
X110214811Y-90921996D03*
%TO.N,Net-(Q5-Pad2)*%
X94654010Y-94260265D03*
X95957705Y-95561379D03*
%TO.N,Net-(Q6-Pad2)*%
X95936000Y-97587000D03*
X96952000Y-91110000D03*
%TO.N,Net-(Q7-Pad2)*%
X89784577Y-90982726D03*
X95936000Y-96571000D03*
%TO.N,Net-(Q8-Pad2)*%
X95935957Y-98632135D03*
X90348000Y-94666000D03*
%TD*%
D14*
%TO.N,Net-(Q1-Pad2)*%
X105302898Y-94316102D02*
X105302898Y-93523004D01*
X104064000Y-95555000D02*
X105302898Y-94316102D01*
%TO.N,Net-(Q2-Pad2)*%
X104064000Y-97587000D02*
X103498315Y-97587000D01*
X103498315Y-97587000D02*
X103313999Y-97402684D01*
X103313999Y-97402684D02*
X103313999Y-95194999D01*
X103313999Y-95194999D02*
X103653631Y-94855367D01*
X103653631Y-94855367D02*
X103653631Y-91331594D01*
X103653631Y-91331594D02*
X103241533Y-90919496D01*
%TO.N,Net-(Q3-Pad2)*%
X108000994Y-94607008D02*
X108000994Y-93269000D01*
X105567001Y-97041001D02*
X108000994Y-94607008D01*
X104846999Y-97041001D02*
X105567001Y-97041001D01*
X104376998Y-96571000D02*
X104846999Y-97041001D01*
X104064000Y-96571000D02*
X104376998Y-96571000D01*
%TO.N,Net-(Q4-Pad2)*%
X108763000Y-92373807D02*
X110214811Y-90921996D01*
X108763000Y-94552122D02*
X108763000Y-92373807D01*
X105957001Y-97358121D02*
X108763000Y-94552122D01*
X105957001Y-98201001D02*
X105957001Y-97358121D01*
X105555002Y-98603000D02*
X105957001Y-98201001D01*
X104064000Y-98603000D02*
X105555002Y-98603000D01*
%TO.N,Net-(Q5-Pad2)*%
X95955124Y-95561379D02*
X95957705Y-95561379D01*
X94654010Y-94260265D02*
X95955124Y-95561379D01*
%TO.N,Net-(Q6-Pad2)*%
X96501685Y-97587000D02*
X95936000Y-97587000D01*
X96952000Y-97136685D02*
X96501685Y-97587000D01*
X96952000Y-91110000D02*
X96952000Y-97136685D01*
%TO.N,Net-(Q7-Pad2)*%
X95841998Y-96571000D02*
X95936000Y-96571000D01*
X95371997Y-97041001D02*
X95841998Y-96571000D01*
X94432999Y-97041001D02*
X95371997Y-97041001D01*
X89784577Y-92392579D02*
X94432999Y-97041001D01*
X89784577Y-90982726D02*
X89784577Y-92392579D01*
%TO.N,Net-(Q8-Pad2)*%
X94042999Y-97492997D02*
X94042999Y-98201001D01*
X94474133Y-98632135D02*
X95935957Y-98632135D01*
X91216002Y-94666000D02*
X94042999Y-97492997D01*
X94042999Y-98201001D02*
X94474133Y-98632135D01*
X90348000Y-94666000D02*
X91216002Y-94666000D01*
%TD*%
M02*
