%TF.GenerationSoftware,KiCad,Pcbnew,(5.1.10)-1*%
%TF.CreationDate,2022-01-23T11:24:48+07:00*%
%TF.ProjectId,ADuM_I2C_v3,4144754d-5f49-4324-935f-76332e6b6963,rev?*%
%TF.SameCoordinates,Original*%
%TF.FileFunction,Copper,L1,Top*%
%TF.FilePolarity,Positive*%
%FSLAX46Y46*%
G04 Gerber Fmt 4.6, Leading zero omitted, Abs format (unit mm)*
G04 Created by KiCad (PCBNEW (5.1.10)-1) date 2022-01-23 11:24:48*
%MOMM*%
%LPD*%
G01*
G04 APERTURE LIST*
%TA.AperFunction,ComponentPad*%
%ADD10O,1.000000X1.000000*%
%TD*%
%TA.AperFunction,ComponentPad*%
%ADD11R,1.000000X1.000000*%
%TD*%
%TA.AperFunction,SMDPad,CuDef*%
%ADD12R,0.900000X0.800000*%
%TD*%
%TA.AperFunction,ViaPad*%
%ADD13C,0.800000*%
%TD*%
%TA.AperFunction,ViaPad*%
%ADD14C,1.100000*%
%TD*%
%TA.AperFunction,Conductor*%
%ADD15C,0.600000*%
%TD*%
%TA.AperFunction,Conductor*%
%ADD16C,0.500000*%
%TD*%
%TA.AperFunction,Conductor*%
%ADD17C,0.300000*%
%TD*%
G04 APERTURE END LIST*
%TO.P,U2,8*%
%TO.N,GND2*%
%TA.AperFunction,SMDPad,CuDef*%
G36*
G01*
X98500000Y-98834000D02*
X98500000Y-99134000D01*
G75*
G02*
X98350000Y-99284000I-150000J0D01*
G01*
X96700000Y-99284000D01*
G75*
G02*
X96550000Y-99134000I0J150000D01*
G01*
X96550000Y-98834000D01*
G75*
G02*
X96700000Y-98684000I150000J0D01*
G01*
X98350000Y-98684000D01*
G75*
G02*
X98500000Y-98834000I0J-150000D01*
G01*
G37*
%TD.AperFunction*%
%TO.P,U2,7*%
%TO.N,Net-(Q8-Pad2)*%
%TA.AperFunction,SMDPad,CuDef*%
G36*
G01*
X98500000Y-97564000D02*
X98500000Y-97864000D01*
G75*
G02*
X98350000Y-98014000I-150000J0D01*
G01*
X96700000Y-98014000D01*
G75*
G02*
X96550000Y-97864000I0J150000D01*
G01*
X96550000Y-97564000D01*
G75*
G02*
X96700000Y-97414000I150000J0D01*
G01*
X98350000Y-97414000D01*
G75*
G02*
X98500000Y-97564000I0J-150000D01*
G01*
G37*
%TD.AperFunction*%
%TO.P,U2,6*%
%TO.N,Net-(Q7-Pad2)*%
%TA.AperFunction,SMDPad,CuDef*%
G36*
G01*
X98500000Y-96294000D02*
X98500000Y-96594000D01*
G75*
G02*
X98350000Y-96744000I-150000J0D01*
G01*
X96700000Y-96744000D01*
G75*
G02*
X96550000Y-96594000I0J150000D01*
G01*
X96550000Y-96294000D01*
G75*
G02*
X96700000Y-96144000I150000J0D01*
G01*
X98350000Y-96144000D01*
G75*
G02*
X98500000Y-96294000I0J-150000D01*
G01*
G37*
%TD.AperFunction*%
%TO.P,U2,5*%
%TO.N,VCCQ*%
%TA.AperFunction,SMDPad,CuDef*%
G36*
G01*
X98500000Y-95024000D02*
X98500000Y-95324000D01*
G75*
G02*
X98350000Y-95474000I-150000J0D01*
G01*
X96700000Y-95474000D01*
G75*
G02*
X96550000Y-95324000I0J150000D01*
G01*
X96550000Y-95024000D01*
G75*
G02*
X96700000Y-94874000I150000J0D01*
G01*
X98350000Y-94874000D01*
G75*
G02*
X98500000Y-95024000I0J-150000D01*
G01*
G37*
%TD.AperFunction*%
%TO.P,U2,4*%
%TO.N,VCC*%
%TA.AperFunction,SMDPad,CuDef*%
G36*
G01*
X103450000Y-95024000D02*
X103450000Y-95324000D01*
G75*
G02*
X103300000Y-95474000I-150000J0D01*
G01*
X101650000Y-95474000D01*
G75*
G02*
X101500000Y-95324000I0J150000D01*
G01*
X101500000Y-95024000D01*
G75*
G02*
X101650000Y-94874000I150000J0D01*
G01*
X103300000Y-94874000D01*
G75*
G02*
X103450000Y-95024000I0J-150000D01*
G01*
G37*
%TD.AperFunction*%
%TO.P,U2,3*%
%TO.N,Net-(Q3-Pad2)*%
%TA.AperFunction,SMDPad,CuDef*%
G36*
G01*
X103450000Y-96294000D02*
X103450000Y-96594000D01*
G75*
G02*
X103300000Y-96744000I-150000J0D01*
G01*
X101650000Y-96744000D01*
G75*
G02*
X101500000Y-96594000I0J150000D01*
G01*
X101500000Y-96294000D01*
G75*
G02*
X101650000Y-96144000I150000J0D01*
G01*
X103300000Y-96144000D01*
G75*
G02*
X103450000Y-96294000I0J-150000D01*
G01*
G37*
%TD.AperFunction*%
%TO.P,U2,2*%
%TO.N,Net-(Q4-Pad2)*%
%TA.AperFunction,SMDPad,CuDef*%
G36*
G01*
X103450000Y-97564000D02*
X103450000Y-97864000D01*
G75*
G02*
X103300000Y-98014000I-150000J0D01*
G01*
X101650000Y-98014000D01*
G75*
G02*
X101500000Y-97864000I0J150000D01*
G01*
X101500000Y-97564000D01*
G75*
G02*
X101650000Y-97414000I150000J0D01*
G01*
X103300000Y-97414000D01*
G75*
G02*
X103450000Y-97564000I0J-150000D01*
G01*
G37*
%TD.AperFunction*%
%TO.P,U2,1*%
%TO.N,GND*%
%TA.AperFunction,SMDPad,CuDef*%
G36*
G01*
X103450000Y-98834000D02*
X103450000Y-99134000D01*
G75*
G02*
X103300000Y-99284000I-150000J0D01*
G01*
X101650000Y-99284000D01*
G75*
G02*
X101500000Y-99134000I0J150000D01*
G01*
X101500000Y-98834000D01*
G75*
G02*
X101650000Y-98684000I150000J0D01*
G01*
X103300000Y-98684000D01*
G75*
G02*
X103450000Y-98834000I0J-150000D01*
G01*
G37*
%TD.AperFunction*%
%TD*%
D10*
%TO.P,J1,6*%
%TO.N,GND*%
X108636000Y-97714000D03*
%TO.P,J1,5*%
%TO.N,VCC*%
X108636000Y-96444000D03*
%TO.P,J1,4*%
%TO.N,/SCL*%
X109906000Y-97714000D03*
%TO.P,J1,3*%
%TO.N,/SDA*%
X109906000Y-96444000D03*
%TO.P,J1,2*%
%TO.N,/outb*%
X111176000Y-97714000D03*
D11*
%TO.P,J1,1*%
%TO.N,/ina*%
X111176000Y-96444000D03*
%TD*%
D10*
%TO.P,J2,6*%
%TO.N,/inb*%
X88824000Y-97714000D03*
%TO.P,J2,5*%
%TO.N,/outa*%
X88824000Y-96444000D03*
%TO.P,J2,4*%
%TO.N,/SCLq*%
X90094000Y-97714000D03*
%TO.P,J2,3*%
%TO.N,/SDAq*%
X90094000Y-96444000D03*
%TO.P,J2,2*%
%TO.N,GND2*%
X91364000Y-97714000D03*
D11*
%TO.P,J2,1*%
%TO.N,VCCQ*%
X91364000Y-96444000D03*
%TD*%
%TO.P,R23,1*%
%TO.N,/outa*%
%TA.AperFunction,SMDPad,CuDef*%
G36*
G01*
X88425000Y-93798000D02*
X88425000Y-93248000D01*
G75*
G02*
X88625000Y-93048000I200000J0D01*
G01*
X89025000Y-93048000D01*
G75*
G02*
X89225000Y-93248000I0J-200000D01*
G01*
X89225000Y-93798000D01*
G75*
G02*
X89025000Y-93998000I-200000J0D01*
G01*
X88625000Y-93998000D01*
G75*
G02*
X88425000Y-93798000I0J200000D01*
G01*
G37*
%TD.AperFunction*%
%TO.P,R23,2*%
%TO.N,VCCQ*%
%TA.AperFunction,SMDPad,CuDef*%
G36*
G01*
X90075000Y-93798000D02*
X90075000Y-93248000D01*
G75*
G02*
X90275000Y-93048000I200000J0D01*
G01*
X90675000Y-93048000D01*
G75*
G02*
X90875000Y-93248000I0J-200000D01*
G01*
X90875000Y-93798000D01*
G75*
G02*
X90675000Y-93998000I-200000J0D01*
G01*
X90275000Y-93998000D01*
G75*
G02*
X90075000Y-93798000I0J200000D01*
G01*
G37*
%TD.AperFunction*%
%TD*%
%TO.P,R21,2*%
%TO.N,VCCQ*%
%TA.AperFunction,SMDPad,CuDef*%
G36*
G01*
X96463000Y-88168000D02*
X96463000Y-88718000D01*
G75*
G02*
X96263000Y-88918000I-200000J0D01*
G01*
X95863000Y-88918000D01*
G75*
G02*
X95663000Y-88718000I0J200000D01*
G01*
X95663000Y-88168000D01*
G75*
G02*
X95863000Y-87968000I200000J0D01*
G01*
X96263000Y-87968000D01*
G75*
G02*
X96463000Y-88168000I0J-200000D01*
G01*
G37*
%TD.AperFunction*%
%TO.P,R21,1*%
%TO.N,/SDAq*%
%TA.AperFunction,SMDPad,CuDef*%
G36*
G01*
X98113000Y-88168000D02*
X98113000Y-88718000D01*
G75*
G02*
X97913000Y-88918000I-200000J0D01*
G01*
X97513000Y-88918000D01*
G75*
G02*
X97313000Y-88718000I0J200000D01*
G01*
X97313000Y-88168000D01*
G75*
G02*
X97513000Y-87968000I200000J0D01*
G01*
X97913000Y-87968000D01*
G75*
G02*
X98113000Y-88168000I0J-200000D01*
G01*
G37*
%TD.AperFunction*%
%TD*%
%TO.P,R19,1*%
%TO.N,/outa*%
%TA.AperFunction,SMDPad,CuDef*%
G36*
G01*
X88424000Y-88718000D02*
X88424000Y-88168000D01*
G75*
G02*
X88624000Y-87968000I200000J0D01*
G01*
X89024000Y-87968000D01*
G75*
G02*
X89224000Y-88168000I0J-200000D01*
G01*
X89224000Y-88718000D01*
G75*
G02*
X89024000Y-88918000I-200000J0D01*
G01*
X88624000Y-88918000D01*
G75*
G02*
X88424000Y-88718000I0J200000D01*
G01*
G37*
%TD.AperFunction*%
%TO.P,R19,2*%
%TO.N,Net-(Q7-Pad2)*%
%TA.AperFunction,SMDPad,CuDef*%
G36*
G01*
X90074000Y-88718000D02*
X90074000Y-88168000D01*
G75*
G02*
X90274000Y-87968000I200000J0D01*
G01*
X90674000Y-87968000D01*
G75*
G02*
X90874000Y-88168000I0J-200000D01*
G01*
X90874000Y-88718000D01*
G75*
G02*
X90674000Y-88918000I-200000J0D01*
G01*
X90274000Y-88918000D01*
G75*
G02*
X90074000Y-88718000I0J200000D01*
G01*
G37*
%TD.AperFunction*%
%TD*%
%TO.P,R17,2*%
%TO.N,Net-(Q5-Pad2)*%
%TA.AperFunction,SMDPad,CuDef*%
G36*
G01*
X96463000Y-93248000D02*
X96463000Y-93798000D01*
G75*
G02*
X96263000Y-93998000I-200000J0D01*
G01*
X95863000Y-93998000D01*
G75*
G02*
X95663000Y-93798000I0J200000D01*
G01*
X95663000Y-93248000D01*
G75*
G02*
X95863000Y-93048000I200000J0D01*
G01*
X96263000Y-93048000D01*
G75*
G02*
X96463000Y-93248000I0J-200000D01*
G01*
G37*
%TD.AperFunction*%
%TO.P,R17,1*%
%TO.N,/SDAq*%
%TA.AperFunction,SMDPad,CuDef*%
G36*
G01*
X98113000Y-93248000D02*
X98113000Y-93798000D01*
G75*
G02*
X97913000Y-93998000I-200000J0D01*
G01*
X97513000Y-93998000D01*
G75*
G02*
X97313000Y-93798000I0J200000D01*
G01*
X97313000Y-93248000D01*
G75*
G02*
X97513000Y-93048000I200000J0D01*
G01*
X97913000Y-93048000D01*
G75*
G02*
X98113000Y-93248000I0J-200000D01*
G01*
G37*
%TD.AperFunction*%
%TD*%
%TO.P,R15,1*%
%TO.N,VCCQ*%
%TA.AperFunction,SMDPad,CuDef*%
G36*
G01*
X92274000Y-92145000D02*
X91724000Y-92145000D01*
G75*
G02*
X91524000Y-91945000I0J200000D01*
G01*
X91524000Y-91545000D01*
G75*
G02*
X91724000Y-91345000I200000J0D01*
G01*
X92274000Y-91345000D01*
G75*
G02*
X92474000Y-91545000I0J-200000D01*
G01*
X92474000Y-91945000D01*
G75*
G02*
X92274000Y-92145000I-200000J0D01*
G01*
G37*
%TD.AperFunction*%
%TO.P,R15,2*%
%TO.N,Net-(Q7-Pad2)*%
%TA.AperFunction,SMDPad,CuDef*%
G36*
G01*
X92274000Y-90495000D02*
X91724000Y-90495000D01*
G75*
G02*
X91524000Y-90295000I0J200000D01*
G01*
X91524000Y-89895000D01*
G75*
G02*
X91724000Y-89695000I200000J0D01*
G01*
X92274000Y-89695000D01*
G75*
G02*
X92474000Y-89895000I0J-200000D01*
G01*
X92474000Y-90295000D01*
G75*
G02*
X92274000Y-90495000I-200000J0D01*
G01*
G37*
%TD.AperFunction*%
%TD*%
%TO.P,R13,2*%
%TO.N,Net-(Q5-Pad2)*%
%TA.AperFunction,SMDPad,CuDef*%
G36*
G01*
X94264000Y-91344000D02*
X94814000Y-91344000D01*
G75*
G02*
X95014000Y-91544000I0J-200000D01*
G01*
X95014000Y-91944000D01*
G75*
G02*
X94814000Y-92144000I-200000J0D01*
G01*
X94264000Y-92144000D01*
G75*
G02*
X94064000Y-91944000I0J200000D01*
G01*
X94064000Y-91544000D01*
G75*
G02*
X94264000Y-91344000I200000J0D01*
G01*
G37*
%TD.AperFunction*%
%TO.P,R13,1*%
%TO.N,VCCQ*%
%TA.AperFunction,SMDPad,CuDef*%
G36*
G01*
X94264000Y-89694000D02*
X94814000Y-89694000D01*
G75*
G02*
X95014000Y-89894000I0J-200000D01*
G01*
X95014000Y-90294000D01*
G75*
G02*
X94814000Y-90494000I-200000J0D01*
G01*
X94264000Y-90494000D01*
G75*
G02*
X94064000Y-90294000I0J200000D01*
G01*
X94064000Y-89894000D01*
G75*
G02*
X94264000Y-89694000I200000J0D01*
G01*
G37*
%TD.AperFunction*%
%TD*%
%TO.P,R11,2*%
%TO.N,Net-(Q3-Pad2)*%
%TA.AperFunction,SMDPad,CuDef*%
G36*
G01*
X107726000Y-91345000D02*
X108276000Y-91345000D01*
G75*
G02*
X108476000Y-91545000I0J-200000D01*
G01*
X108476000Y-91945000D01*
G75*
G02*
X108276000Y-92145000I-200000J0D01*
G01*
X107726000Y-92145000D01*
G75*
G02*
X107526000Y-91945000I0J200000D01*
G01*
X107526000Y-91545000D01*
G75*
G02*
X107726000Y-91345000I200000J0D01*
G01*
G37*
%TD.AperFunction*%
%TO.P,R11,1*%
%TO.N,VCC*%
%TA.AperFunction,SMDPad,CuDef*%
G36*
G01*
X107726000Y-89695000D02*
X108276000Y-89695000D01*
G75*
G02*
X108476000Y-89895000I0J-200000D01*
G01*
X108476000Y-90295000D01*
G75*
G02*
X108276000Y-90495000I-200000J0D01*
G01*
X107726000Y-90495000D01*
G75*
G02*
X107526000Y-90295000I0J200000D01*
G01*
X107526000Y-89895000D01*
G75*
G02*
X107726000Y-89695000I200000J0D01*
G01*
G37*
%TD.AperFunction*%
%TD*%
%TO.P,R10,2*%
%TO.N,Net-(Q2-Pad2)*%
%TA.AperFunction,SMDPad,CuDef*%
G36*
G01*
X105736000Y-90495000D02*
X105186000Y-90495000D01*
G75*
G02*
X104986000Y-90295000I0J200000D01*
G01*
X104986000Y-89895000D01*
G75*
G02*
X105186000Y-89695000I200000J0D01*
G01*
X105736000Y-89695000D01*
G75*
G02*
X105936000Y-89895000I0J-200000D01*
G01*
X105936000Y-90295000D01*
G75*
G02*
X105736000Y-90495000I-200000J0D01*
G01*
G37*
%TD.AperFunction*%
%TO.P,R10,1*%
%TO.N,VCC*%
%TA.AperFunction,SMDPad,CuDef*%
G36*
G01*
X105736000Y-92145000D02*
X105186000Y-92145000D01*
G75*
G02*
X104986000Y-91945000I0J200000D01*
G01*
X104986000Y-91545000D01*
G75*
G02*
X105186000Y-91345000I200000J0D01*
G01*
X105736000Y-91345000D01*
G75*
G02*
X105936000Y-91545000I0J-200000D01*
G01*
X105936000Y-91945000D01*
G75*
G02*
X105736000Y-92145000I-200000J0D01*
G01*
G37*
%TD.AperFunction*%
%TD*%
%TO.P,R7,2*%
%TO.N,/ina*%
%TA.AperFunction,SMDPad,CuDef*%
G36*
G01*
X110776000Y-93798000D02*
X110776000Y-93248000D01*
G75*
G02*
X110976000Y-93048000I200000J0D01*
G01*
X111376000Y-93048000D01*
G75*
G02*
X111576000Y-93248000I0J-200000D01*
G01*
X111576000Y-93798000D01*
G75*
G02*
X111376000Y-93998000I-200000J0D01*
G01*
X110976000Y-93998000D01*
G75*
G02*
X110776000Y-93798000I0J200000D01*
G01*
G37*
%TD.AperFunction*%
%TO.P,R7,1*%
%TO.N,Net-(Q3-Pad2)*%
%TA.AperFunction,SMDPad,CuDef*%
G36*
G01*
X109126000Y-93798000D02*
X109126000Y-93248000D01*
G75*
G02*
X109326000Y-93048000I200000J0D01*
G01*
X109726000Y-93048000D01*
G75*
G02*
X109926000Y-93248000I0J-200000D01*
G01*
X109926000Y-93798000D01*
G75*
G02*
X109726000Y-93998000I-200000J0D01*
G01*
X109326000Y-93998000D01*
G75*
G02*
X109126000Y-93798000I0J200000D01*
G01*
G37*
%TD.AperFunction*%
%TD*%
%TO.P,R6,2*%
%TO.N,/SCL*%
%TA.AperFunction,SMDPad,CuDef*%
G36*
G01*
X102687000Y-88041000D02*
X102687000Y-88591000D01*
G75*
G02*
X102487000Y-88791000I-200000J0D01*
G01*
X102087000Y-88791000D01*
G75*
G02*
X101887000Y-88591000I0J200000D01*
G01*
X101887000Y-88041000D01*
G75*
G02*
X102087000Y-87841000I200000J0D01*
G01*
X102487000Y-87841000D01*
G75*
G02*
X102687000Y-88041000I0J-200000D01*
G01*
G37*
%TD.AperFunction*%
%TO.P,R6,1*%
%TO.N,Net-(Q2-Pad2)*%
%TA.AperFunction,SMDPad,CuDef*%
G36*
G01*
X104337000Y-88041000D02*
X104337000Y-88591000D01*
G75*
G02*
X104137000Y-88791000I-200000J0D01*
G01*
X103737000Y-88791000D01*
G75*
G02*
X103537000Y-88591000I0J200000D01*
G01*
X103537000Y-88041000D01*
G75*
G02*
X103737000Y-87841000I200000J0D01*
G01*
X104137000Y-87841000D01*
G75*
G02*
X104337000Y-88041000I0J-200000D01*
G01*
G37*
%TD.AperFunction*%
%TD*%
%TO.P,R3,2*%
%TO.N,VCC*%
%TA.AperFunction,SMDPad,CuDef*%
G36*
G01*
X109925000Y-88041000D02*
X109925000Y-88591000D01*
G75*
G02*
X109725000Y-88791000I-200000J0D01*
G01*
X109325000Y-88791000D01*
G75*
G02*
X109125000Y-88591000I0J200000D01*
G01*
X109125000Y-88041000D01*
G75*
G02*
X109325000Y-87841000I200000J0D01*
G01*
X109725000Y-87841000D01*
G75*
G02*
X109925000Y-88041000I0J-200000D01*
G01*
G37*
%TD.AperFunction*%
%TO.P,R3,1*%
%TO.N,/ina*%
%TA.AperFunction,SMDPad,CuDef*%
G36*
G01*
X111575000Y-88041000D02*
X111575000Y-88591000D01*
G75*
G02*
X111375000Y-88791000I-200000J0D01*
G01*
X110975000Y-88791000D01*
G75*
G02*
X110775000Y-88591000I0J200000D01*
G01*
X110775000Y-88041000D01*
G75*
G02*
X110975000Y-87841000I200000J0D01*
G01*
X111375000Y-87841000D01*
G75*
G02*
X111575000Y-88041000I0J-200000D01*
G01*
G37*
%TD.AperFunction*%
%TD*%
%TO.P,R2,2*%
%TO.N,VCC*%
%TA.AperFunction,SMDPad,CuDef*%
G36*
G01*
X103537000Y-93798000D02*
X103537000Y-93248000D01*
G75*
G02*
X103737000Y-93048000I200000J0D01*
G01*
X104137000Y-93048000D01*
G75*
G02*
X104337000Y-93248000I0J-200000D01*
G01*
X104337000Y-93798000D01*
G75*
G02*
X104137000Y-93998000I-200000J0D01*
G01*
X103737000Y-93998000D01*
G75*
G02*
X103537000Y-93798000I0J200000D01*
G01*
G37*
%TD.AperFunction*%
%TO.P,R2,1*%
%TO.N,/SCL*%
%TA.AperFunction,SMDPad,CuDef*%
G36*
G01*
X101887000Y-93798000D02*
X101887000Y-93248000D01*
G75*
G02*
X102087000Y-93048000I200000J0D01*
G01*
X102487000Y-93048000D01*
G75*
G02*
X102687000Y-93248000I0J-200000D01*
G01*
X102687000Y-93798000D01*
G75*
G02*
X102487000Y-93998000I-200000J0D01*
G01*
X102087000Y-93998000D01*
G75*
G02*
X101887000Y-93798000I0J200000D01*
G01*
G37*
%TD.AperFunction*%
%TD*%
D12*
%TO.P,Q7,1*%
%TO.N,VCCQ*%
X90475000Y-91933000D03*
%TO.P,Q7,2*%
%TO.N,Net-(Q7-Pad2)*%
X90475000Y-90033000D03*
%TO.P,Q7,3*%
%TO.N,/outa*%
X88475000Y-90983000D03*
%TD*%
%TO.P,Q5,3*%
%TO.N,/SDAq*%
X98063000Y-90983000D03*
%TO.P,Q5,2*%
%TO.N,Net-(Q5-Pad2)*%
X96063000Y-91933000D03*
%TO.P,Q5,1*%
%TO.N,VCCQ*%
X96063000Y-90033000D03*
%TD*%
%TO.P,Q3,3*%
%TO.N,/ina*%
X111525000Y-90922000D03*
%TO.P,Q3,2*%
%TO.N,Net-(Q3-Pad2)*%
X109525000Y-91872000D03*
%TO.P,Q3,1*%
%TO.N,VCC*%
X109525000Y-89972000D03*
%TD*%
%TO.P,Q2,3*%
%TO.N,/SCL*%
X101937000Y-90917000D03*
%TO.P,Q2,2*%
%TO.N,Net-(Q2-Pad2)*%
X103937000Y-89967000D03*
%TO.P,Q2,1*%
%TO.N,VCC*%
X103937000Y-91867000D03*
%TD*%
%TO.P,C5,2*%
%TO.N,VCCQ*%
%TA.AperFunction,SMDPad,CuDef*%
G36*
G01*
X95043000Y-96741000D02*
X94543000Y-96741000D01*
G75*
G02*
X94318000Y-96516000I0J225000D01*
G01*
X94318000Y-96066000D01*
G75*
G02*
X94543000Y-95841000I225000J0D01*
G01*
X95043000Y-95841000D01*
G75*
G02*
X95268000Y-96066000I0J-225000D01*
G01*
X95268000Y-96516000D01*
G75*
G02*
X95043000Y-96741000I-225000J0D01*
G01*
G37*
%TD.AperFunction*%
%TO.P,C5,1*%
%TO.N,GND2*%
%TA.AperFunction,SMDPad,CuDef*%
G36*
G01*
X95043000Y-98291000D02*
X94543000Y-98291000D01*
G75*
G02*
X94318000Y-98066000I0J225000D01*
G01*
X94318000Y-97616000D01*
G75*
G02*
X94543000Y-97391000I225000J0D01*
G01*
X95043000Y-97391000D01*
G75*
G02*
X95268000Y-97616000I0J-225000D01*
G01*
X95268000Y-98066000D01*
G75*
G02*
X95043000Y-98291000I-225000J0D01*
G01*
G37*
%TD.AperFunction*%
%TD*%
%TO.P,C3,2*%
%TO.N,VCC*%
%TA.AperFunction,SMDPad,CuDef*%
G36*
G01*
X105457000Y-96741000D02*
X104957000Y-96741000D01*
G75*
G02*
X104732000Y-96516000I0J225000D01*
G01*
X104732000Y-96066000D01*
G75*
G02*
X104957000Y-95841000I225000J0D01*
G01*
X105457000Y-95841000D01*
G75*
G02*
X105682000Y-96066000I0J-225000D01*
G01*
X105682000Y-96516000D01*
G75*
G02*
X105457000Y-96741000I-225000J0D01*
G01*
G37*
%TD.AperFunction*%
%TO.P,C3,1*%
%TO.N,GND*%
%TA.AperFunction,SMDPad,CuDef*%
G36*
G01*
X105457000Y-98291000D02*
X104957000Y-98291000D01*
G75*
G02*
X104732000Y-98066000I0J225000D01*
G01*
X104732000Y-97616000D01*
G75*
G02*
X104957000Y-97391000I225000J0D01*
G01*
X105457000Y-97391000D01*
G75*
G02*
X105682000Y-97616000I0J-225000D01*
G01*
X105682000Y-98066000D01*
G75*
G02*
X105457000Y-98291000I-225000J0D01*
G01*
G37*
%TD.AperFunction*%
%TD*%
D13*
%TO.N,VCC*%
X105207000Y-96291000D03*
D14*
X106731000Y-90856000D03*
D13*
%TO.N,GND*%
X105207000Y-97841000D03*
%TO.N,VCCQ*%
X94793000Y-96291000D03*
D14*
X93269000Y-90856000D03*
D13*
%TO.N,GND2*%
X94793000Y-97841000D03*
%TO.N,/SCL*%
X101903419Y-92379953D03*
%TO.N,/SDA*%
X102902990Y-92409645D03*
%TO.N,/SCLq*%
X98110140Y-89590919D03*
%TO.N,/SDAq*%
X97110247Y-89575469D03*
%TO.N,Net-(Q1-Pad2)*%
X104064000Y-95555000D03*
X105302898Y-93523004D03*
%TO.N,Net-(Q2-Pad2)*%
X104064000Y-97587000D03*
X103241533Y-90919496D03*
%TO.N,Net-(Q3-Pad2)*%
X104064000Y-96571000D03*
X108000994Y-93269000D03*
%TO.N,Net-(Q4-Pad2)*%
X104064000Y-98603000D03*
X110214811Y-90921996D03*
%TO.N,Net-(Q5-Pad2)*%
X94654010Y-94260265D03*
X95957705Y-95561379D03*
%TO.N,Net-(Q6-Pad2)*%
X95936000Y-97587000D03*
X96952000Y-91110000D03*
%TO.N,Net-(Q7-Pad2)*%
X89784577Y-90982726D03*
X95936000Y-96571000D03*
%TO.N,Net-(Q8-Pad2)*%
X95935957Y-98632135D03*
X90348000Y-94666000D03*
%TD*%
D15*
%TO.N,VCC*%
X105207000Y-95365998D02*
X104496001Y-94654999D01*
X105207000Y-96291000D02*
X105207000Y-95365998D01*
X104496001Y-94654999D02*
X103631999Y-94654999D01*
X103112998Y-95174000D02*
X102475000Y-95174000D01*
X103631999Y-94654999D02*
X103112998Y-95174000D01*
X103937000Y-91867000D02*
X103937000Y-93523000D01*
X105339000Y-91867000D02*
X105461000Y-91745000D01*
X103937000Y-91867000D02*
X105339000Y-91867000D01*
X109525000Y-89972000D02*
X109543134Y-89953866D01*
X109543134Y-89953866D02*
X109543134Y-88334134D01*
X109543134Y-88334134D02*
X109525000Y-88316000D01*
X109525000Y-89972000D02*
X109402000Y-90095000D01*
X109402000Y-90095000D02*
X108001000Y-90095000D01*
X107492000Y-90095000D02*
X106731000Y-90856000D01*
X108001000Y-90095000D02*
X107492000Y-90095000D01*
X105842000Y-91745000D02*
X106731000Y-90856000D01*
X105461000Y-91745000D02*
X105842000Y-91745000D01*
D16*
%TO.N,GND*%
X105207000Y-98718002D02*
X105207000Y-97841000D01*
X104472001Y-99453001D02*
X105207000Y-98718002D01*
X104472001Y-99453001D02*
X103655999Y-99453001D01*
X103186998Y-98984000D02*
X102475000Y-98984000D01*
X103655999Y-99453001D02*
X103186998Y-98984000D01*
D15*
%TO.N,VCCQ*%
X94728000Y-90033000D02*
X94539000Y-90222000D01*
X96063000Y-90033000D02*
X94728000Y-90033000D01*
X96063000Y-90033000D02*
X96063000Y-88443000D01*
X91811000Y-91933000D02*
X91999000Y-91745000D01*
X90475000Y-91933000D02*
X91811000Y-91933000D01*
X90475000Y-91933000D02*
X90475000Y-93523000D01*
X93903000Y-90222000D02*
X93269000Y-90856000D01*
X94539000Y-90222000D02*
X93903000Y-90222000D01*
X92380000Y-91745000D02*
X93269000Y-90856000D01*
X91999000Y-91745000D02*
X92380000Y-91745000D01*
X97005999Y-94654999D02*
X97525000Y-95174000D01*
X95554011Y-94654999D02*
X97005999Y-94654999D01*
X94793000Y-95416010D02*
X95554011Y-94654999D01*
X94793000Y-96291000D02*
X94793000Y-95416010D01*
X94600000Y-90033000D02*
X94539000Y-90094000D01*
X96063000Y-90033000D02*
X94600000Y-90033000D01*
D16*
%TO.N,GND2*%
X95527956Y-99482136D02*
X96343958Y-99482136D01*
X94793000Y-98747180D02*
X95527956Y-99482136D01*
X94793000Y-97841000D02*
X94793000Y-98747180D01*
X96842094Y-98984000D02*
X97525000Y-98984000D01*
X96343958Y-99482136D02*
X96842094Y-98984000D01*
D17*
%TO.N,/outa*%
X88475000Y-88792000D02*
X88824000Y-88443000D01*
X88475000Y-90983000D02*
X88475000Y-88792000D01*
X88475000Y-93173000D02*
X88825000Y-93523000D01*
X88475000Y-90983000D02*
X88475000Y-93173000D01*
X88825000Y-96443000D02*
X88824000Y-96444000D01*
X88825000Y-93523000D02*
X88825000Y-96443000D01*
%TO.N,/SCL*%
X101937000Y-88666000D02*
X102287000Y-88316000D01*
X101937000Y-90917000D02*
X101937000Y-88666000D01*
X101903419Y-93139419D02*
X101903419Y-92379953D01*
X102287000Y-93523000D02*
X101903419Y-93139419D01*
X101937000Y-92346372D02*
X101903419Y-92379953D01*
X101937000Y-90917000D02*
X101937000Y-92346372D01*
%TO.N,/ina*%
X111525000Y-93174000D02*
X111176000Y-93523000D01*
X111525000Y-90922000D02*
X111525000Y-93174000D01*
X111176000Y-93523000D02*
X111176000Y-96444000D01*
X111893515Y-90553485D02*
X111893515Y-89034515D01*
X111893515Y-89034515D02*
X111175000Y-88316000D01*
X111525000Y-90922000D02*
X111893515Y-90553485D01*
%TO.N,/SDAq*%
X98063000Y-93173000D02*
X97713000Y-93523000D01*
X98063000Y-90983000D02*
X98063000Y-93173000D01*
X97713000Y-88443000D02*
X97110247Y-89045753D01*
X97110247Y-89045753D02*
X97110247Y-89575469D01*
X98063000Y-90983000D02*
X97110247Y-90030247D01*
X97110247Y-90030247D02*
X97110247Y-89575469D01*
%TO.N,Net-(Q2-Pad2)*%
X105333000Y-89967000D02*
X105461000Y-90095000D01*
X103937000Y-89967000D02*
X105333000Y-89967000D01*
X103937000Y-89967000D02*
X103937000Y-88316000D01*
X103937000Y-89967000D02*
X103241533Y-90662467D01*
X103241533Y-90662467D02*
X103241533Y-90919496D01*
%TO.N,Net-(Q3-Pad2)*%
X103937000Y-96444000D02*
X104064000Y-96571000D01*
X102475000Y-96444000D02*
X103937000Y-96444000D01*
X108128000Y-91872000D02*
X108001000Y-91745000D01*
X109525000Y-91872000D02*
X108128000Y-91872000D01*
X109525000Y-93522000D02*
X109526000Y-93523000D01*
X109525000Y-91872000D02*
X109525000Y-93522000D01*
X108000994Y-91745006D02*
X108001000Y-91745000D01*
X108000994Y-93269000D02*
X108000994Y-91745006D01*
%TO.N,Net-(Q4-Pad2)*%
X102475000Y-97714000D02*
X103094990Y-98333990D01*
X103794990Y-98333990D02*
X104064000Y-98603000D01*
X103094990Y-98333990D02*
X103794990Y-98333990D01*
%TO.N,Net-(Q5-Pad2)*%
X96063000Y-91933000D02*
X96063000Y-93523000D01*
X94600000Y-91933000D02*
X94539000Y-91872000D01*
X96063000Y-91933000D02*
X94600000Y-91933000D01*
X96063000Y-93523000D02*
X95391275Y-93523000D01*
X95391275Y-93523000D02*
X94654010Y-94260265D01*
X94728000Y-91933000D02*
X94539000Y-91744000D01*
X96063000Y-91933000D02*
X94728000Y-91933000D01*
%TO.N,Net-(Q7-Pad2)*%
X90475000Y-88444000D02*
X90474000Y-88443000D01*
X90475000Y-90033000D02*
X90475000Y-88444000D01*
X91937000Y-90033000D02*
X91999000Y-90095000D01*
X90475000Y-90033000D02*
X91937000Y-90033000D01*
X90475000Y-90292303D02*
X89784577Y-90982726D01*
X90475000Y-90033000D02*
X90475000Y-90292303D01*
X97525000Y-96444000D02*
X96063000Y-96444000D01*
X96063000Y-96444000D02*
X95936000Y-96571000D01*
%TO.N,Net-(Q8-Pad2)*%
X96905010Y-98333990D02*
X96234102Y-98333990D01*
X96234102Y-98333990D02*
X95935957Y-98632135D01*
X97525000Y-97714000D02*
X96905010Y-98333990D01*
%TD*%
M02*
