M48
; DRILL file {KiCad (5.1.10)-1} date 01/18/22 16:25:11
; FORMAT={3:3/ absolute / metric / keep zeros}
; #@! TF.CreationDate,2022-01-18T16:25:11+07:00
; #@! TF.GenerationSoftware,Kicad,Pcbnew,(5.1.10)-1
; #@! TF.FileFunction,Plated,1,4,PTH
FMAT,2
METRIC
T1C0.400
T2C0.600
T3C0.650
%
G90
G05
T1
X089785Y-090983
X090348Y-094666
X094654Y-094260
X094793Y-096291
X094793Y-097841
X095936Y-098632
X095936Y-096571
X095936Y-097587
X095958Y-095561
X096952Y-091110
X097110Y-089575
X098110Y-089591
X101903Y-092380
X102903Y-092410
X103242Y-090919
X104064Y-095555
X104064Y-096571
X104064Y-097587
X104064Y-098603
X105207Y-096291
X105207Y-097841
X105303Y-093523
X108001Y-093269
X110215Y-090922
T2
X093269Y-090856
X106731Y-090856
T3
X088824Y-096444
X088824Y-097714
X090094Y-096444
X090094Y-097714
X091364Y-096444
X091364Y-097714
X108636Y-096444
X108636Y-097714
X109906Y-096444
X109906Y-097714
X111176Y-096444
X111176Y-097714
T0
M30
