%TF.GenerationSoftware,KiCad,Pcbnew,(5.1.10)-1*%
%TF.CreationDate,2022-01-23T11:24:48+07:00*%
%TF.ProjectId,ADuM_I2C_v3,4144754d-5f49-4324-935f-76332e6b6963,rev?*%
%TF.SameCoordinates,Original*%
%TF.FileFunction,Paste,Top*%
%TF.FilePolarity,Positive*%
%FSLAX46Y46*%
G04 Gerber Fmt 4.6, Leading zero omitted, Abs format (unit mm)*
G04 Created by KiCad (PCBNEW (5.1.10)-1) date 2022-01-23 11:24:48*
%MOMM*%
%LPD*%
G01*
G04 APERTURE LIST*
%ADD10R,0.900000X0.800000*%
G04 APERTURE END LIST*
%TO.C,U2*%
G36*
G01*
X98500000Y-98834000D02*
X98500000Y-99134000D01*
G75*
G02*
X98350000Y-99284000I-150000J0D01*
G01*
X96700000Y-99284000D01*
G75*
G02*
X96550000Y-99134000I0J150000D01*
G01*
X96550000Y-98834000D01*
G75*
G02*
X96700000Y-98684000I150000J0D01*
G01*
X98350000Y-98684000D01*
G75*
G02*
X98500000Y-98834000I0J-150000D01*
G01*
G37*
G36*
G01*
X98500000Y-97564000D02*
X98500000Y-97864000D01*
G75*
G02*
X98350000Y-98014000I-150000J0D01*
G01*
X96700000Y-98014000D01*
G75*
G02*
X96550000Y-97864000I0J150000D01*
G01*
X96550000Y-97564000D01*
G75*
G02*
X96700000Y-97414000I150000J0D01*
G01*
X98350000Y-97414000D01*
G75*
G02*
X98500000Y-97564000I0J-150000D01*
G01*
G37*
G36*
G01*
X98500000Y-96294000D02*
X98500000Y-96594000D01*
G75*
G02*
X98350000Y-96744000I-150000J0D01*
G01*
X96700000Y-96744000D01*
G75*
G02*
X96550000Y-96594000I0J150000D01*
G01*
X96550000Y-96294000D01*
G75*
G02*
X96700000Y-96144000I150000J0D01*
G01*
X98350000Y-96144000D01*
G75*
G02*
X98500000Y-96294000I0J-150000D01*
G01*
G37*
G36*
G01*
X98500000Y-95024000D02*
X98500000Y-95324000D01*
G75*
G02*
X98350000Y-95474000I-150000J0D01*
G01*
X96700000Y-95474000D01*
G75*
G02*
X96550000Y-95324000I0J150000D01*
G01*
X96550000Y-95024000D01*
G75*
G02*
X96700000Y-94874000I150000J0D01*
G01*
X98350000Y-94874000D01*
G75*
G02*
X98500000Y-95024000I0J-150000D01*
G01*
G37*
G36*
G01*
X103450000Y-95024000D02*
X103450000Y-95324000D01*
G75*
G02*
X103300000Y-95474000I-150000J0D01*
G01*
X101650000Y-95474000D01*
G75*
G02*
X101500000Y-95324000I0J150000D01*
G01*
X101500000Y-95024000D01*
G75*
G02*
X101650000Y-94874000I150000J0D01*
G01*
X103300000Y-94874000D01*
G75*
G02*
X103450000Y-95024000I0J-150000D01*
G01*
G37*
G36*
G01*
X103450000Y-96294000D02*
X103450000Y-96594000D01*
G75*
G02*
X103300000Y-96744000I-150000J0D01*
G01*
X101650000Y-96744000D01*
G75*
G02*
X101500000Y-96594000I0J150000D01*
G01*
X101500000Y-96294000D01*
G75*
G02*
X101650000Y-96144000I150000J0D01*
G01*
X103300000Y-96144000D01*
G75*
G02*
X103450000Y-96294000I0J-150000D01*
G01*
G37*
G36*
G01*
X103450000Y-97564000D02*
X103450000Y-97864000D01*
G75*
G02*
X103300000Y-98014000I-150000J0D01*
G01*
X101650000Y-98014000D01*
G75*
G02*
X101500000Y-97864000I0J150000D01*
G01*
X101500000Y-97564000D01*
G75*
G02*
X101650000Y-97414000I150000J0D01*
G01*
X103300000Y-97414000D01*
G75*
G02*
X103450000Y-97564000I0J-150000D01*
G01*
G37*
G36*
G01*
X103450000Y-98834000D02*
X103450000Y-99134000D01*
G75*
G02*
X103300000Y-99284000I-150000J0D01*
G01*
X101650000Y-99284000D01*
G75*
G02*
X101500000Y-99134000I0J150000D01*
G01*
X101500000Y-98834000D01*
G75*
G02*
X101650000Y-98684000I150000J0D01*
G01*
X103300000Y-98684000D01*
G75*
G02*
X103450000Y-98834000I0J-150000D01*
G01*
G37*
%TD*%
%TO.C,R23*%
G36*
G01*
X88425000Y-93798000D02*
X88425000Y-93248000D01*
G75*
G02*
X88625000Y-93048000I200000J0D01*
G01*
X89025000Y-93048000D01*
G75*
G02*
X89225000Y-93248000I0J-200000D01*
G01*
X89225000Y-93798000D01*
G75*
G02*
X89025000Y-93998000I-200000J0D01*
G01*
X88625000Y-93998000D01*
G75*
G02*
X88425000Y-93798000I0J200000D01*
G01*
G37*
G36*
G01*
X90075000Y-93798000D02*
X90075000Y-93248000D01*
G75*
G02*
X90275000Y-93048000I200000J0D01*
G01*
X90675000Y-93048000D01*
G75*
G02*
X90875000Y-93248000I0J-200000D01*
G01*
X90875000Y-93798000D01*
G75*
G02*
X90675000Y-93998000I-200000J0D01*
G01*
X90275000Y-93998000D01*
G75*
G02*
X90075000Y-93798000I0J200000D01*
G01*
G37*
%TD*%
%TO.C,R21*%
G36*
G01*
X96463000Y-88168000D02*
X96463000Y-88718000D01*
G75*
G02*
X96263000Y-88918000I-200000J0D01*
G01*
X95863000Y-88918000D01*
G75*
G02*
X95663000Y-88718000I0J200000D01*
G01*
X95663000Y-88168000D01*
G75*
G02*
X95863000Y-87968000I200000J0D01*
G01*
X96263000Y-87968000D01*
G75*
G02*
X96463000Y-88168000I0J-200000D01*
G01*
G37*
G36*
G01*
X98113000Y-88168000D02*
X98113000Y-88718000D01*
G75*
G02*
X97913000Y-88918000I-200000J0D01*
G01*
X97513000Y-88918000D01*
G75*
G02*
X97313000Y-88718000I0J200000D01*
G01*
X97313000Y-88168000D01*
G75*
G02*
X97513000Y-87968000I200000J0D01*
G01*
X97913000Y-87968000D01*
G75*
G02*
X98113000Y-88168000I0J-200000D01*
G01*
G37*
%TD*%
%TO.C,R19*%
G36*
G01*
X88424000Y-88718000D02*
X88424000Y-88168000D01*
G75*
G02*
X88624000Y-87968000I200000J0D01*
G01*
X89024000Y-87968000D01*
G75*
G02*
X89224000Y-88168000I0J-200000D01*
G01*
X89224000Y-88718000D01*
G75*
G02*
X89024000Y-88918000I-200000J0D01*
G01*
X88624000Y-88918000D01*
G75*
G02*
X88424000Y-88718000I0J200000D01*
G01*
G37*
G36*
G01*
X90074000Y-88718000D02*
X90074000Y-88168000D01*
G75*
G02*
X90274000Y-87968000I200000J0D01*
G01*
X90674000Y-87968000D01*
G75*
G02*
X90874000Y-88168000I0J-200000D01*
G01*
X90874000Y-88718000D01*
G75*
G02*
X90674000Y-88918000I-200000J0D01*
G01*
X90274000Y-88918000D01*
G75*
G02*
X90074000Y-88718000I0J200000D01*
G01*
G37*
%TD*%
%TO.C,R17*%
G36*
G01*
X96463000Y-93248000D02*
X96463000Y-93798000D01*
G75*
G02*
X96263000Y-93998000I-200000J0D01*
G01*
X95863000Y-93998000D01*
G75*
G02*
X95663000Y-93798000I0J200000D01*
G01*
X95663000Y-93248000D01*
G75*
G02*
X95863000Y-93048000I200000J0D01*
G01*
X96263000Y-93048000D01*
G75*
G02*
X96463000Y-93248000I0J-200000D01*
G01*
G37*
G36*
G01*
X98113000Y-93248000D02*
X98113000Y-93798000D01*
G75*
G02*
X97913000Y-93998000I-200000J0D01*
G01*
X97513000Y-93998000D01*
G75*
G02*
X97313000Y-93798000I0J200000D01*
G01*
X97313000Y-93248000D01*
G75*
G02*
X97513000Y-93048000I200000J0D01*
G01*
X97913000Y-93048000D01*
G75*
G02*
X98113000Y-93248000I0J-200000D01*
G01*
G37*
%TD*%
%TO.C,R15*%
G36*
G01*
X92274000Y-92145000D02*
X91724000Y-92145000D01*
G75*
G02*
X91524000Y-91945000I0J200000D01*
G01*
X91524000Y-91545000D01*
G75*
G02*
X91724000Y-91345000I200000J0D01*
G01*
X92274000Y-91345000D01*
G75*
G02*
X92474000Y-91545000I0J-200000D01*
G01*
X92474000Y-91945000D01*
G75*
G02*
X92274000Y-92145000I-200000J0D01*
G01*
G37*
G36*
G01*
X92274000Y-90495000D02*
X91724000Y-90495000D01*
G75*
G02*
X91524000Y-90295000I0J200000D01*
G01*
X91524000Y-89895000D01*
G75*
G02*
X91724000Y-89695000I200000J0D01*
G01*
X92274000Y-89695000D01*
G75*
G02*
X92474000Y-89895000I0J-200000D01*
G01*
X92474000Y-90295000D01*
G75*
G02*
X92274000Y-90495000I-200000J0D01*
G01*
G37*
%TD*%
%TO.C,R13*%
G36*
G01*
X94264000Y-91344000D02*
X94814000Y-91344000D01*
G75*
G02*
X95014000Y-91544000I0J-200000D01*
G01*
X95014000Y-91944000D01*
G75*
G02*
X94814000Y-92144000I-200000J0D01*
G01*
X94264000Y-92144000D01*
G75*
G02*
X94064000Y-91944000I0J200000D01*
G01*
X94064000Y-91544000D01*
G75*
G02*
X94264000Y-91344000I200000J0D01*
G01*
G37*
G36*
G01*
X94264000Y-89694000D02*
X94814000Y-89694000D01*
G75*
G02*
X95014000Y-89894000I0J-200000D01*
G01*
X95014000Y-90294000D01*
G75*
G02*
X94814000Y-90494000I-200000J0D01*
G01*
X94264000Y-90494000D01*
G75*
G02*
X94064000Y-90294000I0J200000D01*
G01*
X94064000Y-89894000D01*
G75*
G02*
X94264000Y-89694000I200000J0D01*
G01*
G37*
%TD*%
%TO.C,R11*%
G36*
G01*
X107726000Y-91345000D02*
X108276000Y-91345000D01*
G75*
G02*
X108476000Y-91545000I0J-200000D01*
G01*
X108476000Y-91945000D01*
G75*
G02*
X108276000Y-92145000I-200000J0D01*
G01*
X107726000Y-92145000D01*
G75*
G02*
X107526000Y-91945000I0J200000D01*
G01*
X107526000Y-91545000D01*
G75*
G02*
X107726000Y-91345000I200000J0D01*
G01*
G37*
G36*
G01*
X107726000Y-89695000D02*
X108276000Y-89695000D01*
G75*
G02*
X108476000Y-89895000I0J-200000D01*
G01*
X108476000Y-90295000D01*
G75*
G02*
X108276000Y-90495000I-200000J0D01*
G01*
X107726000Y-90495000D01*
G75*
G02*
X107526000Y-90295000I0J200000D01*
G01*
X107526000Y-89895000D01*
G75*
G02*
X107726000Y-89695000I200000J0D01*
G01*
G37*
%TD*%
%TO.C,R10*%
G36*
G01*
X105736000Y-90495000D02*
X105186000Y-90495000D01*
G75*
G02*
X104986000Y-90295000I0J200000D01*
G01*
X104986000Y-89895000D01*
G75*
G02*
X105186000Y-89695000I200000J0D01*
G01*
X105736000Y-89695000D01*
G75*
G02*
X105936000Y-89895000I0J-200000D01*
G01*
X105936000Y-90295000D01*
G75*
G02*
X105736000Y-90495000I-200000J0D01*
G01*
G37*
G36*
G01*
X105736000Y-92145000D02*
X105186000Y-92145000D01*
G75*
G02*
X104986000Y-91945000I0J200000D01*
G01*
X104986000Y-91545000D01*
G75*
G02*
X105186000Y-91345000I200000J0D01*
G01*
X105736000Y-91345000D01*
G75*
G02*
X105936000Y-91545000I0J-200000D01*
G01*
X105936000Y-91945000D01*
G75*
G02*
X105736000Y-92145000I-200000J0D01*
G01*
G37*
%TD*%
%TO.C,R7*%
G36*
G01*
X110776000Y-93798000D02*
X110776000Y-93248000D01*
G75*
G02*
X110976000Y-93048000I200000J0D01*
G01*
X111376000Y-93048000D01*
G75*
G02*
X111576000Y-93248000I0J-200000D01*
G01*
X111576000Y-93798000D01*
G75*
G02*
X111376000Y-93998000I-200000J0D01*
G01*
X110976000Y-93998000D01*
G75*
G02*
X110776000Y-93798000I0J200000D01*
G01*
G37*
G36*
G01*
X109126000Y-93798000D02*
X109126000Y-93248000D01*
G75*
G02*
X109326000Y-93048000I200000J0D01*
G01*
X109726000Y-93048000D01*
G75*
G02*
X109926000Y-93248000I0J-200000D01*
G01*
X109926000Y-93798000D01*
G75*
G02*
X109726000Y-93998000I-200000J0D01*
G01*
X109326000Y-93998000D01*
G75*
G02*
X109126000Y-93798000I0J200000D01*
G01*
G37*
%TD*%
%TO.C,R6*%
G36*
G01*
X102687000Y-88041000D02*
X102687000Y-88591000D01*
G75*
G02*
X102487000Y-88791000I-200000J0D01*
G01*
X102087000Y-88791000D01*
G75*
G02*
X101887000Y-88591000I0J200000D01*
G01*
X101887000Y-88041000D01*
G75*
G02*
X102087000Y-87841000I200000J0D01*
G01*
X102487000Y-87841000D01*
G75*
G02*
X102687000Y-88041000I0J-200000D01*
G01*
G37*
G36*
G01*
X104337000Y-88041000D02*
X104337000Y-88591000D01*
G75*
G02*
X104137000Y-88791000I-200000J0D01*
G01*
X103737000Y-88791000D01*
G75*
G02*
X103537000Y-88591000I0J200000D01*
G01*
X103537000Y-88041000D01*
G75*
G02*
X103737000Y-87841000I200000J0D01*
G01*
X104137000Y-87841000D01*
G75*
G02*
X104337000Y-88041000I0J-200000D01*
G01*
G37*
%TD*%
%TO.C,R3*%
G36*
G01*
X109925000Y-88041000D02*
X109925000Y-88591000D01*
G75*
G02*
X109725000Y-88791000I-200000J0D01*
G01*
X109325000Y-88791000D01*
G75*
G02*
X109125000Y-88591000I0J200000D01*
G01*
X109125000Y-88041000D01*
G75*
G02*
X109325000Y-87841000I200000J0D01*
G01*
X109725000Y-87841000D01*
G75*
G02*
X109925000Y-88041000I0J-200000D01*
G01*
G37*
G36*
G01*
X111575000Y-88041000D02*
X111575000Y-88591000D01*
G75*
G02*
X111375000Y-88791000I-200000J0D01*
G01*
X110975000Y-88791000D01*
G75*
G02*
X110775000Y-88591000I0J200000D01*
G01*
X110775000Y-88041000D01*
G75*
G02*
X110975000Y-87841000I200000J0D01*
G01*
X111375000Y-87841000D01*
G75*
G02*
X111575000Y-88041000I0J-200000D01*
G01*
G37*
%TD*%
%TO.C,R2*%
G36*
G01*
X103537000Y-93798000D02*
X103537000Y-93248000D01*
G75*
G02*
X103737000Y-93048000I200000J0D01*
G01*
X104137000Y-93048000D01*
G75*
G02*
X104337000Y-93248000I0J-200000D01*
G01*
X104337000Y-93798000D01*
G75*
G02*
X104137000Y-93998000I-200000J0D01*
G01*
X103737000Y-93998000D01*
G75*
G02*
X103537000Y-93798000I0J200000D01*
G01*
G37*
G36*
G01*
X101887000Y-93798000D02*
X101887000Y-93248000D01*
G75*
G02*
X102087000Y-93048000I200000J0D01*
G01*
X102487000Y-93048000D01*
G75*
G02*
X102687000Y-93248000I0J-200000D01*
G01*
X102687000Y-93798000D01*
G75*
G02*
X102487000Y-93998000I-200000J0D01*
G01*
X102087000Y-93998000D01*
G75*
G02*
X101887000Y-93798000I0J200000D01*
G01*
G37*
%TD*%
D10*
%TO.C,Q7*%
X90475000Y-91933000D03*
X90475000Y-90033000D03*
X88475000Y-90983000D03*
%TD*%
%TO.C,Q5*%
X98063000Y-90983000D03*
X96063000Y-91933000D03*
X96063000Y-90033000D03*
%TD*%
%TO.C,Q3*%
X111525000Y-90922000D03*
X109525000Y-91872000D03*
X109525000Y-89972000D03*
%TD*%
%TO.C,Q2*%
X101937000Y-90917000D03*
X103937000Y-89967000D03*
X103937000Y-91867000D03*
%TD*%
%TO.C,C5*%
G36*
G01*
X95043000Y-96741000D02*
X94543000Y-96741000D01*
G75*
G02*
X94318000Y-96516000I0J225000D01*
G01*
X94318000Y-96066000D01*
G75*
G02*
X94543000Y-95841000I225000J0D01*
G01*
X95043000Y-95841000D01*
G75*
G02*
X95268000Y-96066000I0J-225000D01*
G01*
X95268000Y-96516000D01*
G75*
G02*
X95043000Y-96741000I-225000J0D01*
G01*
G37*
G36*
G01*
X95043000Y-98291000D02*
X94543000Y-98291000D01*
G75*
G02*
X94318000Y-98066000I0J225000D01*
G01*
X94318000Y-97616000D01*
G75*
G02*
X94543000Y-97391000I225000J0D01*
G01*
X95043000Y-97391000D01*
G75*
G02*
X95268000Y-97616000I0J-225000D01*
G01*
X95268000Y-98066000D01*
G75*
G02*
X95043000Y-98291000I-225000J0D01*
G01*
G37*
%TD*%
%TO.C,C3*%
G36*
G01*
X105457000Y-96741000D02*
X104957000Y-96741000D01*
G75*
G02*
X104732000Y-96516000I0J225000D01*
G01*
X104732000Y-96066000D01*
G75*
G02*
X104957000Y-95841000I225000J0D01*
G01*
X105457000Y-95841000D01*
G75*
G02*
X105682000Y-96066000I0J-225000D01*
G01*
X105682000Y-96516000D01*
G75*
G02*
X105457000Y-96741000I-225000J0D01*
G01*
G37*
G36*
G01*
X105457000Y-98291000D02*
X104957000Y-98291000D01*
G75*
G02*
X104732000Y-98066000I0J225000D01*
G01*
X104732000Y-97616000D01*
G75*
G02*
X104957000Y-97391000I225000J0D01*
G01*
X105457000Y-97391000D01*
G75*
G02*
X105682000Y-97616000I0J-225000D01*
G01*
X105682000Y-98066000D01*
G75*
G02*
X105457000Y-98291000I-225000J0D01*
G01*
G37*
%TD*%
M02*
