%TF.GenerationSoftware,KiCad,Pcbnew,(5.1.10)-1*%
%TF.CreationDate,2022-01-23T11:24:48+07:00*%
%TF.ProjectId,ADuM_I2C_v3,4144754d-5f49-4324-935f-76332e6b6963,rev?*%
%TF.SameCoordinates,Original*%
%TF.FileFunction,Legend,Top*%
%TF.FilePolarity,Positive*%
%FSLAX46Y46*%
G04 Gerber Fmt 4.6, Leading zero omitted, Abs format (unit mm)*
G04 Created by KiCad (PCBNEW (5.1.10)-1) date 2022-01-23 11:24:48*
%MOMM*%
%LPD*%
G01*
G04 APERTURE LIST*
%ADD10C,0.120000*%
%ADD11C,0.150000*%
%ADD12C,1.524000*%
%ADD13O,1.000000X1.000000*%
%ADD14R,1.000000X1.000000*%
%ADD15R,0.900000X0.800000*%
G04 APERTURE END LIST*
D10*
%TO.C,U2*%
X100000000Y-99639000D02*
X103450000Y-99639000D01*
X100000000Y-99639000D02*
X98050000Y-99639000D01*
X100000000Y-94519000D02*
X101950000Y-94519000D01*
X100000000Y-94519000D02*
X98050000Y-94519000D01*
%TO.C,J1*%
X111795677Y-98154000D02*
X111871000Y-98154000D01*
X111871000Y-98154000D02*
X111871000Y-99274000D01*
X111871000Y-99274000D02*
X107941000Y-99274000D01*
X107941000Y-99274000D02*
X107941000Y-98154000D01*
X107941000Y-98154000D02*
X108016323Y-98154000D01*
X111436000Y-99274000D02*
X111436000Y-100000000D01*
X111436000Y-100000000D02*
X110916000Y-100000000D01*
X110916000Y-100000000D02*
X110916000Y-99274000D01*
X111376000Y-99274000D02*
X111376000Y-100000000D01*
X111256000Y-99274000D02*
X111256000Y-100000000D01*
X111136000Y-99274000D02*
X111136000Y-100000000D01*
X111016000Y-99274000D02*
X111016000Y-100000000D01*
X110541000Y-98154000D02*
X110541000Y-99274000D01*
X110556323Y-98154000D02*
X110525677Y-98154000D01*
X110166000Y-99274000D02*
X110166000Y-100000000D01*
X110166000Y-100000000D02*
X109646000Y-100000000D01*
X109646000Y-100000000D02*
X109646000Y-99274000D01*
X109271000Y-98154000D02*
X109271000Y-99274000D01*
X109286323Y-98154000D02*
X109255677Y-98154000D01*
X108896000Y-99274000D02*
X108896000Y-100000000D01*
X108890000Y-100000000D02*
X108370000Y-100000000D01*
X108370000Y-100000000D02*
X108376000Y-99274000D01*
X111176000Y-95684000D02*
X111936000Y-95684000D01*
X111936000Y-95684000D02*
X111936000Y-96444000D01*
%TO.C,J2*%
X91983677Y-98154000D02*
X92059000Y-98154000D01*
X92059000Y-98154000D02*
X92059000Y-99274000D01*
X92059000Y-99274000D02*
X88129000Y-99274000D01*
X88129000Y-99274000D02*
X88129000Y-98154000D01*
X88129000Y-98154000D02*
X88204323Y-98154000D01*
X91624000Y-99274000D02*
X91624000Y-100000000D01*
X91624000Y-100000000D02*
X91104000Y-100000000D01*
X91104000Y-100000000D02*
X91104000Y-99274000D01*
X91564000Y-99274000D02*
X91564000Y-100000000D01*
X91444000Y-99274000D02*
X91444000Y-100000000D01*
X91324000Y-99274000D02*
X91324000Y-100000000D01*
X91204000Y-99274000D02*
X91204000Y-100000000D01*
X90729000Y-98154000D02*
X90729000Y-99274000D01*
X90744323Y-98154000D02*
X90713677Y-98154000D01*
X90354000Y-99274000D02*
X90354000Y-100000000D01*
X90354000Y-100000000D02*
X89834000Y-100000000D01*
X89834000Y-100000000D02*
X89834000Y-99274000D01*
X89459000Y-98154000D02*
X89459000Y-99274000D01*
X89474323Y-98154000D02*
X89443677Y-98154000D01*
X89084000Y-99274000D02*
X89084000Y-100000000D01*
X89078000Y-100000000D02*
X88558000Y-100000000D01*
X88558000Y-100000000D02*
X88564000Y-99274000D01*
X91364000Y-95684000D02*
X92124000Y-95684000D01*
X92124000Y-95684000D02*
X92124000Y-96444000D01*
%TO.C,R23*%
X89412742Y-93000500D02*
X89887258Y-93000500D01*
X89412742Y-94045500D02*
X89887258Y-94045500D01*
%TO.C,R21*%
X97125258Y-87920500D02*
X96650742Y-87920500D01*
X97125258Y-88965500D02*
X96650742Y-88965500D01*
%TO.C,R19*%
X89411742Y-87920500D02*
X89886258Y-87920500D01*
X89411742Y-88965500D02*
X89886258Y-88965500D01*
%TO.C,R17*%
X97125258Y-93000500D02*
X96650742Y-93000500D01*
X97125258Y-94045500D02*
X96650742Y-94045500D01*
%TO.C,R15*%
X91476500Y-91157258D02*
X91476500Y-90682742D01*
X92521500Y-91157258D02*
X92521500Y-90682742D01*
%TO.C,R13*%
X94016500Y-90681742D02*
X94016500Y-91156258D01*
X95061500Y-90681742D02*
X95061500Y-91156258D01*
%TO.C,R11*%
X107478500Y-90682742D02*
X107478500Y-91157258D01*
X108523500Y-90682742D02*
X108523500Y-91157258D01*
%TO.C,R10*%
X105983500Y-91157258D02*
X105983500Y-90682742D01*
X104938500Y-91157258D02*
X104938500Y-90682742D01*
%TO.C,R7*%
X110113742Y-94045500D02*
X110588258Y-94045500D01*
X110113742Y-93000500D02*
X110588258Y-93000500D01*
%TO.C,R6*%
X103349258Y-87793500D02*
X102874742Y-87793500D01*
X103349258Y-88838500D02*
X102874742Y-88838500D01*
%TO.C,R3*%
X110587258Y-87793500D02*
X110112742Y-87793500D01*
X110587258Y-88838500D02*
X110112742Y-88838500D01*
%TO.C,R2*%
X102874742Y-94045500D02*
X103349258Y-94045500D01*
X102874742Y-93000500D02*
X103349258Y-93000500D01*
%TO.C,Q7*%
X88715000Y-89403000D02*
X88715000Y-90333000D01*
X88715000Y-92563000D02*
X88715000Y-91633000D01*
X88715000Y-92563000D02*
X90875000Y-92563000D01*
X88715000Y-89403000D02*
X90175000Y-89403000D01*
%TO.C,Q5*%
X97823000Y-92563000D02*
X96363000Y-92563000D01*
X97823000Y-89403000D02*
X95663000Y-89403000D01*
X97823000Y-89403000D02*
X97823000Y-90333000D01*
X97823000Y-92563000D02*
X97823000Y-91633000D01*
%TO.C,Q3*%
X111285000Y-92502000D02*
X109825000Y-92502000D01*
X111285000Y-89342000D02*
X109125000Y-89342000D01*
X111285000Y-89342000D02*
X111285000Y-90272000D01*
X111285000Y-92502000D02*
X111285000Y-91572000D01*
%TO.C,Q2*%
X102177000Y-89337000D02*
X103637000Y-89337000D01*
X102177000Y-92497000D02*
X104337000Y-92497000D01*
X102177000Y-92497000D02*
X102177000Y-91567000D01*
X102177000Y-89337000D02*
X102177000Y-90267000D01*
%TO.C,C5*%
X95303000Y-97206580D02*
X95303000Y-96925420D01*
X94283000Y-97206580D02*
X94283000Y-96925420D01*
%TO.C,C3*%
X105717000Y-97206580D02*
X105717000Y-96925420D01*
X104697000Y-97206580D02*
X104697000Y-96925420D01*
%TO.C,U2*%
D11*
X99238095Y-93229380D02*
X99238095Y-94038904D01*
X99285714Y-94134142D01*
X99333333Y-94181761D01*
X99428571Y-94229380D01*
X99619047Y-94229380D01*
X99714285Y-94181761D01*
X99761904Y-94134142D01*
X99809523Y-94038904D01*
X99809523Y-93229380D01*
X100238095Y-93324619D02*
X100285714Y-93277000D01*
X100380952Y-93229380D01*
X100619047Y-93229380D01*
X100714285Y-93277000D01*
X100761904Y-93324619D01*
X100809523Y-93419857D01*
X100809523Y-93515095D01*
X100761904Y-93657952D01*
X100190476Y-94229380D01*
X100809523Y-94229380D01*
%TO.C,J1*%
X106437380Y-99063333D02*
X107151666Y-99063333D01*
X107294523Y-99110952D01*
X107389761Y-99206190D01*
X107437380Y-99349047D01*
X107437380Y-99444285D01*
X107437380Y-98063333D02*
X107437380Y-98634761D01*
X107437380Y-98349047D02*
X106437380Y-98349047D01*
X106580238Y-98444285D01*
X106675476Y-98539523D01*
X106723095Y-98634761D01*
%TO.C,J2*%
X92467380Y-99063333D02*
X93181666Y-99063333D01*
X93324523Y-99110952D01*
X93419761Y-99206190D01*
X93467380Y-99349047D01*
X93467380Y-99444285D01*
X92562619Y-98634761D02*
X92515000Y-98587142D01*
X92467380Y-98491904D01*
X92467380Y-98253809D01*
X92515000Y-98158571D01*
X92562619Y-98110952D01*
X92657857Y-98063333D01*
X92753095Y-98063333D01*
X92895952Y-98110952D01*
X93467380Y-98682380D01*
X93467380Y-98063333D01*
%TO.C,R23*%
X89070142Y-95372380D02*
X88736809Y-94896190D01*
X88498714Y-95372380D02*
X88498714Y-94372380D01*
X88879666Y-94372380D01*
X88974904Y-94420000D01*
X89022523Y-94467619D01*
X89070142Y-94562857D01*
X89070142Y-94705714D01*
X89022523Y-94800952D01*
X88974904Y-94848571D01*
X88879666Y-94896190D01*
X88498714Y-94896190D01*
X89451095Y-94467619D02*
X89498714Y-94420000D01*
X89593952Y-94372380D01*
X89832047Y-94372380D01*
X89927285Y-94420000D01*
X89974904Y-94467619D01*
X90022523Y-94562857D01*
X90022523Y-94658095D01*
X89974904Y-94800952D01*
X89403476Y-95372380D01*
X90022523Y-95372380D01*
X90355857Y-94372380D02*
X90974904Y-94372380D01*
X90641571Y-94753333D01*
X90784428Y-94753333D01*
X90879666Y-94800952D01*
X90927285Y-94848571D01*
X90974904Y-94943809D01*
X90974904Y-95181904D01*
X90927285Y-95277142D01*
X90879666Y-95324761D01*
X90784428Y-95372380D01*
X90498714Y-95372380D01*
X90403476Y-95324761D01*
X90355857Y-95277142D01*
%TO.C,R21*%
X99309380Y-89720857D02*
X98833190Y-90054190D01*
X99309380Y-90292285D02*
X98309380Y-90292285D01*
X98309380Y-89911333D01*
X98357000Y-89816095D01*
X98404619Y-89768476D01*
X98499857Y-89720857D01*
X98642714Y-89720857D01*
X98737952Y-89768476D01*
X98785571Y-89816095D01*
X98833190Y-89911333D01*
X98833190Y-90292285D01*
X98404619Y-89339904D02*
X98357000Y-89292285D01*
X98309380Y-89197047D01*
X98309380Y-88958952D01*
X98357000Y-88863714D01*
X98404619Y-88816095D01*
X98499857Y-88768476D01*
X98595095Y-88768476D01*
X98737952Y-88816095D01*
X99309380Y-89387523D01*
X99309380Y-88768476D01*
X99309380Y-87816095D02*
X99309380Y-88387523D01*
X99309380Y-88101809D02*
X98309380Y-88101809D01*
X98452238Y-88197047D01*
X98547476Y-88292285D01*
X98595095Y-88387523D01*
%TO.C,R19*%
X91737142Y-88895380D02*
X91403809Y-88419190D01*
X91165714Y-88895380D02*
X91165714Y-87895380D01*
X91546666Y-87895380D01*
X91641904Y-87943000D01*
X91689523Y-87990619D01*
X91737142Y-88085857D01*
X91737142Y-88228714D01*
X91689523Y-88323952D01*
X91641904Y-88371571D01*
X91546666Y-88419190D01*
X91165714Y-88419190D01*
X92689523Y-88895380D02*
X92118095Y-88895380D01*
X92403809Y-88895380D02*
X92403809Y-87895380D01*
X92308571Y-88038238D01*
X92213333Y-88133476D01*
X92118095Y-88181095D01*
X93165714Y-88895380D02*
X93356190Y-88895380D01*
X93451428Y-88847761D01*
X93499047Y-88800142D01*
X93594285Y-88657285D01*
X93641904Y-88466809D01*
X93641904Y-88085857D01*
X93594285Y-87990619D01*
X93546666Y-87943000D01*
X93451428Y-87895380D01*
X93260952Y-87895380D01*
X93165714Y-87943000D01*
X93118095Y-87990619D01*
X93070476Y-88085857D01*
X93070476Y-88323952D01*
X93118095Y-88419190D01*
X93165714Y-88466809D01*
X93260952Y-88514428D01*
X93451428Y-88514428D01*
X93546666Y-88466809D01*
X93594285Y-88419190D01*
X93641904Y-88323952D01*
%TO.C,R17*%
X94277142Y-95372380D02*
X93943809Y-94896190D01*
X93705714Y-95372380D02*
X93705714Y-94372380D01*
X94086666Y-94372380D01*
X94181904Y-94420000D01*
X94229523Y-94467619D01*
X94277142Y-94562857D01*
X94277142Y-94705714D01*
X94229523Y-94800952D01*
X94181904Y-94848571D01*
X94086666Y-94896190D01*
X93705714Y-94896190D01*
X95229523Y-95372380D02*
X94658095Y-95372380D01*
X94943809Y-95372380D02*
X94943809Y-94372380D01*
X94848571Y-94515238D01*
X94753333Y-94610476D01*
X94658095Y-94658095D01*
X95562857Y-94372380D02*
X96229523Y-94372380D01*
X95800952Y-95372380D01*
%TO.C,R15*%
X93594380Y-91117857D02*
X93118190Y-91451190D01*
X93594380Y-91689285D02*
X92594380Y-91689285D01*
X92594380Y-91308333D01*
X92642000Y-91213095D01*
X92689619Y-91165476D01*
X92784857Y-91117857D01*
X92927714Y-91117857D01*
X93022952Y-91165476D01*
X93070571Y-91213095D01*
X93118190Y-91308333D01*
X93118190Y-91689285D01*
X93594380Y-90165476D02*
X93594380Y-90736904D01*
X93594380Y-90451190D02*
X92594380Y-90451190D01*
X92737238Y-90546428D01*
X92832476Y-90641666D01*
X92880095Y-90736904D01*
X92594380Y-89260714D02*
X92594380Y-89736904D01*
X93070571Y-89784523D01*
X93022952Y-89736904D01*
X92975333Y-89641666D01*
X92975333Y-89403571D01*
X93022952Y-89308333D01*
X93070571Y-89260714D01*
X93165809Y-89213095D01*
X93403904Y-89213095D01*
X93499142Y-89260714D01*
X93546761Y-89308333D01*
X93594380Y-89403571D01*
X93594380Y-89641666D01*
X93546761Y-89736904D01*
X93499142Y-89784523D01*
%TO.C,R13*%
X93261142Y-93466380D02*
X92927809Y-92990190D01*
X92689714Y-93466380D02*
X92689714Y-92466380D01*
X93070666Y-92466380D01*
X93165904Y-92514000D01*
X93213523Y-92561619D01*
X93261142Y-92656857D01*
X93261142Y-92799714D01*
X93213523Y-92894952D01*
X93165904Y-92942571D01*
X93070666Y-92990190D01*
X92689714Y-92990190D01*
X94213523Y-93466380D02*
X93642095Y-93466380D01*
X93927809Y-93466380D02*
X93927809Y-92466380D01*
X93832571Y-92609238D01*
X93737333Y-92704476D01*
X93642095Y-92752095D01*
X94546857Y-92466380D02*
X95165904Y-92466380D01*
X94832571Y-92847333D01*
X94975428Y-92847333D01*
X95070666Y-92894952D01*
X95118285Y-92942571D01*
X95165904Y-93037809D01*
X95165904Y-93275904D01*
X95118285Y-93371142D01*
X95070666Y-93418761D01*
X94975428Y-93466380D01*
X94689714Y-93466380D01*
X94594476Y-93418761D01*
X94546857Y-93371142D01*
%TO.C,R11*%
X107183380Y-91879857D02*
X106707190Y-92213190D01*
X107183380Y-92451285D02*
X106183380Y-92451285D01*
X106183380Y-92070333D01*
X106231000Y-91975095D01*
X106278619Y-91927476D01*
X106373857Y-91879857D01*
X106516714Y-91879857D01*
X106611952Y-91927476D01*
X106659571Y-91975095D01*
X106707190Y-92070333D01*
X106707190Y-92451285D01*
X107183380Y-90927476D02*
X107183380Y-91498904D01*
X107183380Y-91213190D02*
X106183380Y-91213190D01*
X106326238Y-91308428D01*
X106421476Y-91403666D01*
X106469095Y-91498904D01*
X107183380Y-89975095D02*
X107183380Y-90546523D01*
X107183380Y-90260809D02*
X106183380Y-90260809D01*
X106326238Y-90356047D01*
X106421476Y-90451285D01*
X106469095Y-90546523D01*
%TO.C,R10*%
X105199142Y-89403380D02*
X104865809Y-88927190D01*
X104627714Y-89403380D02*
X104627714Y-88403380D01*
X105008666Y-88403380D01*
X105103904Y-88451000D01*
X105151523Y-88498619D01*
X105199142Y-88593857D01*
X105199142Y-88736714D01*
X105151523Y-88831952D01*
X105103904Y-88879571D01*
X105008666Y-88927190D01*
X104627714Y-88927190D01*
X106151523Y-89403380D02*
X105580095Y-89403380D01*
X105865809Y-89403380D02*
X105865809Y-88403380D01*
X105770571Y-88546238D01*
X105675333Y-88641476D01*
X105580095Y-88689095D01*
X106770571Y-88403380D02*
X106865809Y-88403380D01*
X106961047Y-88451000D01*
X107008666Y-88498619D01*
X107056285Y-88593857D01*
X107103904Y-88784333D01*
X107103904Y-89022428D01*
X107056285Y-89212904D01*
X107008666Y-89308142D01*
X106961047Y-89355761D01*
X106865809Y-89403380D01*
X106770571Y-89403380D01*
X106675333Y-89355761D01*
X106627714Y-89308142D01*
X106580095Y-89212904D01*
X106532476Y-89022428D01*
X106532476Y-88784333D01*
X106580095Y-88593857D01*
X106627714Y-88498619D01*
X106675333Y-88451000D01*
X106770571Y-88403380D01*
%TO.C,R7*%
X110120333Y-95372380D02*
X109787000Y-94896190D01*
X109548904Y-95372380D02*
X109548904Y-94372380D01*
X109929857Y-94372380D01*
X110025095Y-94420000D01*
X110072714Y-94467619D01*
X110120333Y-94562857D01*
X110120333Y-94705714D01*
X110072714Y-94800952D01*
X110025095Y-94848571D01*
X109929857Y-94896190D01*
X109548904Y-94896190D01*
X110453666Y-94372380D02*
X111120333Y-94372380D01*
X110691761Y-95372380D01*
%TO.C,R6*%
X100595333Y-88895380D02*
X100262000Y-88419190D01*
X100023904Y-88895380D02*
X100023904Y-87895380D01*
X100404857Y-87895380D01*
X100500095Y-87943000D01*
X100547714Y-87990619D01*
X100595333Y-88085857D01*
X100595333Y-88228714D01*
X100547714Y-88323952D01*
X100500095Y-88371571D01*
X100404857Y-88419190D01*
X100023904Y-88419190D01*
X101452476Y-87895380D02*
X101262000Y-87895380D01*
X101166761Y-87943000D01*
X101119142Y-87990619D01*
X101023904Y-88133476D01*
X100976285Y-88323952D01*
X100976285Y-88704904D01*
X101023904Y-88800142D01*
X101071523Y-88847761D01*
X101166761Y-88895380D01*
X101357238Y-88895380D01*
X101452476Y-88847761D01*
X101500095Y-88800142D01*
X101547714Y-88704904D01*
X101547714Y-88466809D01*
X101500095Y-88371571D01*
X101452476Y-88323952D01*
X101357238Y-88276333D01*
X101166761Y-88276333D01*
X101071523Y-88323952D01*
X101023904Y-88371571D01*
X100976285Y-88466809D01*
%TO.C,R3*%
X108834380Y-88736666D02*
X108358190Y-89070000D01*
X108834380Y-89308095D02*
X107834380Y-89308095D01*
X107834380Y-88927142D01*
X107882000Y-88831904D01*
X107929619Y-88784285D01*
X108024857Y-88736666D01*
X108167714Y-88736666D01*
X108262952Y-88784285D01*
X108310571Y-88831904D01*
X108358190Y-88927142D01*
X108358190Y-89308095D01*
X107834380Y-88403333D02*
X107834380Y-87784285D01*
X108215333Y-88117619D01*
X108215333Y-87974761D01*
X108262952Y-87879523D01*
X108310571Y-87831904D01*
X108405809Y-87784285D01*
X108643904Y-87784285D01*
X108739142Y-87831904D01*
X108786761Y-87879523D01*
X108834380Y-87974761D01*
X108834380Y-88260476D01*
X108786761Y-88355714D01*
X108739142Y-88403333D01*
%TO.C,R2*%
X105167333Y-93848380D02*
X104834000Y-93372190D01*
X104595904Y-93848380D02*
X104595904Y-92848380D01*
X104976857Y-92848380D01*
X105072095Y-92896000D01*
X105119714Y-92943619D01*
X105167333Y-93038857D01*
X105167333Y-93181714D01*
X105119714Y-93276952D01*
X105072095Y-93324571D01*
X104976857Y-93372190D01*
X104595904Y-93372190D01*
X105548285Y-92943619D02*
X105595904Y-92896000D01*
X105691142Y-92848380D01*
X105929238Y-92848380D01*
X106024476Y-92896000D01*
X106072095Y-92943619D01*
X106119714Y-93038857D01*
X106119714Y-93134095D01*
X106072095Y-93276952D01*
X105500666Y-93848380D01*
X106119714Y-93848380D01*
%TO.C,Q7*%
X92292619Y-93237238D02*
X92245000Y-93332476D01*
X92149761Y-93427714D01*
X92006904Y-93570571D01*
X91959285Y-93665809D01*
X91959285Y-93761047D01*
X92197380Y-93713428D02*
X92149761Y-93808666D01*
X92054523Y-93903904D01*
X91864047Y-93951523D01*
X91530714Y-93951523D01*
X91340238Y-93903904D01*
X91245000Y-93808666D01*
X91197380Y-93713428D01*
X91197380Y-93522952D01*
X91245000Y-93427714D01*
X91340238Y-93332476D01*
X91530714Y-93284857D01*
X91864047Y-93284857D01*
X92054523Y-93332476D01*
X92149761Y-93427714D01*
X92197380Y-93522952D01*
X92197380Y-93713428D01*
X91197380Y-92951523D02*
X91197380Y-92284857D01*
X92197380Y-92713428D01*
%TO.C,Q5*%
X98856761Y-92673619D02*
X98761523Y-92626000D01*
X98666285Y-92530761D01*
X98523428Y-92387904D01*
X98428190Y-92340285D01*
X98332952Y-92340285D01*
X98380571Y-92578380D02*
X98285333Y-92530761D01*
X98190095Y-92435523D01*
X98142476Y-92245047D01*
X98142476Y-91911714D01*
X98190095Y-91721238D01*
X98285333Y-91626000D01*
X98380571Y-91578380D01*
X98571047Y-91578380D01*
X98666285Y-91626000D01*
X98761523Y-91721238D01*
X98809142Y-91911714D01*
X98809142Y-92245047D01*
X98761523Y-92435523D01*
X98666285Y-92530761D01*
X98571047Y-92578380D01*
X98380571Y-92578380D01*
X99713904Y-91578380D02*
X99237714Y-91578380D01*
X99190095Y-92054571D01*
X99237714Y-92006952D01*
X99332952Y-91959333D01*
X99571047Y-91959333D01*
X99666285Y-92006952D01*
X99713904Y-92054571D01*
X99761523Y-92149809D01*
X99761523Y-92387904D01*
X99713904Y-92483142D01*
X99666285Y-92530761D01*
X99571047Y-92578380D01*
X99332952Y-92578380D01*
X99237714Y-92530761D01*
X99190095Y-92483142D01*
%TO.C,Q3*%
X108802619Y-93491238D02*
X108755000Y-93586476D01*
X108659761Y-93681714D01*
X108516904Y-93824571D01*
X108469285Y-93919809D01*
X108469285Y-94015047D01*
X108707380Y-93967428D02*
X108659761Y-94062666D01*
X108564523Y-94157904D01*
X108374047Y-94205523D01*
X108040714Y-94205523D01*
X107850238Y-94157904D01*
X107755000Y-94062666D01*
X107707380Y-93967428D01*
X107707380Y-93776952D01*
X107755000Y-93681714D01*
X107850238Y-93586476D01*
X108040714Y-93538857D01*
X108374047Y-93538857D01*
X108564523Y-93586476D01*
X108659761Y-93681714D01*
X108707380Y-93776952D01*
X108707380Y-93967428D01*
X107707380Y-93205523D02*
X107707380Y-92586476D01*
X108088333Y-92919809D01*
X108088333Y-92776952D01*
X108135952Y-92681714D01*
X108183571Y-92634095D01*
X108278809Y-92586476D01*
X108516904Y-92586476D01*
X108612142Y-92634095D01*
X108659761Y-92681714D01*
X108707380Y-92776952D01*
X108707380Y-93062666D01*
X108659761Y-93157904D01*
X108612142Y-93205523D01*
%TO.C,Q2*%
X100920761Y-90387619D02*
X100825523Y-90340000D01*
X100730285Y-90244761D01*
X100587428Y-90101904D01*
X100492190Y-90054285D01*
X100396952Y-90054285D01*
X100444571Y-90292380D02*
X100349333Y-90244761D01*
X100254095Y-90149523D01*
X100206476Y-89959047D01*
X100206476Y-89625714D01*
X100254095Y-89435238D01*
X100349333Y-89340000D01*
X100444571Y-89292380D01*
X100635047Y-89292380D01*
X100730285Y-89340000D01*
X100825523Y-89435238D01*
X100873142Y-89625714D01*
X100873142Y-89959047D01*
X100825523Y-90149523D01*
X100730285Y-90244761D01*
X100635047Y-90292380D01*
X100444571Y-90292380D01*
X101254095Y-89387619D02*
X101301714Y-89340000D01*
X101396952Y-89292380D01*
X101635047Y-89292380D01*
X101730285Y-89340000D01*
X101777904Y-89387619D01*
X101825523Y-89482857D01*
X101825523Y-89578095D01*
X101777904Y-89720952D01*
X101206476Y-90292380D01*
X101825523Y-90292380D01*
%TO.C,C5*%
X93880142Y-96991666D02*
X93927761Y-97039285D01*
X93975380Y-97182142D01*
X93975380Y-97277380D01*
X93927761Y-97420238D01*
X93832523Y-97515476D01*
X93737285Y-97563095D01*
X93546809Y-97610714D01*
X93403952Y-97610714D01*
X93213476Y-97563095D01*
X93118238Y-97515476D01*
X93023000Y-97420238D01*
X92975380Y-97277380D01*
X92975380Y-97182142D01*
X93023000Y-97039285D01*
X93070619Y-96991666D01*
X92975380Y-96086904D02*
X92975380Y-96563095D01*
X93451571Y-96610714D01*
X93403952Y-96563095D01*
X93356333Y-96467857D01*
X93356333Y-96229761D01*
X93403952Y-96134523D01*
X93451571Y-96086904D01*
X93546809Y-96039285D01*
X93784904Y-96039285D01*
X93880142Y-96086904D01*
X93927761Y-96134523D01*
X93975380Y-96229761D01*
X93975380Y-96467857D01*
X93927761Y-96563095D01*
X93880142Y-96610714D01*
%TO.C,C3*%
X106961142Y-97118666D02*
X107008761Y-97166285D01*
X107056380Y-97309142D01*
X107056380Y-97404380D01*
X107008761Y-97547238D01*
X106913523Y-97642476D01*
X106818285Y-97690095D01*
X106627809Y-97737714D01*
X106484952Y-97737714D01*
X106294476Y-97690095D01*
X106199238Y-97642476D01*
X106104000Y-97547238D01*
X106056380Y-97404380D01*
X106056380Y-97309142D01*
X106104000Y-97166285D01*
X106151619Y-97118666D01*
X106056380Y-96785333D02*
X106056380Y-96166285D01*
X106437333Y-96499619D01*
X106437333Y-96356761D01*
X106484952Y-96261523D01*
X106532571Y-96213904D01*
X106627809Y-96166285D01*
X106865904Y-96166285D01*
X106961142Y-96213904D01*
X107008761Y-96261523D01*
X107056380Y-96356761D01*
X107056380Y-96642476D01*
X107008761Y-96737714D01*
X106961142Y-96785333D01*
%TD*%
%LPC*%
%TO.C,U2*%
G36*
G01*
X98500000Y-98834000D02*
X98500000Y-99134000D01*
G75*
G02*
X98350000Y-99284000I-150000J0D01*
G01*
X96700000Y-99284000D01*
G75*
G02*
X96550000Y-99134000I0J150000D01*
G01*
X96550000Y-98834000D01*
G75*
G02*
X96700000Y-98684000I150000J0D01*
G01*
X98350000Y-98684000D01*
G75*
G02*
X98500000Y-98834000I0J-150000D01*
G01*
G37*
G36*
G01*
X98500000Y-97564000D02*
X98500000Y-97864000D01*
G75*
G02*
X98350000Y-98014000I-150000J0D01*
G01*
X96700000Y-98014000D01*
G75*
G02*
X96550000Y-97864000I0J150000D01*
G01*
X96550000Y-97564000D01*
G75*
G02*
X96700000Y-97414000I150000J0D01*
G01*
X98350000Y-97414000D01*
G75*
G02*
X98500000Y-97564000I0J-150000D01*
G01*
G37*
G36*
G01*
X98500000Y-96294000D02*
X98500000Y-96594000D01*
G75*
G02*
X98350000Y-96744000I-150000J0D01*
G01*
X96700000Y-96744000D01*
G75*
G02*
X96550000Y-96594000I0J150000D01*
G01*
X96550000Y-96294000D01*
G75*
G02*
X96700000Y-96144000I150000J0D01*
G01*
X98350000Y-96144000D01*
G75*
G02*
X98500000Y-96294000I0J-150000D01*
G01*
G37*
G36*
G01*
X98500000Y-95024000D02*
X98500000Y-95324000D01*
G75*
G02*
X98350000Y-95474000I-150000J0D01*
G01*
X96700000Y-95474000D01*
G75*
G02*
X96550000Y-95324000I0J150000D01*
G01*
X96550000Y-95024000D01*
G75*
G02*
X96700000Y-94874000I150000J0D01*
G01*
X98350000Y-94874000D01*
G75*
G02*
X98500000Y-95024000I0J-150000D01*
G01*
G37*
G36*
G01*
X103450000Y-95024000D02*
X103450000Y-95324000D01*
G75*
G02*
X103300000Y-95474000I-150000J0D01*
G01*
X101650000Y-95474000D01*
G75*
G02*
X101500000Y-95324000I0J150000D01*
G01*
X101500000Y-95024000D01*
G75*
G02*
X101650000Y-94874000I150000J0D01*
G01*
X103300000Y-94874000D01*
G75*
G02*
X103450000Y-95024000I0J-150000D01*
G01*
G37*
G36*
G01*
X103450000Y-96294000D02*
X103450000Y-96594000D01*
G75*
G02*
X103300000Y-96744000I-150000J0D01*
G01*
X101650000Y-96744000D01*
G75*
G02*
X101500000Y-96594000I0J150000D01*
G01*
X101500000Y-96294000D01*
G75*
G02*
X101650000Y-96144000I150000J0D01*
G01*
X103300000Y-96144000D01*
G75*
G02*
X103450000Y-96294000I0J-150000D01*
G01*
G37*
G36*
G01*
X103450000Y-97564000D02*
X103450000Y-97864000D01*
G75*
G02*
X103300000Y-98014000I-150000J0D01*
G01*
X101650000Y-98014000D01*
G75*
G02*
X101500000Y-97864000I0J150000D01*
G01*
X101500000Y-97564000D01*
G75*
G02*
X101650000Y-97414000I150000J0D01*
G01*
X103300000Y-97414000D01*
G75*
G02*
X103450000Y-97564000I0J-150000D01*
G01*
G37*
G36*
G01*
X103450000Y-98834000D02*
X103450000Y-99134000D01*
G75*
G02*
X103300000Y-99284000I-150000J0D01*
G01*
X101650000Y-99284000D01*
G75*
G02*
X101500000Y-99134000I0J150000D01*
G01*
X101500000Y-98834000D01*
G75*
G02*
X101650000Y-98684000I150000J0D01*
G01*
X103300000Y-98684000D01*
G75*
G02*
X103450000Y-98834000I0J-150000D01*
G01*
G37*
%TD*%
D12*
%TO.C,H2*%
X100000000Y-98222000D03*
%TD*%
%TO.C,H1*%
X100000000Y-95936000D03*
%TD*%
D13*
%TO.C,J1*%
X108636000Y-97714000D03*
X108636000Y-96444000D03*
X109906000Y-97714000D03*
X109906000Y-96444000D03*
X111176000Y-97714000D03*
D14*
X111176000Y-96444000D03*
%TD*%
D13*
%TO.C,J2*%
X88824000Y-97714000D03*
X88824000Y-96444000D03*
X90094000Y-97714000D03*
X90094000Y-96444000D03*
X91364000Y-97714000D03*
D14*
X91364000Y-96444000D03*
%TD*%
%TO.C,R23*%
G36*
G01*
X88425000Y-93798000D02*
X88425000Y-93248000D01*
G75*
G02*
X88625000Y-93048000I200000J0D01*
G01*
X89025000Y-93048000D01*
G75*
G02*
X89225000Y-93248000I0J-200000D01*
G01*
X89225000Y-93798000D01*
G75*
G02*
X89025000Y-93998000I-200000J0D01*
G01*
X88625000Y-93998000D01*
G75*
G02*
X88425000Y-93798000I0J200000D01*
G01*
G37*
G36*
G01*
X90075000Y-93798000D02*
X90075000Y-93248000D01*
G75*
G02*
X90275000Y-93048000I200000J0D01*
G01*
X90675000Y-93048000D01*
G75*
G02*
X90875000Y-93248000I0J-200000D01*
G01*
X90875000Y-93798000D01*
G75*
G02*
X90675000Y-93998000I-200000J0D01*
G01*
X90275000Y-93998000D01*
G75*
G02*
X90075000Y-93798000I0J200000D01*
G01*
G37*
%TD*%
%TO.C,R21*%
G36*
G01*
X96463000Y-88168000D02*
X96463000Y-88718000D01*
G75*
G02*
X96263000Y-88918000I-200000J0D01*
G01*
X95863000Y-88918000D01*
G75*
G02*
X95663000Y-88718000I0J200000D01*
G01*
X95663000Y-88168000D01*
G75*
G02*
X95863000Y-87968000I200000J0D01*
G01*
X96263000Y-87968000D01*
G75*
G02*
X96463000Y-88168000I0J-200000D01*
G01*
G37*
G36*
G01*
X98113000Y-88168000D02*
X98113000Y-88718000D01*
G75*
G02*
X97913000Y-88918000I-200000J0D01*
G01*
X97513000Y-88918000D01*
G75*
G02*
X97313000Y-88718000I0J200000D01*
G01*
X97313000Y-88168000D01*
G75*
G02*
X97513000Y-87968000I200000J0D01*
G01*
X97913000Y-87968000D01*
G75*
G02*
X98113000Y-88168000I0J-200000D01*
G01*
G37*
%TD*%
%TO.C,R19*%
G36*
G01*
X88424000Y-88718000D02*
X88424000Y-88168000D01*
G75*
G02*
X88624000Y-87968000I200000J0D01*
G01*
X89024000Y-87968000D01*
G75*
G02*
X89224000Y-88168000I0J-200000D01*
G01*
X89224000Y-88718000D01*
G75*
G02*
X89024000Y-88918000I-200000J0D01*
G01*
X88624000Y-88918000D01*
G75*
G02*
X88424000Y-88718000I0J200000D01*
G01*
G37*
G36*
G01*
X90074000Y-88718000D02*
X90074000Y-88168000D01*
G75*
G02*
X90274000Y-87968000I200000J0D01*
G01*
X90674000Y-87968000D01*
G75*
G02*
X90874000Y-88168000I0J-200000D01*
G01*
X90874000Y-88718000D01*
G75*
G02*
X90674000Y-88918000I-200000J0D01*
G01*
X90274000Y-88918000D01*
G75*
G02*
X90074000Y-88718000I0J200000D01*
G01*
G37*
%TD*%
%TO.C,R17*%
G36*
G01*
X96463000Y-93248000D02*
X96463000Y-93798000D01*
G75*
G02*
X96263000Y-93998000I-200000J0D01*
G01*
X95863000Y-93998000D01*
G75*
G02*
X95663000Y-93798000I0J200000D01*
G01*
X95663000Y-93248000D01*
G75*
G02*
X95863000Y-93048000I200000J0D01*
G01*
X96263000Y-93048000D01*
G75*
G02*
X96463000Y-93248000I0J-200000D01*
G01*
G37*
G36*
G01*
X98113000Y-93248000D02*
X98113000Y-93798000D01*
G75*
G02*
X97913000Y-93998000I-200000J0D01*
G01*
X97513000Y-93998000D01*
G75*
G02*
X97313000Y-93798000I0J200000D01*
G01*
X97313000Y-93248000D01*
G75*
G02*
X97513000Y-93048000I200000J0D01*
G01*
X97913000Y-93048000D01*
G75*
G02*
X98113000Y-93248000I0J-200000D01*
G01*
G37*
%TD*%
%TO.C,R15*%
G36*
G01*
X92274000Y-92145000D02*
X91724000Y-92145000D01*
G75*
G02*
X91524000Y-91945000I0J200000D01*
G01*
X91524000Y-91545000D01*
G75*
G02*
X91724000Y-91345000I200000J0D01*
G01*
X92274000Y-91345000D01*
G75*
G02*
X92474000Y-91545000I0J-200000D01*
G01*
X92474000Y-91945000D01*
G75*
G02*
X92274000Y-92145000I-200000J0D01*
G01*
G37*
G36*
G01*
X92274000Y-90495000D02*
X91724000Y-90495000D01*
G75*
G02*
X91524000Y-90295000I0J200000D01*
G01*
X91524000Y-89895000D01*
G75*
G02*
X91724000Y-89695000I200000J0D01*
G01*
X92274000Y-89695000D01*
G75*
G02*
X92474000Y-89895000I0J-200000D01*
G01*
X92474000Y-90295000D01*
G75*
G02*
X92274000Y-90495000I-200000J0D01*
G01*
G37*
%TD*%
%TO.C,R13*%
G36*
G01*
X94264000Y-91344000D02*
X94814000Y-91344000D01*
G75*
G02*
X95014000Y-91544000I0J-200000D01*
G01*
X95014000Y-91944000D01*
G75*
G02*
X94814000Y-92144000I-200000J0D01*
G01*
X94264000Y-92144000D01*
G75*
G02*
X94064000Y-91944000I0J200000D01*
G01*
X94064000Y-91544000D01*
G75*
G02*
X94264000Y-91344000I200000J0D01*
G01*
G37*
G36*
G01*
X94264000Y-89694000D02*
X94814000Y-89694000D01*
G75*
G02*
X95014000Y-89894000I0J-200000D01*
G01*
X95014000Y-90294000D01*
G75*
G02*
X94814000Y-90494000I-200000J0D01*
G01*
X94264000Y-90494000D01*
G75*
G02*
X94064000Y-90294000I0J200000D01*
G01*
X94064000Y-89894000D01*
G75*
G02*
X94264000Y-89694000I200000J0D01*
G01*
G37*
%TD*%
%TO.C,R11*%
G36*
G01*
X107726000Y-91345000D02*
X108276000Y-91345000D01*
G75*
G02*
X108476000Y-91545000I0J-200000D01*
G01*
X108476000Y-91945000D01*
G75*
G02*
X108276000Y-92145000I-200000J0D01*
G01*
X107726000Y-92145000D01*
G75*
G02*
X107526000Y-91945000I0J200000D01*
G01*
X107526000Y-91545000D01*
G75*
G02*
X107726000Y-91345000I200000J0D01*
G01*
G37*
G36*
G01*
X107726000Y-89695000D02*
X108276000Y-89695000D01*
G75*
G02*
X108476000Y-89895000I0J-200000D01*
G01*
X108476000Y-90295000D01*
G75*
G02*
X108276000Y-90495000I-200000J0D01*
G01*
X107726000Y-90495000D01*
G75*
G02*
X107526000Y-90295000I0J200000D01*
G01*
X107526000Y-89895000D01*
G75*
G02*
X107726000Y-89695000I200000J0D01*
G01*
G37*
%TD*%
%TO.C,R10*%
G36*
G01*
X105736000Y-90495000D02*
X105186000Y-90495000D01*
G75*
G02*
X104986000Y-90295000I0J200000D01*
G01*
X104986000Y-89895000D01*
G75*
G02*
X105186000Y-89695000I200000J0D01*
G01*
X105736000Y-89695000D01*
G75*
G02*
X105936000Y-89895000I0J-200000D01*
G01*
X105936000Y-90295000D01*
G75*
G02*
X105736000Y-90495000I-200000J0D01*
G01*
G37*
G36*
G01*
X105736000Y-92145000D02*
X105186000Y-92145000D01*
G75*
G02*
X104986000Y-91945000I0J200000D01*
G01*
X104986000Y-91545000D01*
G75*
G02*
X105186000Y-91345000I200000J0D01*
G01*
X105736000Y-91345000D01*
G75*
G02*
X105936000Y-91545000I0J-200000D01*
G01*
X105936000Y-91945000D01*
G75*
G02*
X105736000Y-92145000I-200000J0D01*
G01*
G37*
%TD*%
%TO.C,R7*%
G36*
G01*
X110776000Y-93798000D02*
X110776000Y-93248000D01*
G75*
G02*
X110976000Y-93048000I200000J0D01*
G01*
X111376000Y-93048000D01*
G75*
G02*
X111576000Y-93248000I0J-200000D01*
G01*
X111576000Y-93798000D01*
G75*
G02*
X111376000Y-93998000I-200000J0D01*
G01*
X110976000Y-93998000D01*
G75*
G02*
X110776000Y-93798000I0J200000D01*
G01*
G37*
G36*
G01*
X109126000Y-93798000D02*
X109126000Y-93248000D01*
G75*
G02*
X109326000Y-93048000I200000J0D01*
G01*
X109726000Y-93048000D01*
G75*
G02*
X109926000Y-93248000I0J-200000D01*
G01*
X109926000Y-93798000D01*
G75*
G02*
X109726000Y-93998000I-200000J0D01*
G01*
X109326000Y-93998000D01*
G75*
G02*
X109126000Y-93798000I0J200000D01*
G01*
G37*
%TD*%
%TO.C,R6*%
G36*
G01*
X102687000Y-88041000D02*
X102687000Y-88591000D01*
G75*
G02*
X102487000Y-88791000I-200000J0D01*
G01*
X102087000Y-88791000D01*
G75*
G02*
X101887000Y-88591000I0J200000D01*
G01*
X101887000Y-88041000D01*
G75*
G02*
X102087000Y-87841000I200000J0D01*
G01*
X102487000Y-87841000D01*
G75*
G02*
X102687000Y-88041000I0J-200000D01*
G01*
G37*
G36*
G01*
X104337000Y-88041000D02*
X104337000Y-88591000D01*
G75*
G02*
X104137000Y-88791000I-200000J0D01*
G01*
X103737000Y-88791000D01*
G75*
G02*
X103537000Y-88591000I0J200000D01*
G01*
X103537000Y-88041000D01*
G75*
G02*
X103737000Y-87841000I200000J0D01*
G01*
X104137000Y-87841000D01*
G75*
G02*
X104337000Y-88041000I0J-200000D01*
G01*
G37*
%TD*%
%TO.C,R3*%
G36*
G01*
X109925000Y-88041000D02*
X109925000Y-88591000D01*
G75*
G02*
X109725000Y-88791000I-200000J0D01*
G01*
X109325000Y-88791000D01*
G75*
G02*
X109125000Y-88591000I0J200000D01*
G01*
X109125000Y-88041000D01*
G75*
G02*
X109325000Y-87841000I200000J0D01*
G01*
X109725000Y-87841000D01*
G75*
G02*
X109925000Y-88041000I0J-200000D01*
G01*
G37*
G36*
G01*
X111575000Y-88041000D02*
X111575000Y-88591000D01*
G75*
G02*
X111375000Y-88791000I-200000J0D01*
G01*
X110975000Y-88791000D01*
G75*
G02*
X110775000Y-88591000I0J200000D01*
G01*
X110775000Y-88041000D01*
G75*
G02*
X110975000Y-87841000I200000J0D01*
G01*
X111375000Y-87841000D01*
G75*
G02*
X111575000Y-88041000I0J-200000D01*
G01*
G37*
%TD*%
%TO.C,R2*%
G36*
G01*
X103537000Y-93798000D02*
X103537000Y-93248000D01*
G75*
G02*
X103737000Y-93048000I200000J0D01*
G01*
X104137000Y-93048000D01*
G75*
G02*
X104337000Y-93248000I0J-200000D01*
G01*
X104337000Y-93798000D01*
G75*
G02*
X104137000Y-93998000I-200000J0D01*
G01*
X103737000Y-93998000D01*
G75*
G02*
X103537000Y-93798000I0J200000D01*
G01*
G37*
G36*
G01*
X101887000Y-93798000D02*
X101887000Y-93248000D01*
G75*
G02*
X102087000Y-93048000I200000J0D01*
G01*
X102487000Y-93048000D01*
G75*
G02*
X102687000Y-93248000I0J-200000D01*
G01*
X102687000Y-93798000D01*
G75*
G02*
X102487000Y-93998000I-200000J0D01*
G01*
X102087000Y-93998000D01*
G75*
G02*
X101887000Y-93798000I0J200000D01*
G01*
G37*
%TD*%
D15*
%TO.C,Q7*%
X90475000Y-91933000D03*
X90475000Y-90033000D03*
X88475000Y-90983000D03*
%TD*%
%TO.C,Q5*%
X98063000Y-90983000D03*
X96063000Y-91933000D03*
X96063000Y-90033000D03*
%TD*%
%TO.C,Q3*%
X111525000Y-90922000D03*
X109525000Y-91872000D03*
X109525000Y-89972000D03*
%TD*%
%TO.C,Q2*%
X101937000Y-90917000D03*
X103937000Y-89967000D03*
X103937000Y-91867000D03*
%TD*%
%TO.C,C5*%
G36*
G01*
X95043000Y-96741000D02*
X94543000Y-96741000D01*
G75*
G02*
X94318000Y-96516000I0J225000D01*
G01*
X94318000Y-96066000D01*
G75*
G02*
X94543000Y-95841000I225000J0D01*
G01*
X95043000Y-95841000D01*
G75*
G02*
X95268000Y-96066000I0J-225000D01*
G01*
X95268000Y-96516000D01*
G75*
G02*
X95043000Y-96741000I-225000J0D01*
G01*
G37*
G36*
G01*
X95043000Y-98291000D02*
X94543000Y-98291000D01*
G75*
G02*
X94318000Y-98066000I0J225000D01*
G01*
X94318000Y-97616000D01*
G75*
G02*
X94543000Y-97391000I225000J0D01*
G01*
X95043000Y-97391000D01*
G75*
G02*
X95268000Y-97616000I0J-225000D01*
G01*
X95268000Y-98066000D01*
G75*
G02*
X95043000Y-98291000I-225000J0D01*
G01*
G37*
%TD*%
%TO.C,C3*%
G36*
G01*
X105457000Y-96741000D02*
X104957000Y-96741000D01*
G75*
G02*
X104732000Y-96516000I0J225000D01*
G01*
X104732000Y-96066000D01*
G75*
G02*
X104957000Y-95841000I225000J0D01*
G01*
X105457000Y-95841000D01*
G75*
G02*
X105682000Y-96066000I0J-225000D01*
G01*
X105682000Y-96516000D01*
G75*
G02*
X105457000Y-96741000I-225000J0D01*
G01*
G37*
G36*
G01*
X105457000Y-98291000D02*
X104957000Y-98291000D01*
G75*
G02*
X104732000Y-98066000I0J225000D01*
G01*
X104732000Y-97616000D01*
G75*
G02*
X104957000Y-97391000I225000J0D01*
G01*
X105457000Y-97391000D01*
G75*
G02*
X105682000Y-97616000I0J-225000D01*
G01*
X105682000Y-98066000D01*
G75*
G02*
X105457000Y-98291000I-225000J0D01*
G01*
G37*
%TD*%
M02*
