%TF.GenerationSoftware,KiCad,Pcbnew,(5.1.10)-1*%
%TF.CreationDate,2022-01-18T16:25:09+07:00*%
%TF.ProjectId,ADuM_I2C_v3,4144754d-5f49-4324-935f-76332e6b6963,rev?*%
%TF.SameCoordinates,Original*%
%TF.FileFunction,Legend,Bot*%
%TF.FilePolarity,Positive*%
%FSLAX46Y46*%
G04 Gerber Fmt 4.6, Leading zero omitted, Abs format (unit mm)*
G04 Created by KiCad (PCBNEW (5.1.10)-1) date 2022-01-18 16:25:09*
%MOMM*%
%LPD*%
G01*
G04 APERTURE LIST*
%ADD10C,0.150000*%
%ADD11C,0.120000*%
%ADD12O,1.000000X1.000000*%
%ADD13R,1.000000X1.000000*%
%ADD14R,0.900000X0.800000*%
G04 APERTURE END LIST*
D10*
X110144095Y-99150666D02*
X109667904Y-99150666D01*
X110239333Y-99436380D02*
X109906000Y-98436380D01*
X109572666Y-99436380D01*
X90022571Y-98912571D02*
X89879714Y-98960190D01*
X89832095Y-99007809D01*
X89784476Y-99103047D01*
X89784476Y-99245904D01*
X89832095Y-99341142D01*
X89879714Y-99388761D01*
X89974952Y-99436380D01*
X90355904Y-99436380D01*
X90355904Y-98436380D01*
X90022571Y-98436380D01*
X89927333Y-98484000D01*
X89879714Y-98531619D01*
X89832095Y-98626857D01*
X89832095Y-98722095D01*
X89879714Y-98817333D01*
X89927333Y-98864952D01*
X90022571Y-98912571D01*
X90355904Y-98912571D01*
D11*
%TO.C,U1*%
X100000000Y-94519000D02*
X103450000Y-94519000D01*
X100000000Y-94519000D02*
X98050000Y-94519000D01*
X100000000Y-99639000D02*
X101950000Y-99639000D01*
X100000000Y-99639000D02*
X98050000Y-99639000D01*
%TO.C,R24*%
X89412742Y-87920500D02*
X89887258Y-87920500D01*
X89412742Y-88965500D02*
X89887258Y-88965500D01*
%TO.C,R22*%
X97125258Y-94045500D02*
X96650742Y-94045500D01*
X97125258Y-93000500D02*
X96650742Y-93000500D01*
%TO.C,R20*%
X89412742Y-93000500D02*
X89887258Y-93000500D01*
X89412742Y-94045500D02*
X89887258Y-94045500D01*
%TO.C,R18*%
X97125258Y-88965500D02*
X96650742Y-88965500D01*
X97125258Y-87920500D02*
X96650742Y-87920500D01*
%TO.C,R16*%
X92521500Y-90681742D02*
X92521500Y-91156258D01*
X91476500Y-90681742D02*
X91476500Y-91156258D01*
%TO.C,R14*%
X94016500Y-91156258D02*
X94016500Y-90681742D01*
X95061500Y-91156258D02*
X95061500Y-90681742D01*
%TO.C,R12*%
X107478500Y-91157258D02*
X107478500Y-90682742D01*
X108523500Y-91157258D02*
X108523500Y-90682742D01*
%TO.C,R9*%
X105983500Y-90681742D02*
X105983500Y-91156258D01*
X104938500Y-90681742D02*
X104938500Y-91156258D01*
%TO.C,R8*%
X110113742Y-87793500D02*
X110588258Y-87793500D01*
X110113742Y-88838500D02*
X110588258Y-88838500D01*
%TO.C,R5*%
X103349258Y-94045500D02*
X102874742Y-94045500D01*
X103349258Y-93000500D02*
X102874742Y-93000500D01*
%TO.C,R4*%
X110587258Y-94045500D02*
X110112742Y-94045500D01*
X110587258Y-93000500D02*
X110112742Y-93000500D01*
%TO.C,R1*%
X102874742Y-87793500D02*
X103349258Y-87793500D01*
X102874742Y-88838500D02*
X103349258Y-88838500D01*
%TO.C,Q8*%
X88715000Y-92563000D02*
X90175000Y-92563000D01*
X88715000Y-89403000D02*
X90875000Y-89403000D01*
X88715000Y-89403000D02*
X88715000Y-90333000D01*
X88715000Y-92563000D02*
X88715000Y-91633000D01*
%TO.C,Q6*%
X97823000Y-89403000D02*
X96363000Y-89403000D01*
X97823000Y-92563000D02*
X95663000Y-92563000D01*
X97823000Y-92563000D02*
X97823000Y-91633000D01*
X97823000Y-89403000D02*
X97823000Y-90333000D01*
%TO.C,Q4*%
X111285000Y-89342000D02*
X109825000Y-89342000D01*
X111285000Y-92502000D02*
X109125000Y-92502000D01*
X111285000Y-92502000D02*
X111285000Y-91572000D01*
X111285000Y-89342000D02*
X111285000Y-90272000D01*
%TO.C,Q1*%
X102177000Y-92502000D02*
X103637000Y-92502000D01*
X102177000Y-89342000D02*
X104337000Y-89342000D01*
X102177000Y-89342000D02*
X102177000Y-90272000D01*
X102177000Y-92502000D02*
X102177000Y-91572000D01*
%TO.C,C6*%
X92759000Y-97219580D02*
X92759000Y-96938420D01*
X93779000Y-97219580D02*
X93779000Y-96938420D01*
%TO.C,C4*%
X94283000Y-97206580D02*
X94283000Y-96925420D01*
X95303000Y-97206580D02*
X95303000Y-96925420D01*
%TO.C,C2*%
X104697000Y-97206580D02*
X104697000Y-96925420D01*
X105717000Y-97206580D02*
X105717000Y-96925420D01*
%TO.C,C1*%
X106221000Y-97206580D02*
X106221000Y-96925420D01*
X107241000Y-97206580D02*
X107241000Y-96925420D01*
%TO.C,U1*%
D10*
X101269904Y-93229380D02*
X101269904Y-94038904D01*
X101222285Y-94134142D01*
X101174666Y-94181761D01*
X101079428Y-94229380D01*
X100888952Y-94229380D01*
X100793714Y-94181761D01*
X100746095Y-94134142D01*
X100698476Y-94038904D01*
X100698476Y-93229380D01*
X99698476Y-94229380D02*
X100269904Y-94229380D01*
X99984190Y-94229380D02*
X99984190Y-93229380D01*
X100079428Y-93372238D01*
X100174666Y-93467476D01*
X100269904Y-93515095D01*
%TO.C,R24*%
X93022857Y-88895380D02*
X93356190Y-88419190D01*
X93594285Y-88895380D02*
X93594285Y-87895380D01*
X93213333Y-87895380D01*
X93118095Y-87943000D01*
X93070476Y-87990619D01*
X93022857Y-88085857D01*
X93022857Y-88228714D01*
X93070476Y-88323952D01*
X93118095Y-88371571D01*
X93213333Y-88419190D01*
X93594285Y-88419190D01*
X92641904Y-87990619D02*
X92594285Y-87943000D01*
X92499047Y-87895380D01*
X92260952Y-87895380D01*
X92165714Y-87943000D01*
X92118095Y-87990619D01*
X92070476Y-88085857D01*
X92070476Y-88181095D01*
X92118095Y-88323952D01*
X92689523Y-88895380D01*
X92070476Y-88895380D01*
X91213333Y-88228714D02*
X91213333Y-88895380D01*
X91451428Y-87847761D02*
X91689523Y-88562047D01*
X91070476Y-88562047D01*
%TO.C,R22*%
X99309380Y-92372142D02*
X98833190Y-92038809D01*
X99309380Y-91800714D02*
X98309380Y-91800714D01*
X98309380Y-92181666D01*
X98357000Y-92276904D01*
X98404619Y-92324523D01*
X98499857Y-92372142D01*
X98642714Y-92372142D01*
X98737952Y-92324523D01*
X98785571Y-92276904D01*
X98833190Y-92181666D01*
X98833190Y-91800714D01*
X98404619Y-92753095D02*
X98357000Y-92800714D01*
X98309380Y-92895952D01*
X98309380Y-93134047D01*
X98357000Y-93229285D01*
X98404619Y-93276904D01*
X98499857Y-93324523D01*
X98595095Y-93324523D01*
X98737952Y-93276904D01*
X99309380Y-92705476D01*
X99309380Y-93324523D01*
X98404619Y-93705476D02*
X98357000Y-93753095D01*
X98309380Y-93848333D01*
X98309380Y-94086428D01*
X98357000Y-94181666D01*
X98404619Y-94229285D01*
X98499857Y-94276904D01*
X98595095Y-94276904D01*
X98737952Y-94229285D01*
X99309380Y-93657857D01*
X99309380Y-94276904D01*
%TO.C,R20*%
X89974857Y-95372380D02*
X90308190Y-94896190D01*
X90546285Y-95372380D02*
X90546285Y-94372380D01*
X90165333Y-94372380D01*
X90070095Y-94420000D01*
X90022476Y-94467619D01*
X89974857Y-94562857D01*
X89974857Y-94705714D01*
X90022476Y-94800952D01*
X90070095Y-94848571D01*
X90165333Y-94896190D01*
X90546285Y-94896190D01*
X89593904Y-94467619D02*
X89546285Y-94420000D01*
X89451047Y-94372380D01*
X89212952Y-94372380D01*
X89117714Y-94420000D01*
X89070095Y-94467619D01*
X89022476Y-94562857D01*
X89022476Y-94658095D01*
X89070095Y-94800952D01*
X89641523Y-95372380D01*
X89022476Y-95372380D01*
X88403428Y-94372380D02*
X88308190Y-94372380D01*
X88212952Y-94420000D01*
X88165333Y-94467619D01*
X88117714Y-94562857D01*
X88070095Y-94753333D01*
X88070095Y-94991428D01*
X88117714Y-95181904D01*
X88165333Y-95277142D01*
X88212952Y-95324761D01*
X88308190Y-95372380D01*
X88403428Y-95372380D01*
X88498666Y-95324761D01*
X88546285Y-95277142D01*
X88593904Y-95181904D01*
X88641523Y-94991428D01*
X88641523Y-94753333D01*
X88593904Y-94562857D01*
X88546285Y-94467619D01*
X88498666Y-94420000D01*
X88403428Y-94372380D01*
%TO.C,R18*%
X99436380Y-88308142D02*
X98960190Y-87974809D01*
X99436380Y-87736714D02*
X98436380Y-87736714D01*
X98436380Y-88117666D01*
X98484000Y-88212904D01*
X98531619Y-88260523D01*
X98626857Y-88308142D01*
X98769714Y-88308142D01*
X98864952Y-88260523D01*
X98912571Y-88212904D01*
X98960190Y-88117666D01*
X98960190Y-87736714D01*
X99436380Y-89260523D02*
X99436380Y-88689095D01*
X99436380Y-88974809D02*
X98436380Y-88974809D01*
X98579238Y-88879571D01*
X98674476Y-88784333D01*
X98722095Y-88689095D01*
X98864952Y-89831952D02*
X98817333Y-89736714D01*
X98769714Y-89689095D01*
X98674476Y-89641476D01*
X98626857Y-89641476D01*
X98531619Y-89689095D01*
X98484000Y-89736714D01*
X98436380Y-89831952D01*
X98436380Y-90022428D01*
X98484000Y-90117666D01*
X98531619Y-90165285D01*
X98626857Y-90212904D01*
X98674476Y-90212904D01*
X98769714Y-90165285D01*
X98817333Y-90117666D01*
X98864952Y-90022428D01*
X98864952Y-89831952D01*
X98912571Y-89736714D01*
X98960190Y-89689095D01*
X99055428Y-89641476D01*
X99245904Y-89641476D01*
X99341142Y-89689095D01*
X99388761Y-89736714D01*
X99436380Y-89831952D01*
X99436380Y-90022428D01*
X99388761Y-90117666D01*
X99341142Y-90165285D01*
X99245904Y-90212904D01*
X99055428Y-90212904D01*
X98960190Y-90165285D01*
X98912571Y-90117666D01*
X98864952Y-90022428D01*
%TO.C,R16*%
X93721380Y-89832142D02*
X93245190Y-89498809D01*
X93721380Y-89260714D02*
X92721380Y-89260714D01*
X92721380Y-89641666D01*
X92769000Y-89736904D01*
X92816619Y-89784523D01*
X92911857Y-89832142D01*
X93054714Y-89832142D01*
X93149952Y-89784523D01*
X93197571Y-89736904D01*
X93245190Y-89641666D01*
X93245190Y-89260714D01*
X93721380Y-90784523D02*
X93721380Y-90213095D01*
X93721380Y-90498809D02*
X92721380Y-90498809D01*
X92864238Y-90403571D01*
X92959476Y-90308333D01*
X93007095Y-90213095D01*
X92721380Y-91641666D02*
X92721380Y-91451190D01*
X92769000Y-91355952D01*
X92816619Y-91308333D01*
X92959476Y-91213095D01*
X93149952Y-91165476D01*
X93530904Y-91165476D01*
X93626142Y-91213095D01*
X93673761Y-91260714D01*
X93721380Y-91355952D01*
X93721380Y-91546428D01*
X93673761Y-91641666D01*
X93626142Y-91689285D01*
X93530904Y-91736904D01*
X93292809Y-91736904D01*
X93197571Y-91689285D01*
X93149952Y-91641666D01*
X93102333Y-91546428D01*
X93102333Y-91355952D01*
X93149952Y-91260714D01*
X93197571Y-91213095D01*
X93292809Y-91165476D01*
%TO.C,R14*%
X94800857Y-93466380D02*
X95134190Y-92990190D01*
X95372285Y-93466380D02*
X95372285Y-92466380D01*
X94991333Y-92466380D01*
X94896095Y-92514000D01*
X94848476Y-92561619D01*
X94800857Y-92656857D01*
X94800857Y-92799714D01*
X94848476Y-92894952D01*
X94896095Y-92942571D01*
X94991333Y-92990190D01*
X95372285Y-92990190D01*
X93848476Y-93466380D02*
X94419904Y-93466380D01*
X94134190Y-93466380D02*
X94134190Y-92466380D01*
X94229428Y-92609238D01*
X94324666Y-92704476D01*
X94419904Y-92752095D01*
X92991333Y-92799714D02*
X92991333Y-93466380D01*
X93229428Y-92418761D02*
X93467523Y-93133047D01*
X92848476Y-93133047D01*
%TO.C,R12*%
X107183380Y-89705142D02*
X106707190Y-89371809D01*
X107183380Y-89133714D02*
X106183380Y-89133714D01*
X106183380Y-89514666D01*
X106231000Y-89609904D01*
X106278619Y-89657523D01*
X106373857Y-89705142D01*
X106516714Y-89705142D01*
X106611952Y-89657523D01*
X106659571Y-89609904D01*
X106707190Y-89514666D01*
X106707190Y-89133714D01*
X107183380Y-90657523D02*
X107183380Y-90086095D01*
X107183380Y-90371809D02*
X106183380Y-90371809D01*
X106326238Y-90276571D01*
X106421476Y-90181333D01*
X106469095Y-90086095D01*
X106278619Y-91038476D02*
X106231000Y-91086095D01*
X106183380Y-91181333D01*
X106183380Y-91419428D01*
X106231000Y-91514666D01*
X106278619Y-91562285D01*
X106373857Y-91609904D01*
X106469095Y-91609904D01*
X106611952Y-91562285D01*
X107183380Y-90990857D01*
X107183380Y-91609904D01*
%TO.C,R9*%
X105786380Y-88403333D02*
X105310190Y-88070000D01*
X105786380Y-87831904D02*
X104786380Y-87831904D01*
X104786380Y-88212857D01*
X104834000Y-88308095D01*
X104881619Y-88355714D01*
X104976857Y-88403333D01*
X105119714Y-88403333D01*
X105214952Y-88355714D01*
X105262571Y-88308095D01*
X105310190Y-88212857D01*
X105310190Y-87831904D01*
X105786380Y-88879523D02*
X105786380Y-89070000D01*
X105738761Y-89165238D01*
X105691142Y-89212857D01*
X105548285Y-89308095D01*
X105357809Y-89355714D01*
X104976857Y-89355714D01*
X104881619Y-89308095D01*
X104834000Y-89260476D01*
X104786380Y-89165238D01*
X104786380Y-88974761D01*
X104834000Y-88879523D01*
X104881619Y-88831904D01*
X104976857Y-88784285D01*
X105214952Y-88784285D01*
X105310190Y-88831904D01*
X105357809Y-88879523D01*
X105405428Y-88974761D01*
X105405428Y-89165238D01*
X105357809Y-89260476D01*
X105310190Y-89308095D01*
X105214952Y-89355714D01*
%TO.C,R8*%
X108294666Y-88768380D02*
X108628000Y-88292190D01*
X108866095Y-88768380D02*
X108866095Y-87768380D01*
X108485142Y-87768380D01*
X108389904Y-87816000D01*
X108342285Y-87863619D01*
X108294666Y-87958857D01*
X108294666Y-88101714D01*
X108342285Y-88196952D01*
X108389904Y-88244571D01*
X108485142Y-88292190D01*
X108866095Y-88292190D01*
X107723238Y-88196952D02*
X107818476Y-88149333D01*
X107866095Y-88101714D01*
X107913714Y-88006476D01*
X107913714Y-87958857D01*
X107866095Y-87863619D01*
X107818476Y-87816000D01*
X107723238Y-87768380D01*
X107532761Y-87768380D01*
X107437523Y-87816000D01*
X107389904Y-87863619D01*
X107342285Y-87958857D01*
X107342285Y-88006476D01*
X107389904Y-88101714D01*
X107437523Y-88149333D01*
X107532761Y-88196952D01*
X107723238Y-88196952D01*
X107818476Y-88244571D01*
X107866095Y-88292190D01*
X107913714Y-88387428D01*
X107913714Y-88577904D01*
X107866095Y-88673142D01*
X107818476Y-88720761D01*
X107723238Y-88768380D01*
X107532761Y-88768380D01*
X107437523Y-88720761D01*
X107389904Y-88673142D01*
X107342285Y-88577904D01*
X107342285Y-88387428D01*
X107389904Y-88292190D01*
X107437523Y-88244571D01*
X107532761Y-88196952D01*
%TO.C,R5*%
X105500666Y-93848380D02*
X105834000Y-93372190D01*
X106072095Y-93848380D02*
X106072095Y-92848380D01*
X105691142Y-92848380D01*
X105595904Y-92896000D01*
X105548285Y-92943619D01*
X105500666Y-93038857D01*
X105500666Y-93181714D01*
X105548285Y-93276952D01*
X105595904Y-93324571D01*
X105691142Y-93372190D01*
X106072095Y-93372190D01*
X104595904Y-92848380D02*
X105072095Y-92848380D01*
X105119714Y-93324571D01*
X105072095Y-93276952D01*
X104976857Y-93229333D01*
X104738761Y-93229333D01*
X104643523Y-93276952D01*
X104595904Y-93324571D01*
X104548285Y-93419809D01*
X104548285Y-93657904D01*
X104595904Y-93753142D01*
X104643523Y-93800761D01*
X104738761Y-93848380D01*
X104976857Y-93848380D01*
X105072095Y-93800761D01*
X105119714Y-93753142D01*
%TO.C,R4*%
X110453666Y-95372380D02*
X110787000Y-94896190D01*
X111025095Y-95372380D02*
X111025095Y-94372380D01*
X110644142Y-94372380D01*
X110548904Y-94420000D01*
X110501285Y-94467619D01*
X110453666Y-94562857D01*
X110453666Y-94705714D01*
X110501285Y-94800952D01*
X110548904Y-94848571D01*
X110644142Y-94896190D01*
X111025095Y-94896190D01*
X109596523Y-94705714D02*
X109596523Y-95372380D01*
X109834619Y-94324761D02*
X110072714Y-95039047D01*
X109453666Y-95039047D01*
%TO.C,R1*%
X100928666Y-88895380D02*
X101262000Y-88419190D01*
X101500095Y-88895380D02*
X101500095Y-87895380D01*
X101119142Y-87895380D01*
X101023904Y-87943000D01*
X100976285Y-87990619D01*
X100928666Y-88085857D01*
X100928666Y-88228714D01*
X100976285Y-88323952D01*
X101023904Y-88371571D01*
X101119142Y-88419190D01*
X101500095Y-88419190D01*
X99976285Y-88895380D02*
X100547714Y-88895380D01*
X100262000Y-88895380D02*
X100262000Y-87895380D01*
X100357238Y-88038238D01*
X100452476Y-88133476D01*
X100547714Y-88181095D01*
%TO.C,Q8*%
X92165619Y-93046761D02*
X92118000Y-92951523D01*
X92022761Y-92856285D01*
X91879904Y-92713428D01*
X91832285Y-92618190D01*
X91832285Y-92522952D01*
X92070380Y-92570571D02*
X92022761Y-92475333D01*
X91927523Y-92380095D01*
X91737047Y-92332476D01*
X91403714Y-92332476D01*
X91213238Y-92380095D01*
X91118000Y-92475333D01*
X91070380Y-92570571D01*
X91070380Y-92761047D01*
X91118000Y-92856285D01*
X91213238Y-92951523D01*
X91403714Y-92999142D01*
X91737047Y-92999142D01*
X91927523Y-92951523D01*
X92022761Y-92856285D01*
X92070380Y-92761047D01*
X92070380Y-92570571D01*
X91498952Y-93570571D02*
X91451333Y-93475333D01*
X91403714Y-93427714D01*
X91308476Y-93380095D01*
X91260857Y-93380095D01*
X91165619Y-93427714D01*
X91118000Y-93475333D01*
X91070380Y-93570571D01*
X91070380Y-93761047D01*
X91118000Y-93856285D01*
X91165619Y-93903904D01*
X91260857Y-93951523D01*
X91308476Y-93951523D01*
X91403714Y-93903904D01*
X91451333Y-93856285D01*
X91498952Y-93761047D01*
X91498952Y-93570571D01*
X91546571Y-93475333D01*
X91594190Y-93427714D01*
X91689428Y-93380095D01*
X91879904Y-93380095D01*
X91975142Y-93427714D01*
X92022761Y-93475333D01*
X92070380Y-93570571D01*
X92070380Y-93761047D01*
X92022761Y-93856285D01*
X91975142Y-93903904D01*
X91879904Y-93951523D01*
X91689428Y-93951523D01*
X91594190Y-93903904D01*
X91546571Y-93856285D01*
X91498952Y-93761047D01*
%TO.C,Q6*%
X95467619Y-88601761D02*
X95420000Y-88506523D01*
X95324761Y-88411285D01*
X95181904Y-88268428D01*
X95134285Y-88173190D01*
X95134285Y-88077952D01*
X95372380Y-88125571D02*
X95324761Y-88030333D01*
X95229523Y-87935095D01*
X95039047Y-87887476D01*
X94705714Y-87887476D01*
X94515238Y-87935095D01*
X94420000Y-88030333D01*
X94372380Y-88125571D01*
X94372380Y-88316047D01*
X94420000Y-88411285D01*
X94515238Y-88506523D01*
X94705714Y-88554142D01*
X95039047Y-88554142D01*
X95229523Y-88506523D01*
X95324761Y-88411285D01*
X95372380Y-88316047D01*
X95372380Y-88125571D01*
X94372380Y-89411285D02*
X94372380Y-89220809D01*
X94420000Y-89125571D01*
X94467619Y-89077952D01*
X94610476Y-88982714D01*
X94800952Y-88935095D01*
X95181904Y-88935095D01*
X95277142Y-88982714D01*
X95324761Y-89030333D01*
X95372380Y-89125571D01*
X95372380Y-89316047D01*
X95324761Y-89411285D01*
X95277142Y-89458904D01*
X95181904Y-89506523D01*
X94943809Y-89506523D01*
X94848571Y-89458904D01*
X94800952Y-89411285D01*
X94753333Y-89316047D01*
X94753333Y-89125571D01*
X94800952Y-89030333D01*
X94848571Y-88982714D01*
X94943809Y-88935095D01*
%TO.C,Q4*%
X108223238Y-93435619D02*
X108318476Y-93388000D01*
X108413714Y-93292761D01*
X108556571Y-93149904D01*
X108651809Y-93102285D01*
X108747047Y-93102285D01*
X108699428Y-93340380D02*
X108794666Y-93292761D01*
X108889904Y-93197523D01*
X108937523Y-93007047D01*
X108937523Y-92673714D01*
X108889904Y-92483238D01*
X108794666Y-92388000D01*
X108699428Y-92340380D01*
X108508952Y-92340380D01*
X108413714Y-92388000D01*
X108318476Y-92483238D01*
X108270857Y-92673714D01*
X108270857Y-93007047D01*
X108318476Y-93197523D01*
X108413714Y-93292761D01*
X108508952Y-93340380D01*
X108699428Y-93340380D01*
X107413714Y-92673714D02*
X107413714Y-93340380D01*
X107651809Y-92292761D02*
X107889904Y-93007047D01*
X107270857Y-93007047D01*
%TO.C,Q1*%
X101111238Y-90260619D02*
X101206476Y-90213000D01*
X101301714Y-90117761D01*
X101444571Y-89974904D01*
X101539809Y-89927285D01*
X101635047Y-89927285D01*
X101587428Y-90165380D02*
X101682666Y-90117761D01*
X101777904Y-90022523D01*
X101825523Y-89832047D01*
X101825523Y-89498714D01*
X101777904Y-89308238D01*
X101682666Y-89213000D01*
X101587428Y-89165380D01*
X101396952Y-89165380D01*
X101301714Y-89213000D01*
X101206476Y-89308238D01*
X101158857Y-89498714D01*
X101158857Y-89832047D01*
X101206476Y-90022523D01*
X101301714Y-90117761D01*
X101396952Y-90165380D01*
X101587428Y-90165380D01*
X100206476Y-90165380D02*
X100777904Y-90165380D01*
X100492190Y-90165380D02*
X100492190Y-89165380D01*
X100587428Y-89308238D01*
X100682666Y-89403476D01*
X100777904Y-89451095D01*
%TO.C,C6*%
X93435666Y-95404142D02*
X93483285Y-95451761D01*
X93626142Y-95499380D01*
X93721380Y-95499380D01*
X93864238Y-95451761D01*
X93959476Y-95356523D01*
X94007095Y-95261285D01*
X94054714Y-95070809D01*
X94054714Y-94927952D01*
X94007095Y-94737476D01*
X93959476Y-94642238D01*
X93864238Y-94547000D01*
X93721380Y-94499380D01*
X93626142Y-94499380D01*
X93483285Y-94547000D01*
X93435666Y-94594619D01*
X92578523Y-94499380D02*
X92769000Y-94499380D01*
X92864238Y-94547000D01*
X92911857Y-94594619D01*
X93007095Y-94737476D01*
X93054714Y-94927952D01*
X93054714Y-95308904D01*
X93007095Y-95404142D01*
X92959476Y-95451761D01*
X92864238Y-95499380D01*
X92673761Y-95499380D01*
X92578523Y-95451761D01*
X92530904Y-95404142D01*
X92483285Y-95308904D01*
X92483285Y-95070809D01*
X92530904Y-94975571D01*
X92578523Y-94927952D01*
X92673761Y-94880333D01*
X92864238Y-94880333D01*
X92959476Y-94927952D01*
X93007095Y-94975571D01*
X93054714Y-95070809D01*
%TO.C,C4*%
X94959666Y-99595142D02*
X95007285Y-99642761D01*
X95150142Y-99690380D01*
X95245380Y-99690380D01*
X95388238Y-99642761D01*
X95483476Y-99547523D01*
X95531095Y-99452285D01*
X95578714Y-99261809D01*
X95578714Y-99118952D01*
X95531095Y-98928476D01*
X95483476Y-98833238D01*
X95388238Y-98738000D01*
X95245380Y-98690380D01*
X95150142Y-98690380D01*
X95007285Y-98738000D01*
X94959666Y-98785619D01*
X94102523Y-99023714D02*
X94102523Y-99690380D01*
X94340619Y-98642761D02*
X94578714Y-99357047D01*
X93959666Y-99357047D01*
%TO.C,C2*%
X105373666Y-99595142D02*
X105421285Y-99642761D01*
X105564142Y-99690380D01*
X105659380Y-99690380D01*
X105802238Y-99642761D01*
X105897476Y-99547523D01*
X105945095Y-99452285D01*
X105992714Y-99261809D01*
X105992714Y-99118952D01*
X105945095Y-98928476D01*
X105897476Y-98833238D01*
X105802238Y-98738000D01*
X105659380Y-98690380D01*
X105564142Y-98690380D01*
X105421285Y-98738000D01*
X105373666Y-98785619D01*
X104992714Y-98785619D02*
X104945095Y-98738000D01*
X104849857Y-98690380D01*
X104611761Y-98690380D01*
X104516523Y-98738000D01*
X104468904Y-98785619D01*
X104421285Y-98880857D01*
X104421285Y-98976095D01*
X104468904Y-99118952D01*
X105040333Y-99690380D01*
X104421285Y-99690380D01*
%TO.C,C1*%
X106897666Y-95404142D02*
X106945285Y-95451761D01*
X107088142Y-95499380D01*
X107183380Y-95499380D01*
X107326238Y-95451761D01*
X107421476Y-95356523D01*
X107469095Y-95261285D01*
X107516714Y-95070809D01*
X107516714Y-94927952D01*
X107469095Y-94737476D01*
X107421476Y-94642238D01*
X107326238Y-94547000D01*
X107183380Y-94499380D01*
X107088142Y-94499380D01*
X106945285Y-94547000D01*
X106897666Y-94594619D01*
X105945285Y-95499380D02*
X106516714Y-95499380D01*
X106231000Y-95499380D02*
X106231000Y-94499380D01*
X106326238Y-94642238D01*
X106421476Y-94737476D01*
X106516714Y-94785095D01*
%TD*%
%LPC*%
D12*
%TO.C,J1*%
X108636000Y-97714000D03*
X108636000Y-96444000D03*
X109906000Y-97714000D03*
X109906000Y-96444000D03*
X111176000Y-97714000D03*
D13*
X111176000Y-96444000D03*
%TD*%
D12*
%TO.C,J2*%
X88824000Y-97714000D03*
X88824000Y-96444000D03*
X90094000Y-97714000D03*
X90094000Y-96444000D03*
X91364000Y-97714000D03*
D13*
X91364000Y-96444000D03*
%TD*%
%TO.C,U1*%
G36*
G01*
X98500000Y-95024000D02*
X98500000Y-95324000D01*
G75*
G02*
X98350000Y-95474000I-150000J0D01*
G01*
X96700000Y-95474000D01*
G75*
G02*
X96550000Y-95324000I0J150000D01*
G01*
X96550000Y-95024000D01*
G75*
G02*
X96700000Y-94874000I150000J0D01*
G01*
X98350000Y-94874000D01*
G75*
G02*
X98500000Y-95024000I0J-150000D01*
G01*
G37*
G36*
G01*
X98500000Y-96294000D02*
X98500000Y-96594000D01*
G75*
G02*
X98350000Y-96744000I-150000J0D01*
G01*
X96700000Y-96744000D01*
G75*
G02*
X96550000Y-96594000I0J150000D01*
G01*
X96550000Y-96294000D01*
G75*
G02*
X96700000Y-96144000I150000J0D01*
G01*
X98350000Y-96144000D01*
G75*
G02*
X98500000Y-96294000I0J-150000D01*
G01*
G37*
G36*
G01*
X98500000Y-97564000D02*
X98500000Y-97864000D01*
G75*
G02*
X98350000Y-98014000I-150000J0D01*
G01*
X96700000Y-98014000D01*
G75*
G02*
X96550000Y-97864000I0J150000D01*
G01*
X96550000Y-97564000D01*
G75*
G02*
X96700000Y-97414000I150000J0D01*
G01*
X98350000Y-97414000D01*
G75*
G02*
X98500000Y-97564000I0J-150000D01*
G01*
G37*
G36*
G01*
X98500000Y-98834000D02*
X98500000Y-99134000D01*
G75*
G02*
X98350000Y-99284000I-150000J0D01*
G01*
X96700000Y-99284000D01*
G75*
G02*
X96550000Y-99134000I0J150000D01*
G01*
X96550000Y-98834000D01*
G75*
G02*
X96700000Y-98684000I150000J0D01*
G01*
X98350000Y-98684000D01*
G75*
G02*
X98500000Y-98834000I0J-150000D01*
G01*
G37*
G36*
G01*
X103450000Y-98834000D02*
X103450000Y-99134000D01*
G75*
G02*
X103300000Y-99284000I-150000J0D01*
G01*
X101650000Y-99284000D01*
G75*
G02*
X101500000Y-99134000I0J150000D01*
G01*
X101500000Y-98834000D01*
G75*
G02*
X101650000Y-98684000I150000J0D01*
G01*
X103300000Y-98684000D01*
G75*
G02*
X103450000Y-98834000I0J-150000D01*
G01*
G37*
G36*
G01*
X103450000Y-97564000D02*
X103450000Y-97864000D01*
G75*
G02*
X103300000Y-98014000I-150000J0D01*
G01*
X101650000Y-98014000D01*
G75*
G02*
X101500000Y-97864000I0J150000D01*
G01*
X101500000Y-97564000D01*
G75*
G02*
X101650000Y-97414000I150000J0D01*
G01*
X103300000Y-97414000D01*
G75*
G02*
X103450000Y-97564000I0J-150000D01*
G01*
G37*
G36*
G01*
X103450000Y-96294000D02*
X103450000Y-96594000D01*
G75*
G02*
X103300000Y-96744000I-150000J0D01*
G01*
X101650000Y-96744000D01*
G75*
G02*
X101500000Y-96594000I0J150000D01*
G01*
X101500000Y-96294000D01*
G75*
G02*
X101650000Y-96144000I150000J0D01*
G01*
X103300000Y-96144000D01*
G75*
G02*
X103450000Y-96294000I0J-150000D01*
G01*
G37*
G36*
G01*
X103450000Y-95024000D02*
X103450000Y-95324000D01*
G75*
G02*
X103300000Y-95474000I-150000J0D01*
G01*
X101650000Y-95474000D01*
G75*
G02*
X101500000Y-95324000I0J150000D01*
G01*
X101500000Y-95024000D01*
G75*
G02*
X101650000Y-94874000I150000J0D01*
G01*
X103300000Y-94874000D01*
G75*
G02*
X103450000Y-95024000I0J-150000D01*
G01*
G37*
%TD*%
%TO.C,R24*%
G36*
G01*
X90075000Y-88718000D02*
X90075000Y-88168000D01*
G75*
G02*
X90275000Y-87968000I200000J0D01*
G01*
X90675000Y-87968000D01*
G75*
G02*
X90875000Y-88168000I0J-200000D01*
G01*
X90875000Y-88718000D01*
G75*
G02*
X90675000Y-88918000I-200000J0D01*
G01*
X90275000Y-88918000D01*
G75*
G02*
X90075000Y-88718000I0J200000D01*
G01*
G37*
G36*
G01*
X88425000Y-88718000D02*
X88425000Y-88168000D01*
G75*
G02*
X88625000Y-87968000I200000J0D01*
G01*
X89025000Y-87968000D01*
G75*
G02*
X89225000Y-88168000I0J-200000D01*
G01*
X89225000Y-88718000D01*
G75*
G02*
X89025000Y-88918000I-200000J0D01*
G01*
X88625000Y-88918000D01*
G75*
G02*
X88425000Y-88718000I0J200000D01*
G01*
G37*
%TD*%
%TO.C,R22*%
G36*
G01*
X96463000Y-93248000D02*
X96463000Y-93798000D01*
G75*
G02*
X96263000Y-93998000I-200000J0D01*
G01*
X95863000Y-93998000D01*
G75*
G02*
X95663000Y-93798000I0J200000D01*
G01*
X95663000Y-93248000D01*
G75*
G02*
X95863000Y-93048000I200000J0D01*
G01*
X96263000Y-93048000D01*
G75*
G02*
X96463000Y-93248000I0J-200000D01*
G01*
G37*
G36*
G01*
X98113000Y-93248000D02*
X98113000Y-93798000D01*
G75*
G02*
X97913000Y-93998000I-200000J0D01*
G01*
X97513000Y-93998000D01*
G75*
G02*
X97313000Y-93798000I0J200000D01*
G01*
X97313000Y-93248000D01*
G75*
G02*
X97513000Y-93048000I200000J0D01*
G01*
X97913000Y-93048000D01*
G75*
G02*
X98113000Y-93248000I0J-200000D01*
G01*
G37*
%TD*%
%TO.C,R20*%
G36*
G01*
X90075000Y-93798000D02*
X90075000Y-93248000D01*
G75*
G02*
X90275000Y-93048000I200000J0D01*
G01*
X90675000Y-93048000D01*
G75*
G02*
X90875000Y-93248000I0J-200000D01*
G01*
X90875000Y-93798000D01*
G75*
G02*
X90675000Y-93998000I-200000J0D01*
G01*
X90275000Y-93998000D01*
G75*
G02*
X90075000Y-93798000I0J200000D01*
G01*
G37*
G36*
G01*
X88425000Y-93798000D02*
X88425000Y-93248000D01*
G75*
G02*
X88625000Y-93048000I200000J0D01*
G01*
X89025000Y-93048000D01*
G75*
G02*
X89225000Y-93248000I0J-200000D01*
G01*
X89225000Y-93798000D01*
G75*
G02*
X89025000Y-93998000I-200000J0D01*
G01*
X88625000Y-93998000D01*
G75*
G02*
X88425000Y-93798000I0J200000D01*
G01*
G37*
%TD*%
%TO.C,R18*%
G36*
G01*
X96463000Y-88168000D02*
X96463000Y-88718000D01*
G75*
G02*
X96263000Y-88918000I-200000J0D01*
G01*
X95863000Y-88918000D01*
G75*
G02*
X95663000Y-88718000I0J200000D01*
G01*
X95663000Y-88168000D01*
G75*
G02*
X95863000Y-87968000I200000J0D01*
G01*
X96263000Y-87968000D01*
G75*
G02*
X96463000Y-88168000I0J-200000D01*
G01*
G37*
G36*
G01*
X98113000Y-88168000D02*
X98113000Y-88718000D01*
G75*
G02*
X97913000Y-88918000I-200000J0D01*
G01*
X97513000Y-88918000D01*
G75*
G02*
X97313000Y-88718000I0J200000D01*
G01*
X97313000Y-88168000D01*
G75*
G02*
X97513000Y-87968000I200000J0D01*
G01*
X97913000Y-87968000D01*
G75*
G02*
X98113000Y-88168000I0J-200000D01*
G01*
G37*
%TD*%
%TO.C,R16*%
G36*
G01*
X91724000Y-91344000D02*
X92274000Y-91344000D01*
G75*
G02*
X92474000Y-91544000I0J-200000D01*
G01*
X92474000Y-91944000D01*
G75*
G02*
X92274000Y-92144000I-200000J0D01*
G01*
X91724000Y-92144000D01*
G75*
G02*
X91524000Y-91944000I0J200000D01*
G01*
X91524000Y-91544000D01*
G75*
G02*
X91724000Y-91344000I200000J0D01*
G01*
G37*
G36*
G01*
X91724000Y-89694000D02*
X92274000Y-89694000D01*
G75*
G02*
X92474000Y-89894000I0J-200000D01*
G01*
X92474000Y-90294000D01*
G75*
G02*
X92274000Y-90494000I-200000J0D01*
G01*
X91724000Y-90494000D01*
G75*
G02*
X91524000Y-90294000I0J200000D01*
G01*
X91524000Y-89894000D01*
G75*
G02*
X91724000Y-89694000I200000J0D01*
G01*
G37*
%TD*%
%TO.C,R14*%
G36*
G01*
X94814000Y-90494000D02*
X94264000Y-90494000D01*
G75*
G02*
X94064000Y-90294000I0J200000D01*
G01*
X94064000Y-89894000D01*
G75*
G02*
X94264000Y-89694000I200000J0D01*
G01*
X94814000Y-89694000D01*
G75*
G02*
X95014000Y-89894000I0J-200000D01*
G01*
X95014000Y-90294000D01*
G75*
G02*
X94814000Y-90494000I-200000J0D01*
G01*
G37*
G36*
G01*
X94814000Y-92144000D02*
X94264000Y-92144000D01*
G75*
G02*
X94064000Y-91944000I0J200000D01*
G01*
X94064000Y-91544000D01*
G75*
G02*
X94264000Y-91344000I200000J0D01*
G01*
X94814000Y-91344000D01*
G75*
G02*
X95014000Y-91544000I0J-200000D01*
G01*
X95014000Y-91944000D01*
G75*
G02*
X94814000Y-92144000I-200000J0D01*
G01*
G37*
%TD*%
%TO.C,R12*%
G36*
G01*
X108276000Y-90495000D02*
X107726000Y-90495000D01*
G75*
G02*
X107526000Y-90295000I0J200000D01*
G01*
X107526000Y-89895000D01*
G75*
G02*
X107726000Y-89695000I200000J0D01*
G01*
X108276000Y-89695000D01*
G75*
G02*
X108476000Y-89895000I0J-200000D01*
G01*
X108476000Y-90295000D01*
G75*
G02*
X108276000Y-90495000I-200000J0D01*
G01*
G37*
G36*
G01*
X108276000Y-92145000D02*
X107726000Y-92145000D01*
G75*
G02*
X107526000Y-91945000I0J200000D01*
G01*
X107526000Y-91545000D01*
G75*
G02*
X107726000Y-91345000I200000J0D01*
G01*
X108276000Y-91345000D01*
G75*
G02*
X108476000Y-91545000I0J-200000D01*
G01*
X108476000Y-91945000D01*
G75*
G02*
X108276000Y-92145000I-200000J0D01*
G01*
G37*
%TD*%
%TO.C,R9*%
G36*
G01*
X105186000Y-91344000D02*
X105736000Y-91344000D01*
G75*
G02*
X105936000Y-91544000I0J-200000D01*
G01*
X105936000Y-91944000D01*
G75*
G02*
X105736000Y-92144000I-200000J0D01*
G01*
X105186000Y-92144000D01*
G75*
G02*
X104986000Y-91944000I0J200000D01*
G01*
X104986000Y-91544000D01*
G75*
G02*
X105186000Y-91344000I200000J0D01*
G01*
G37*
G36*
G01*
X105186000Y-89694000D02*
X105736000Y-89694000D01*
G75*
G02*
X105936000Y-89894000I0J-200000D01*
G01*
X105936000Y-90294000D01*
G75*
G02*
X105736000Y-90494000I-200000J0D01*
G01*
X105186000Y-90494000D01*
G75*
G02*
X104986000Y-90294000I0J200000D01*
G01*
X104986000Y-89894000D01*
G75*
G02*
X105186000Y-89694000I200000J0D01*
G01*
G37*
%TD*%
%TO.C,R8*%
G36*
G01*
X110776000Y-88591000D02*
X110776000Y-88041000D01*
G75*
G02*
X110976000Y-87841000I200000J0D01*
G01*
X111376000Y-87841000D01*
G75*
G02*
X111576000Y-88041000I0J-200000D01*
G01*
X111576000Y-88591000D01*
G75*
G02*
X111376000Y-88791000I-200000J0D01*
G01*
X110976000Y-88791000D01*
G75*
G02*
X110776000Y-88591000I0J200000D01*
G01*
G37*
G36*
G01*
X109126000Y-88591000D02*
X109126000Y-88041000D01*
G75*
G02*
X109326000Y-87841000I200000J0D01*
G01*
X109726000Y-87841000D01*
G75*
G02*
X109926000Y-88041000I0J-200000D01*
G01*
X109926000Y-88591000D01*
G75*
G02*
X109726000Y-88791000I-200000J0D01*
G01*
X109326000Y-88791000D01*
G75*
G02*
X109126000Y-88591000I0J200000D01*
G01*
G37*
%TD*%
%TO.C,R5*%
G36*
G01*
X102687000Y-93248000D02*
X102687000Y-93798000D01*
G75*
G02*
X102487000Y-93998000I-200000J0D01*
G01*
X102087000Y-93998000D01*
G75*
G02*
X101887000Y-93798000I0J200000D01*
G01*
X101887000Y-93248000D01*
G75*
G02*
X102087000Y-93048000I200000J0D01*
G01*
X102487000Y-93048000D01*
G75*
G02*
X102687000Y-93248000I0J-200000D01*
G01*
G37*
G36*
G01*
X104337000Y-93248000D02*
X104337000Y-93798000D01*
G75*
G02*
X104137000Y-93998000I-200000J0D01*
G01*
X103737000Y-93998000D01*
G75*
G02*
X103537000Y-93798000I0J200000D01*
G01*
X103537000Y-93248000D01*
G75*
G02*
X103737000Y-93048000I200000J0D01*
G01*
X104137000Y-93048000D01*
G75*
G02*
X104337000Y-93248000I0J-200000D01*
G01*
G37*
%TD*%
%TO.C,R4*%
G36*
G01*
X109925000Y-93248000D02*
X109925000Y-93798000D01*
G75*
G02*
X109725000Y-93998000I-200000J0D01*
G01*
X109325000Y-93998000D01*
G75*
G02*
X109125000Y-93798000I0J200000D01*
G01*
X109125000Y-93248000D01*
G75*
G02*
X109325000Y-93048000I200000J0D01*
G01*
X109725000Y-93048000D01*
G75*
G02*
X109925000Y-93248000I0J-200000D01*
G01*
G37*
G36*
G01*
X111575000Y-93248000D02*
X111575000Y-93798000D01*
G75*
G02*
X111375000Y-93998000I-200000J0D01*
G01*
X110975000Y-93998000D01*
G75*
G02*
X110775000Y-93798000I0J200000D01*
G01*
X110775000Y-93248000D01*
G75*
G02*
X110975000Y-93048000I200000J0D01*
G01*
X111375000Y-93048000D01*
G75*
G02*
X111575000Y-93248000I0J-200000D01*
G01*
G37*
%TD*%
%TO.C,R1*%
G36*
G01*
X103537000Y-88591000D02*
X103537000Y-88041000D01*
G75*
G02*
X103737000Y-87841000I200000J0D01*
G01*
X104137000Y-87841000D01*
G75*
G02*
X104337000Y-88041000I0J-200000D01*
G01*
X104337000Y-88591000D01*
G75*
G02*
X104137000Y-88791000I-200000J0D01*
G01*
X103737000Y-88791000D01*
G75*
G02*
X103537000Y-88591000I0J200000D01*
G01*
G37*
G36*
G01*
X101887000Y-88591000D02*
X101887000Y-88041000D01*
G75*
G02*
X102087000Y-87841000I200000J0D01*
G01*
X102487000Y-87841000D01*
G75*
G02*
X102687000Y-88041000I0J-200000D01*
G01*
X102687000Y-88591000D01*
G75*
G02*
X102487000Y-88791000I-200000J0D01*
G01*
X102087000Y-88791000D01*
G75*
G02*
X101887000Y-88591000I0J200000D01*
G01*
G37*
%TD*%
D14*
%TO.C,Q8*%
X88475000Y-90983000D03*
X90475000Y-91933000D03*
X90475000Y-90033000D03*
%TD*%
%TO.C,Q6*%
X98063000Y-90983000D03*
X96063000Y-90033000D03*
X96063000Y-91933000D03*
%TD*%
%TO.C,Q4*%
X111525000Y-90922000D03*
X109525000Y-89972000D03*
X109525000Y-91872000D03*
%TD*%
%TO.C,Q1*%
X101937000Y-90922000D03*
X103937000Y-91872000D03*
X103937000Y-89972000D03*
%TD*%
%TO.C,C6*%
G36*
G01*
X93519000Y-96754000D02*
X93019000Y-96754000D01*
G75*
G02*
X92794000Y-96529000I0J225000D01*
G01*
X92794000Y-96079000D01*
G75*
G02*
X93019000Y-95854000I225000J0D01*
G01*
X93519000Y-95854000D01*
G75*
G02*
X93744000Y-96079000I0J-225000D01*
G01*
X93744000Y-96529000D01*
G75*
G02*
X93519000Y-96754000I-225000J0D01*
G01*
G37*
G36*
G01*
X93519000Y-98304000D02*
X93019000Y-98304000D01*
G75*
G02*
X92794000Y-98079000I0J225000D01*
G01*
X92794000Y-97629000D01*
G75*
G02*
X93019000Y-97404000I225000J0D01*
G01*
X93519000Y-97404000D01*
G75*
G02*
X93744000Y-97629000I0J-225000D01*
G01*
X93744000Y-98079000D01*
G75*
G02*
X93519000Y-98304000I-225000J0D01*
G01*
G37*
%TD*%
%TO.C,C4*%
G36*
G01*
X95043000Y-96741000D02*
X94543000Y-96741000D01*
G75*
G02*
X94318000Y-96516000I0J225000D01*
G01*
X94318000Y-96066000D01*
G75*
G02*
X94543000Y-95841000I225000J0D01*
G01*
X95043000Y-95841000D01*
G75*
G02*
X95268000Y-96066000I0J-225000D01*
G01*
X95268000Y-96516000D01*
G75*
G02*
X95043000Y-96741000I-225000J0D01*
G01*
G37*
G36*
G01*
X95043000Y-98291000D02*
X94543000Y-98291000D01*
G75*
G02*
X94318000Y-98066000I0J225000D01*
G01*
X94318000Y-97616000D01*
G75*
G02*
X94543000Y-97391000I225000J0D01*
G01*
X95043000Y-97391000D01*
G75*
G02*
X95268000Y-97616000I0J-225000D01*
G01*
X95268000Y-98066000D01*
G75*
G02*
X95043000Y-98291000I-225000J0D01*
G01*
G37*
%TD*%
%TO.C,C2*%
G36*
G01*
X105457000Y-96741000D02*
X104957000Y-96741000D01*
G75*
G02*
X104732000Y-96516000I0J225000D01*
G01*
X104732000Y-96066000D01*
G75*
G02*
X104957000Y-95841000I225000J0D01*
G01*
X105457000Y-95841000D01*
G75*
G02*
X105682000Y-96066000I0J-225000D01*
G01*
X105682000Y-96516000D01*
G75*
G02*
X105457000Y-96741000I-225000J0D01*
G01*
G37*
G36*
G01*
X105457000Y-98291000D02*
X104957000Y-98291000D01*
G75*
G02*
X104732000Y-98066000I0J225000D01*
G01*
X104732000Y-97616000D01*
G75*
G02*
X104957000Y-97391000I225000J0D01*
G01*
X105457000Y-97391000D01*
G75*
G02*
X105682000Y-97616000I0J-225000D01*
G01*
X105682000Y-98066000D01*
G75*
G02*
X105457000Y-98291000I-225000J0D01*
G01*
G37*
%TD*%
%TO.C,C1*%
G36*
G01*
X106981000Y-96741000D02*
X106481000Y-96741000D01*
G75*
G02*
X106256000Y-96516000I0J225000D01*
G01*
X106256000Y-96066000D01*
G75*
G02*
X106481000Y-95841000I225000J0D01*
G01*
X106981000Y-95841000D01*
G75*
G02*
X107206000Y-96066000I0J-225000D01*
G01*
X107206000Y-96516000D01*
G75*
G02*
X106981000Y-96741000I-225000J0D01*
G01*
G37*
G36*
G01*
X106981000Y-98291000D02*
X106481000Y-98291000D01*
G75*
G02*
X106256000Y-98066000I0J225000D01*
G01*
X106256000Y-97616000D01*
G75*
G02*
X106481000Y-97391000I225000J0D01*
G01*
X106981000Y-97391000D01*
G75*
G02*
X107206000Y-97616000I0J-225000D01*
G01*
X107206000Y-98066000D01*
G75*
G02*
X106981000Y-98291000I-225000J0D01*
G01*
G37*
%TD*%
M02*
